# Made in Blockbench 4.12.6
mtllib metal_cans_debris.mtl

o can_2
v 0.78125 0.34375 0.65625
v 0.8105342457183776 0.34375 0.7883419291155644
v 0.8953600091374876 0.34375 0.7289462901351103
v 0.9133419291155644 0.34375 0.6269657542816224
v 0.8539462901351103 0.34375 0.5421399908625124
v 0.7519657542816224 0.34375 0.5241580708844356
v 0.6671399908625124 0.34375 0.5835537098648897
v 0.6491580708844356 0.34375 0.6855342457183776
v 0.7085537098648897 0.34375 0.7703600091374876
v 0.7519657542816224 0 0.5241580708844356
v 0.6671399908625124 0 0.5835537098648897
v 0.78125 0 0.65625
v 0.6491580708844356 0 0.6855342457183776
v 0.7085537098648897 0 0.7703600091374876
v 0.8105342457183776 0 0.7883419291155644
v 0.8953600091374876 0 0.7289462901351103
v 0.9133419291155644 0 0.6269657542816224
v 0.8539462901351103 0 0.5421399908625124
vt 0.46875 0.53125
vt 0.5625 0.53125
vt 0.5625 0.875
vt 0.46875 0.875
vt 0.5625 0.875
vt 0.46875 0.875
vt 0.515625 1
vt 0.5625 0.53125
vt 0.65625 0.53125
vt 0.65625 0.875
vt 0.5625 0.875
vt 0.65625 0.875
vt 0.5625 0.875
vt 0.609375 1
vt 0.65625 0.53125
vt 0.75 0.53125
vt 0.75 0.875
vt 0.65625 0.875
vt 0.75 0.875
vt 0.65625 0.875
vt 0.703125 1
vt 0 0.53125
vt 0.09375 0.53125
vt 0.09375 0.875
vt 0 0.875
vt 0.09375 0.875
vt 0 0.875
vt 0.046875 1
vt 0.09375 0.53125
vt 0.1875 0.53125
vt 0.1875 0.875
vt 0.09375 0.875
vt 0.1875 0.875
vt 0.09375 0.875
vt 0.140625 1
vt 0.1875 0.53125
vt 0.28125 0.53125
vt 0.28125 0.875
vt 0.1875 0.875
vt 0.28125 0.875
vt 0.1875 0.875
vt 0.234375 1
vt 0.28125 0.53125
vt 0.375 0.53125
vt 0.375 0.875
vt 0.28125 0.875
vt 0.375 0.875
vt 0.28125 0.875
vt 0.328125 1
vt 0.375 0.53125
vt 0.46875 0.53125
vt 0.46875 0.875
vt 0.375 0.875
vt 0.46875 0.875
vt 0.375 0.875
vt 0.421875 1
vt 0.46875 0.53125
vt 0.5625 0.53125
vt 0.515625 0.40625
vt 0.5625 0.53125
vt 0.65625 0.53125
vt 0.609375 0.40625
vt 0.65625 0.53125
vt 0.75 0.53125
vt 0.703125 0.40625
vt 0 0.53125
vt 0.09375 0.53125
vt 0.046875 0.40625
vt 0.09375 0.53125
vt 0.1875 0.53125
vt 0.140625 0.40625
vt 0.1875 0.53125
vt 0.28125 0.53125
vt 0.234375 0.40625
vt 0.28125 0.53125
vt 0.375 0.53125
vt 0.328125 0.40625
vt 0.375 0.53125
vt 0.46875 0.53125
vt 0.421875 0.40625
vn 0.5735764363510462 0 0.8191520442889917
vn 0 1 0
vn 0.984807753012208 0 0.17364817766693033
vn 0 1 0
vn 0.8191520442889917 0 -0.5735764363510462
vn 0 1 0
vn 0.17364817766693033 0 -0.984807753012208
vn 0 1 0
vn -0.5735764363510462 0 -0.8191520442889917
vn 0 1 0
vn -0.984807753012208 0 -0.17364817766693033
vn 0 1 0
vn -0.8191520442889917 0 0.5735764363510462
vn 0 1 0
vn -0.17364817766693033 0 0.984807753012208
vn 0 1 0
vn 0 -1 0
vn 0 -1 0
vn 0 -1 0
vn 0 -1 0
vn 0 -1 0
vn 0 -1 0
vn 0 -1 0
vn 0 -1 0
usemtl m_576f9ee6-af02-f947-af13-1796e4a8bebf
f 15/1/1 16/2/1 3/3/1 2/4/1
f 2/5/2 3/6/2 1/7/2
f 16/8/3 17/9/3 4/10/3 3/11/3
f 3/12/4 4/13/4 1/14/4
f 17/15/5 18/16/5 5/17/5 4/18/5
f 4/19/6 5/20/6 1/21/6
f 18/22/7 10/23/7 6/24/7 5/25/7
f 5/26/8 6/27/8 1/28/8
f 10/29/9 11/30/9 7/31/9 6/32/9
f 6/33/10 7/34/10 1/35/10
f 11/36/11 13/37/11 8/38/11 7/39/11
f 7/40/12 8/41/12 1/42/12
f 13/43/13 14/44/13 9/45/13 8/46/13
f 8/47/14 9/48/14 1/49/14
f 14/50/15 15/51/15 2/52/15 9/53/15
f 9/54/16 2/55/16 1/56/16
f 16/57/17 15/58/17 12/59/17
f 17/60/18 16/61/18 12/62/18
f 18/63/19 17/64/19 12/65/19
f 10/66/20 18/67/20 12/68/20
f 11/69/21 10/70/21 12/71/21
f 13/72/22 11/73/22 12/74/22
f 14/75/23 13/76/23 12/77/23
f 15/78/24 14/79/24 12/80/24
o can_3
v 0.46875 0.34375 0.71875
v 0.520526875 0.34375 0.84375
v 0.59375 0.34375 0.770526875
v 0.59375 0.34375 0.666973125
v 0.520526875 0.34375 0.59375
v 0.416973125 0.34375 0.59375
v 0.34375 0.34375 0.666973125
v 0.34375 0.34375 0.770526875
v 0.416973125 0.34375 0.84375
v 0.416973125 0 0.59375
v 0.34375 0 0.666973125
v 0.46875 0 0.71875
v 0.34375 0 0.770526875
v 0.416973125 0 0.84375
v 0.520526875 0 0.84375
v 0.59375 0 0.770526875
v 0.59375 0 0.666973125
v 0.520526875 0 0.59375
vt 0.46875 0.53125
vt 0.5625 0.53125
vt 0.5625 0.875
vt 0.46875 0.875
vt 0.5625 0.875
vt 0.46875 0.875
vt 0.515625 1
vt 0.5625 0.53125
vt 0.65625 0.53125
vt 0.65625 0.875
vt 0.5625 0.875
vt 0.65625 0.875
vt 0.5625 0.875
vt 0.609375 1
vt 0.65625 0.53125
vt 0.75 0.53125
vt 0.75 0.875
vt 0.65625 0.875
vt 0.75 0.875
vt 0.65625 0.875
vt 0.703125 1
vt 0 0.53125
vt 0.09375 0.53125
vt 0.09375 0.875
vt 0 0.875
vt 0.09375 0.875
vt 0 0.875
vt 0.046875 1
vt 0.09375 0.53125
vt 0.1875 0.53125
vt 0.1875 0.875
vt 0.09375 0.875
vt 0.1875 0.875
vt 0.09375 0.875
vt 0.140625 1
vt 0.1875 0.53125
vt 0.28125 0.53125
vt 0.28125 0.875
vt 0.1875 0.875
vt 0.28125 0.875
vt 0.1875 0.875
vt 0.234375 1
vt 0.28125 0.53125
vt 0.375 0.53125
vt 0.375 0.875
vt 0.28125 0.875
vt 0.375 0.875
vt 0.28125 0.875
vt 0.328125 1
vt 0.375 0.53125
vt 0.46875 0.53125
vt 0.46875 0.875
vt 0.375 0.875
vt 0.46875 0.875
vt 0.375 0.875
vt 0.421875 1
vt 0.46875 0.53125
vt 0.5625 0.53125
vt 0.515625 0.40625
vt 0.5625 0.53125
vt 0.65625 0.53125
vt 0.609375 0.40625
vt 0.65625 0.53125
vt 0.75 0.53125
vt 0.703125 0.40625
vt 0 0.53125
vt 0.09375 0.53125
vt 0.046875 0.40625
vt 0.09375 0.53125
vt 0.1875 0.53125
vt 0.140625 0.40625
vt 0.1875 0.53125
vt 0.28125 0.53125
vt 0.234375 0.40625
vt 0.28125 0.53125
vt 0.375 0.53125
vt 0.328125 0.40625
vt 0.375 0.53125
vt 0.46875 0.53125
vt 0.421875 0.40625
vn 0.7071067811865476 0 0.7071067811865476
vn 0 1 0
vn 1 0 0
vn 0 1 0
vn 0.7071067811865476 0 -0.7071067811865476
vn 0 1 0
vn 0 0 -1
vn 0 1 0
vn -0.7071067811865476 0 -0.7071067811865476
vn 0 1 0
vn -1 0 0
vn 0 1 0
vn -0.7071067811865476 0 0.7071067811865476
vn 0 1 0
vn 0 0 1
vn 0 1 0
vn 0 -1 0
vn 0 -1 0
vn 0 -1 0
vn 0 -1 0
vn 0 -1 0
vn 0 -1 0
vn 0 -1 0
vn 0 -1 0
usemtl m_a41d7dec-7c8e-9aec-d61e-9f85fb4a4562
f 33/81/25 34/82/25 21/83/25 20/84/25
f 20/85/26 21/86/26 19/87/26
f 34/88/27 35/89/27 22/90/27 21/91/27
f 21/92/28 22/93/28 19/94/28
f 35/95/29 36/96/29 23/97/29 22/98/29
f 22/99/30 23/100/30 19/101/30
f 36/102/31 28/103/31 24/104/31 23/105/31
f 23/106/32 24/107/32 19/108/32
f 28/109/33 29/110/33 25/111/33 24/112/33
f 24/113/34 25/114/34 19/115/34
f 29/116/35 31/117/35 26/118/35 25/119/35
f 25/120/36 26/121/36 19/122/36
f 31/123/37 32/124/37 27/125/37 26/126/37
f 26/127/38 27/128/38 19/129/38
f 32/130/39 33/131/39 20/132/39 27/133/39
f 27/134/40 20/135/40 19/136/40
f 34/137/41 33/138/41 30/139/41
f 35/140/42 34/141/42 30/142/42
f 36/143/43 35/144/43 30/145/43
f 28/146/44 36/147/44 30/148/44
f 29/149/45 28/150/45 30/151/45
f 31/152/46 29/153/46 30/154/46
f 32/155/47 31/156/47 30/157/47
f 33/158/48 32/159/48 30/160/48
o can_1
v 0.15625 0.34375 0.703125
v 0.25600306771851067 0.34375 0.7945316204687157
v 0.29142032629044673 0.34375 0.6972235022833358
v 0.24765662046871578 0.34375 0.6033719322814893
v 0.15034850228333582 0.34375 0.5679546737095533
v 0.05649693228148933 0.34375 0.6117183795312843
v 0.02107967370955327 0.34375 0.7090264977166642
v 0.06484337953128423 0.34375 0.8028780677185107
v 0.16215149771666418 0.34375 0.8382953262904467
v 0.05649693228148933 0 0.6117183795312843
v 0.02107967370955327 0 0.7090264977166642
v 0.15625 0 0.703125
v 0.06484337953128423 0 0.8028780677185107
v 0.16215149771666418 0 0.8382953262904467
v 0.25600306771851067 0 0.7945316204687157
v 0.29142032629044673 0 0.6972235022833358
v 0.24765662046871578 0 0.6033719322814893
v 0.15034850228333582 0 0.5679546737095533
vt 0.46875 0.53125
vt 0.5625 0.53125
vt 0.5625 0.875
vt 0.46875 0.875
vt 0.5625 0.875
vt 0.46875 0.875
vt 0.515625 1
vt 0.5625 0.53125
vt 0.65625 0.53125
vt 0.65625 0.875
vt 0.5625 0.875
vt 0.65625 0.875
vt 0.5625 0.875
vt 0.609375 1
vt 0.65625 0.53125
vt 0.75 0.53125
vt 0.75 0.875
vt 0.65625 0.875
vt 0.75 0.875
vt 0.65625 0.875
vt 0.703125 1
vt 0 0.53125
vt 0.09375 0.53125
vt 0.09375 0.875
vt 0 0.875
vt 0.09375 0.875
vt 0 0.875
vt 0.046875 1
vt 0.09375 0.53125
vt 0.1875 0.53125
vt 0.1875 0.875
vt 0.09375 0.875
vt 0.1875 0.875
vt 0.09375 0.875
vt 0.140625 1
vt 0.1875 0.53125
vt 0.28125 0.53125
vt 0.28125 0.875
vt 0.1875 0.875
vt 0.28125 0.875
vt 0.1875 0.875
vt 0.234375 1
vt 0.28125 0.53125
vt 0.375 0.53125
vt 0.375 0.875
vt 0.28125 0.875
vt 0.375 0.875
vt 0.28125 0.875
vt 0.328125 1
vt 0.375 0.53125
vt 0.46875 0.53125
vt 0.46875 0.875
vt 0.375 0.875
vt 0.46875 0.875
vt 0.375 0.875
vt 0.421875 1
vt 0.46875 0.53125
vt 0.5625 0.53125
vt 0.515625 0.40625
vt 0.5625 0.53125
vt 0.65625 0.53125
vt 0.609375 0.40625
vt 0.65625 0.53125
vt 0.75 0.53125
vt 0.703125 0.40625
vt 0 0.53125
vt 0.09375 0.53125
vt 0.046875 0.40625
vt 0.09375 0.53125
vt 0.1875 0.53125
vt 0.140625 0.40625
vt 0.1875 0.53125
vt 0.28125 0.53125
vt 0.234375 0.40625
vt 0.28125 0.53125
vt 0.375 0.53125
vt 0.328125 0.40625
vt 0.375 0.53125
vt 0.46875 0.53125
vt 0.421875 0.40625
vn 0.9396926207859084 0 0.3420201433256687
vn 0 1 0
vn 0.9063077870366499 0 -0.42261826174069944
vn 0 1 0
vn 0.3420201433256687 0 -0.9396926207859084
vn 0 1 0
vn -0.42261826174069944 0 -0.9063077870366499
vn 0 1 0
vn -0.9396926207859084 0 -0.3420201433256687
vn 0 1 0
vn -0.9063077870366499 0 0.42261826174069944
vn 0 1 0
vn -0.3420201433256687 0 0.9396926207859084
vn 0 1 0
vn 0.42261826174069944 0 0.9063077870366499
vn 0 1 0
vn 0 -1 0
vn 0 -1 0
vn 0 -1 0
vn 0 -1 0
vn 0 -1 0
vn 0 -1 0
vn 0 -1 0
vn 0 -1 0
usemtl m_05db5eec-93aa-9956-b346-b578b34a5489
f 51/161/49 52/162/49 39/163/49 38/164/49
f 38/165/50 39/166/50 37/167/50
f 52/168/51 53/169/51 40/170/51 39/171/51
f 39/172/52 40/173/52 37/174/52
f 53/175/53 54/176/53 41/177/53 40/178/53
f 40/179/54 41/180/54 37/181/54
f 54/182/55 46/183/55 42/184/55 41/185/55
f 41/186/56 42/187/56 37/188/56
f 46/189/57 47/190/57 43/191/57 42/192/57
f 42/193/58 43/194/58 37/195/58
f 47/196/59 49/197/59 44/198/59 43/199/59
f 43/200/60 44/201/60 37/202/60
f 49/203/61 50/204/61 45/205/61 44/206/61
f 44/207/62 45/208/62 37/209/62
f 50/210/63 51/211/63 38/212/63 45/213/63
f 45/214/64 38/215/64 37/216/64
f 52/217/65 51/218/65 48/219/65
f 53/220/66 52/221/66 48/222/66
f 54/223/67 53/224/67 48/225/67
f 46/226/68 54/227/68 48/228/68
f 47/229/69 46/230/69 48/231/69
f 49/232/70 47/233/70 48/234/70
f 50/235/71 49/236/71 48/237/71
f 51/238/72 50/239/72 48/240/72