# Made in Blockbench 4.12.6
mtllib metal_cans_debris.mtl

o can_2
v 0.78125 0.34375 0.65625
v 0.8105342457183776 0.34375 0.7883419291155644
v 0.8953600091374876 0.34375 0.7289462901351103
v 0.9133419291155644 0.34375 0.6269657542816224
v 0.8539462901351103 0.34375 0.5421399908625124
v 0.7519657542816224 0.34375 0.5241580708844356
v 0.6671399908625124 0.34375 0.5835537098648897
v 0.6491580708844356 0.34375 0.6855342457183776
v 0.7085537098648897 0.34375 0.7703600091374876
v 0.7519657542816224 0 0.5241580708844356
v 0.6671399908625124 0 0.5835537098648897
v 0.78125 0 0.65625
v 0.6491580708844356 0 0.6855342457183776
v 0.7085537098648897 0 0.7703600091374876
v 0.8105342457183776 0 0.7883419291155644
v 0.8953600091374876 0 0.7289462901351103
v 0.9133419291155644 0 0.6269657542816224
v 0.8539462901351103 0 0.5421399908625124
vt 0.46875 0.53125
vt 0.5625 0.53125
vt 0.5625 0.875
vt 0.46875 0.875
vt 0.5625 0.875
vt 0.46875 0.875
vt 0.515625 1
vt 0.5625 0.53125
vt 0.65625 0.53125
vt 0.65625 0.875
vt 0.5625 0.875
vt 0.65625 0.875
vt 0.5625 0.875
vt 0.609375 1
vt 0.65625 0.53125
vt 0.75 0.53125
vt 0.75 0.875
vt 0.65625 0.875
vt 0.75 0.875
vt 0.65625 0.875
vt 0.703125 1
vt 0 0.53125
vt 0.09375 0.53125
vt 0.09375 0.875
vt 0 0.875
vt 0.09375 0.875
vt 0 0.875
vt 0.046875 1
vt 0.09375 0.53125
vt 0.1875 0.53125
vt 0.1875 0.875
vt 0.09375 0.875
vt 0.1875 0.875
vt 0.09375 0.875
vt 0.140625 1
vt 0.1875 0.53125
vt 0.28125 0.53125
vt 0.28125 0.875
vt 0.1875 0.875
vt 0.28125 0.875
vt 0.1875 0.875
vt 0.234375 1
vt 0.28125 0.53125
vt 0.375 0.53125
vt 0.375 0.875
vt 0.28125 0.875
vt 0.375 0.875
vt 0.28125 0.875
vt 0.328125 1
vt 0.375 0.53125
vt 0.46875 0.53125
vt 0.46875 0.875
vt 0.375 0.875
vt 0.46875 0.875
vt 0.375 0.875
vt 0.421875 1
vt 0.46875 0.53125
vt 0.5625 0.53125
vt 0.515625 0.40625
vt 0.5625 0.53125
vt 0.65625 0.53125
vt 0.609375 0.40625
vt 0.65625 0.53125
vt 0.75 0.53125
vt 0.703125 0.40625
vt 0 0.53125
vt 0.09375 0.53125
vt 0.046875 0.40625
vt 0.09375 0.53125
vt 0.1875 0.53125
vt 0.140625 0.40625
vt 0.1875 0.53125
vt 0.28125 0.53125
vt 0.234375 0.40625
vt 0.28125 0.53125
vt 0.375 0.53125
vt 0.328125 0.40625
vt 0.375 0.53125
vt 0.46875 0.53125
vt 0.421875 0.40625
vn 0.5735764363510462 0 0.8191520442889917
vn 0 1 0
vn 0.984807753012208 0 0.17364817766693033
vn 0 1 0
vn 0.8191520442889917 0 -0.5735764363510462
vn 0 1 0
vn 0.17364817766693033 0 -0.984807753012208
vn 0 1 0
vn -0.5735764363510462 0 -0.8191520442889917
vn 0 1 0
vn -0.984807753012208 0 -0.17364817766693033
vn 0 1 0
vn -0.8191520442889917 0 0.5735764363510462
vn 0 1 0
vn -0.17364817766693033 0 0.984807753012208
vn 0 1 0
vn 0 -1 0
vn 0 -1 0
vn 0 -1 0
vn 0 -1 0
vn 0 -1 0
vn 0 -1 0
vn 0 -1 0
vn 0 -1 0
usemtl m_576f9ee6-af02-f947-af13-1796e4a8bebf
f 15/1/1 16/2/1 3/3/1 2/4/1
f 2/5/2 3/6/2 1/7/2
f 16/8/3 17/9/3 4/10/3 3/11/3
f 3/12/4 4/13/4 1/14/4
f 17/15/5 18/16/5 5/17/5 4/18/5
f 4/19/6 5/20/6 1/21/6
f 18/22/7 10/23/7 6/24/7 5/25/7
f 5/26/8 6/27/8 1/28/8
f 10/29/9 11/30/9 7/31/9 6/32/9
f 6/33/10 7/34/10 1/35/10
f 11/36/11 13/37/11 8/38/11 7/39/11
f 7/40/12 8/41/12 1/42/12
f 13/43/13 14/44/13 9/45/13 8/46/13
f 8/47/14 9/48/14 1/49/14
f 14/50/15 15/51/15 2/52/15 9/53/15
f 9/54/16 2/55/16 1/56/16
f 16/57/17 15/58/17 12/59/17
f 17/60/18 16/61/18 12/62/18
f 18/63/19 17/64/19 12/65/19
f 10/66/20 18/67/20 12/68/20
f 11/69/21 10/70/21 12/71/21
f 13/72/22 11/73/22 12/74/22
f 14/75/23 13/76/23 12/77/23
f 15/78/24 14/79/24 12/80/24
o can_4_lid
v 0.6635392618446224 0.35205708280007136 0.6269318804592392
v 0.7077081458248516 0.3502690446856609 0.533288062312104
v 0.6727495598083608 0.3459372276535375 0.43590987294718353
v 0.5791420622828228 0.34159918766801833 0.3918409509542225
v 0.48171887141004294 0.3397960533695278 0.42689590389856424
v 0.43754998742981377 0.3415840914839383 0.5205397220456993
v 0.4725085734463046 0.3459159085160617 0.6179179114106199
v 0.5661160709718426 0.35025394850158087 0.661986833403581
v 0.5726290666273327 0.3459265680847996 0.5269138921789017
vt 0.5625 0.875
vt 0.46875 0.875
vt 0.515625 1
vt 0.65625 0.875
vt 0.5625 0.875
vt 0.609375 1
vt 0.75 0.875
vt 0.65625 0.875
vt 0.703125 1
vt 0.09375 0.875
vt 0 0.875
vt 0.046875 1
vt 0.1875 0.875
vt 0.09375 0.875
vt 0.140625 1
vt 0.28125 0.875
vt 0.1875 0.875
vt 0.234375 1
vt 0.375 0.875
vt 0.28125 0.875
vt 0.328125 1
vt 0.46875 0.875
vt 0.375 0.875
vt 0.421875 1
vn -0.030534926644587776 0.9989729336465201 -0.0334767993762114
vn -0.030534926644587776 0.9989729336465201 -0.0334767993762114
vn -0.030534926644587776 0.9989729336465201 -0.0334767993762114
vn -0.030534926644587776 0.9989729336465201 -0.0334767993762114
vn -0.030534926644587776 0.9989729336465201 -0.0334767993762114
vn -0.030534926644587776 0.9989729336465201 -0.0334767993762114
vn -0.030534926644587776 0.9989729336465201 -0.0334767993762114
vn -0.030534926644587776 0.9989729336465201 -0.0334767993762114
usemtl m_b522ed66-0252-f3ef-0971-30066132a114
f 19/81/25 20/82/25 27/83/25
f 20/84/26 21/85/26 27/86/26
f 21/87/27 22/88/27 27/89/27
f 22/90/28 23/91/28 27/92/28
f 23/93/29 24/94/29 27/95/29
f 24/96/30 25/97/30 27/98/30
f 25/99/31 26/100/31 27/101/31
f 26/102/32 19/103/32 27/104/32
o can_4
v 0.6644148207570375 0.34375 0.5141583251732889
v 0.6553895702355099 0.34375 0.4109992396667038
v 0.5760627954838781 0.34375 0.3444361722301264
v 0.47290370997729303 0.34375 0.35346142275165404
v 0.40634064254071556 0.34375 0.4327881975032859
v 0.4153658930622432 0.34375 0.5359472830098709
v 0.49469266781387505 0.34375 0.6025103504464484
v 0.59785175332046 0.34375 0.5934850999249207
v 0.40634064254071556 0 0.4327881975032859
v 0.4153658930622432 0 0.5359472830098709
v 0.5353777316488766 0 0.4734732613382874
v 0.49469266781387505 0 0.6025103504464484
v 0.59785175332046 0 0.5934850999249207
v 0.6644148207570375 0 0.5141583251732889
v 0.6553895702355099 0 0.4109992396667038
v 0.5760627954838781 0 0.3444361722301264
v 0.47290370997729303 0 0.35346142275165404
v 0.40634064254071556 0 0.4327881975032859
v 0.4153658930622432 0 0.5359472830098709
v 0.4153658930622432 0.34375 0.5359472830098709
v 0.40634064254071556 0.34375 0.4327881975032859
v 0.49469266781387505 0 0.6025103504464484
v 0.49469266781387505 0.34375 0.6025103504464484
v 0.59785175332046 0 0.5934850999249207
v 0.59785175332046 0.34375 0.5934850999249207
v 0.6644148207570375 0 0.5141583251732889
v 0.6644148207570375 0.34375 0.5141583251732889
v 0.6553895702355099 0 0.4109992396667038
v 0.6553895702355099 0.34375 0.4109992396667038
v 0.5760627954838781 0 0.3444361722301264
v 0.5760627954838781 0.34375 0.3444361722301264
v 0.47290370997729303 0 0.35346142275165404
v 0.47290370997729303 0.34375 0.35346142275165404
v 0.40634064254071556 0 0.4327881975032859
v 0.47290370997729303 0 0.35346142275165404
v 0.5353777316488766 0 0.4734732613382874
v 0.5760627954838781 0 0.3444361722301264
v 0.6553895702355099 0 0.4109992396667038
v 0.6644148207570375 0 0.5141583251732889
v 0.59785175332046 0 0.5934850999249207
v 0.49469266781387505 0 0.6025103504464484
v 0.4153658930622432 0 0.5359472830098709
vt 0.46875 0.53125
vt 0.5625 0.53125
vt 0.5625 0.875
vt 0.46875 0.875
vt 0.5625 0.53125
vt 0.65625 0.53125
vt 0.65625 0.875
vt 0.5625 0.875
vt 0.65625 0.53125
vt 0.75 0.53125
vt 0.75 0.875
vt 0.65625 0.875
vt 0 0.53125
vt 0.09375 0.53125
vt 0.09375 0.875
vt 0 0.875
vt 0.09375 0.53125
vt 0.1875 0.53125
vt 0.1875 0.875
vt 0.09375 0.875
vt 0.1875 0.53125
vt 0.28125 0.53125
vt 0.28125 0.875
vt 0.1875 0.875
vt 0.28125 0.53125
vt 0.375 0.53125
vt 0.375 0.875
vt 0.28125 0.875
vt 0.375 0.53125
vt 0.46875 0.53125
vt 0.46875 0.875
vt 0.375 0.875
vt 0.46875 0.53125
vt 0.5625 0.53125
vt 0.515625 0.40625
vt 0.5625 0.53125
vt 0.65625 0.53125
vt 0.609375 0.40625
vt 0.65625 0.53125
vt 0.75 0.53125
vt 0.703125 0.40625
vt 0 0.53125
vt 0.09375 0.53125
vt 0.046875 0.40625
vt 0.09375 0.53125
vt 0.1875 0.53125
vt 0.140625 0.40625
vt 0.1875 0.53125
vt 0.28125 0.53125
vt 0.234375 0.40625
vt 0.28125 0.53125
vt 0.375 0.53125
vt 0.328125 0.40625
vt 0.375 0.53125
vt 0.46875 0.53125
vt 0.421875 0.40625
vt 0.5625 0.875
vt 0.5625 0.53125
vt 0.46875 0.53125
vt 0.46875 0.875
vt 0.65625 0.875
vt 0.65625 0.53125
vt 0.5625 0.53125
vt 0.5625 0.875
vt 0.75 0.875
vt 0.75 0.53125
vt 0.65625 0.53125
vt 0.65625 0.875
vt 0.09375 0.875
vt 0.09375 0.53125
vt 0 0.53125
vt 0 0.875
vt 0.1875 0.875
vt 0.1875 0.53125
vt 0.09375 0.53125
vt 0.09375 0.875
vt 0.28125 0.875
vt 0.28125 0.53125
vt 0.1875 0.53125
vt 0.1875 0.875
vt 0.375 0.875
vt 0.375 0.53125
vt 0.28125 0.53125
vt 0.28125 0.875
vt 0.46875 0.875
vt 0.46875 0.53125
vt 0.375 0.53125
vt 0.375 0.875
vt 0.5625 0.53125
vt 0.46875 0.53125
vt 0.515625 0.40625
vt 0.65625 0.53125
vt 0.5625 0.53125
vt 0.609375 0.40625
vt 0.75 0.53125
vt 0.65625 0.53125
vt 0.703125 0.40625
vt 0.09375 0.53125
vt 0 0.53125
vt 0.046875 0.40625
vt 0.1875 0.53125
vt 0.09375 0.53125
vt 0.140625 0.40625
vt 0.28125 0.53125
vt 0.1875 0.53125
vt 0.234375 0.40625
vt 0.375 0.53125
vt 0.28125 0.53125
vt 0.328125 0.40625
vt 0.46875 0.53125
vt 0.375 0.53125
vt 0.421875 0.40625
vn 0.9961946980917455 0 -0.0871557427476584
vn 0.6427876096865393 0 -0.766044443118978
vn -0.08715574274765812 0 -0.9961946980917455
vn -0.766044443118978 0 -0.6427876096865393
vn -0.9961946980917455 0 0.08715574274765829
vn -0.6427876096865393 0 0.766044443118978
vn 0.08715574274765829 0 0.9961946980917455
vn 0.766044443118978 0 0.6427876096865393
vn 0 -1 0
vn 0 -1 0
vn 0 -1 0
vn 0 -1 0
vn 0 -1 0
vn 0 -1 0
vn 0 -1 0
vn 0 -1 0
vn -0.9961946980917455 0 0.0871557427476584
vn -0.6427876096865393 0 0.766044443118978
vn 0.08715574274765812 0 0.9961946980917455
vn 0.766044443118978 0 0.6427876096865393
vn 0.9961946980917455 0 -0.08715574274765829
vn 0.6427876096865393 0 -0.766044443118978
vn -0.08715574274765829 0 -0.9961946980917455
vn -0.766044443118978 0 -0.6427876096865393
vn 0 1 0
vn 0 1 0
vn 0 1 0
vn 0 1 0
vn 0 1 0
vn 0 1 0
vn 0 1 0
vn 0 1 0
usemtl m_a41d7dec-7c8e-9aec-d61e-9f85fb4a4562
f 41/105/33 42/106/33 29/107/33 28/108/33
f 42/109/34 43/110/34 30/111/34 29/112/34
f 43/113/35 44/114/35 31/115/35 30/116/35
f 44/117/36 36/118/36 32/119/36 31/120/36
f 36/121/37 37/122/37 33/123/37 32/124/37
f 37/125/38 39/126/38 34/127/38 33/128/38
f 39/129/39 40/130/39 35/131/39 34/132/39
f 40/133/40 41/134/40 28/135/40 35/136/40
f 42/137/41 41/138/41 38/139/41
f 43/140/42 42/141/42 38/142/42
f 44/143/43 43/144/43 38/145/43
f 36/146/44 44/147/44 38/148/44
f 37/149/45 36/150/45 38/151/45
f 39/152/46 37/153/46 38/154/46
f 40/155/47 39/156/47 38/157/47
f 41/158/48 40/159/48 38/160/48
f 56/161/49 55/162/49 53/163/49 54/164/49
f 58/165/50 57/166/50 55/167/50 56/168/50
f 60/169/51 59/170/51 57/171/51 58/172/51
f 48/173/52 45/174/52 59/175/52 60/176/52
f 47/177/53 46/178/53 45/179/53 48/180/53
f 50/181/54 49/182/54 46/183/54 47/184/54
f 52/185/55 51/186/55 49/187/55 50/188/55
f 54/189/56 53/190/56 51/191/56 52/192/56
f 66/193/57 65/194/57 63/195/57
f 65/196/58 64/197/58 63/198/58
f 64/199/59 62/200/59 63/201/59
f 62/202/60 61/203/60 63/204/60
f 61/205/61 69/206/61 63/207/61
f 69/208/62 68/209/62 63/210/62
f 68/211/63 67/212/63 63/213/63
f 67/214/64 66/215/64 63/216/64