# Made in Blockbench 4.12.6
mtllib metal_cans_debris.mtl

o can_4
v 0.75 0.34375 0.6875
v 0.801776875 0.34375 0.8125
v 0.875 0.34375 0.739276875
v 0.875 0.34375 0.635723125
v 0.801776875 0.34375 0.5625
v 0.698223125 0.34375 0.5625
v 0.625 0.34375 0.635723125
v 0.625 0.34375 0.739276875
v 0.698223125 0.34375 0.8125
v 0.698223125 0 0.5625
v 0.625 0 0.635723125
v 0.75 0 0.6875
v 0.625 0 0.739276875
v 0.698223125 0 0.8125
v 0.801776875 0 0.8125
v 0.875 0 0.739276875
v 0.875 0 0.635723125
v 0.801776875 0 0.5625
vt 0.46875 0.53125
vt 0.5625 0.53125
vt 0.5625 0.875
vt 0.46875 0.875
vt 0.5625 0.875
vt 0.46875 0.875
vt 0.515625 1
vt 0.5625 0.53125
vt 0.65625 0.53125
vt 0.65625 0.875
vt 0.5625 0.875
vt 0.65625 0.875
vt 0.5625 0.875
vt 0.609375 1
vt 0.65625 0.53125
vt 0.75 0.53125
vt 0.75 0.875
vt 0.65625 0.875
vt 0.75 0.875
vt 0.65625 0.875
vt 0.703125 1
vt 0 0.53125
vt 0.09375 0.53125
vt 0.09375 0.875
vt 0 0.875
vt 0.09375 0.875
vt 0 0.875
vt 0.046875 1
vt 0.09375 0.53125
vt 0.1875 0.53125
vt 0.1875 0.875
vt 0.09375 0.875
vt 0.1875 0.875
vt 0.09375 0.875
vt 0.140625 1
vt 0.1875 0.53125
vt 0.28125 0.53125
vt 0.28125 0.875
vt 0.1875 0.875
vt 0.28125 0.875
vt 0.1875 0.875
vt 0.234375 1
vt 0.28125 0.53125
vt 0.375 0.53125
vt 0.375 0.875
vt 0.28125 0.875
vt 0.375 0.875
vt 0.28125 0.875
vt 0.328125 1
vt 0.375 0.53125
vt 0.46875 0.53125
vt 0.46875 0.875
vt 0.375 0.875
vt 0.46875 0.875
vt 0.375 0.875
vt 0.421875 1
vt 0.46875 0.53125
vt 0.5625 0.53125
vt 0.515625 0.40625
vt 0.5625 0.53125
vt 0.65625 0.53125
vt 0.609375 0.40625
vt 0.65625 0.53125
vt 0.75 0.53125
vt 0.703125 0.40625
vt 0 0.53125
vt 0.09375 0.53125
vt 0.046875 0.40625
vt 0.09375 0.53125
vt 0.1875 0.53125
vt 0.140625 0.40625
vt 0.1875 0.53125
vt 0.28125 0.53125
vt 0.234375 0.40625
vt 0.28125 0.53125
vt 0.375 0.53125
vt 0.328125 0.40625
vt 0.375 0.53125
vt 0.46875 0.53125
vt 0.421875 0.40625
vn 0.7071067811865476 0 0.7071067811865476
vn 0 1 0
vn 1 0 0
vn 0 1 0
vn 0.7071067811865476 0 -0.7071067811865476
vn 0 1 0
vn 0 0 -1
vn 0 1 0
vn -0.7071067811865476 0 -0.7071067811865476
vn 0 1 0
vn -1 0 0
vn 0 1 0
vn -0.7071067811865476 0 0.7071067811865476
vn 0 1 0
vn 0 0 1
vn 0 1 0
vn 0 -1 0
vn 0 -1 0
vn 0 -1 0
vn 0 -1 0
vn 0 -1 0
vn 0 -1 0
vn 0 -1 0
vn 0 -1 0
usemtl m_576f9ee6-af02-f947-af13-1796e4a8bebf
f 15/1/1 16/2/1 3/3/1 2/4/1
f 2/5/2 3/6/2 1/7/2
f 16/8/3 17/9/3 4/10/3 3/11/3
f 3/12/4 4/13/4 1/14/4
f 17/15/5 18/16/5 5/17/5 4/18/5
f 4/19/6 5/20/6 1/21/6
f 18/22/7 10/23/7 6/24/7 5/25/7
f 5/26/8 6/27/8 1/28/8
f 10/29/9 11/30/9 7/31/9 6/32/9
f 6/33/10 7/34/10 1/35/10
f 11/36/11 13/37/11 8/38/11 7/39/11
f 7/40/12 8/41/12 1/42/12
f 13/43/13 14/44/13 9/45/13 8/46/13
f 8/47/14 9/48/14 1/49/14
f 14/50/15 15/51/15 2/52/15 9/53/15
f 9/54/16 2/55/16 1/56/16
f 16/57/17 15/58/17 12/59/17
f 17/60/18 16/61/18 12/62/18
f 18/63/19 17/64/19 12/65/19
f 10/66/20 18/67/20 12/68/20
f 11/69/21 10/70/21 12/71/21
f 13/72/22 11/73/22 12/74/22
f 14/75/23 13/76/23 12/77/23
f 15/78/24 14/79/24 12/80/24
o can_5
v 0.4375 0.34375 0.71875
v 0.489276875 0.34375 0.84375
v 0.5625 0.34375 0.770526875
v 0.5625 0.34375 0.666973125
v 0.489276875 0.34375 0.59375
v 0.385723125 0.34375 0.59375
v 0.3125 0.34375 0.666973125
v 0.3125 0.34375 0.770526875
v 0.385723125 0.34375 0.84375
v 0.385723125 0 0.59375
v 0.3125 0 0.666973125
v 0.4375 0 0.71875
v 0.3125 0 0.770526875
v 0.385723125 0 0.84375
v 0.489276875 0 0.84375
v 0.5625 0 0.770526875
v 0.5625 0 0.666973125
v 0.489276875 0 0.59375
vt 0.46875 0.53125
vt 0.5625 0.53125
vt 0.5625 0.875
vt 0.46875 0.875
vt 0.5625 0.875
vt 0.46875 0.875
vt 0.515625 1
vt 0.5625 0.53125
vt 0.65625 0.53125
vt 0.65625 0.875
vt 0.5625 0.875
vt 0.65625 0.875
vt 0.5625 0.875
vt 0.609375 1
vt 0.65625 0.53125
vt 0.75 0.53125
vt 0.75 0.875
vt 0.65625 0.875
vt 0.75 0.875
vt 0.65625 0.875
vt 0.703125 1
vt 0 0.53125
vt 0.09375 0.53125
vt 0.09375 0.875
vt 0 0.875
vt 0.09375 0.875
vt 0 0.875
vt 0.046875 1
vt 0.09375 0.53125
vt 0.1875 0.53125
vt 0.1875 0.875
vt 0.09375 0.875
vt 0.1875 0.875
vt 0.09375 0.875
vt 0.140625 1
vt 0.1875 0.53125
vt 0.28125 0.53125
vt 0.28125 0.875
vt 0.1875 0.875
vt 0.28125 0.875
vt 0.1875 0.875
vt 0.234375 1
vt 0.28125 0.53125
vt 0.375 0.53125
vt 0.375 0.875
vt 0.28125 0.875
vt 0.375 0.875
vt 0.28125 0.875
vt 0.328125 1
vt 0.375 0.53125
vt 0.46875 0.53125
vt 0.46875 0.875
vt 0.375 0.875
vt 0.46875 0.875
vt 0.375 0.875
vt 0.421875 1
vt 0.46875 0.53125
vt 0.5625 0.53125
vt 0.515625 0.40625
vt 0.5625 0.53125
vt 0.65625 0.53125
vt 0.609375 0.40625
vt 0.65625 0.53125
vt 0.75 0.53125
vt 0.703125 0.40625
vt 0 0.53125
vt 0.09375 0.53125
vt 0.046875 0.40625
vt 0.09375 0.53125
vt 0.1875 0.53125
vt 0.140625 0.40625
vt 0.1875 0.53125
vt 0.28125 0.53125
vt 0.234375 0.40625
vt 0.28125 0.53125
vt 0.375 0.53125
vt 0.328125 0.40625
vt 0.375 0.53125
vt 0.46875 0.53125
vt 0.421875 0.40625
vn 0.7071067811865476 0 0.7071067811865476
vn 0 1 0
vn 1 0 0
vn 0 1 0
vn 0.7071067811865476 0 -0.7071067811865476
vn 0 1 0
vn 0 0 -1
vn 0 1 0
vn -0.7071067811865476 0 -0.7071067811865476
vn 0 1 0
vn -1 0 0
vn 0 1 0
vn -0.7071067811865476 0 0.7071067811865476
vn 0 1 0
vn 0 0 1
vn 0 1 0
vn 0 -1 0
vn 0 -1 0
vn 0 -1 0
vn 0 -1 0
vn 0 -1 0
vn 0 -1 0
vn 0 -1 0
vn 0 -1 0
usemtl m_a41d7dec-7c8e-9aec-d61e-9f85fb4a4562
f 33/81/25 34/82/25 21/83/25 20/84/25
f 20/85/26 21/86/26 19/87/26
f 34/88/27 35/89/27 22/90/27 21/91/27
f 21/92/28 22/93/28 19/94/28
f 35/95/29 36/96/29 23/97/29 22/98/29
f 22/99/30 23/100/30 19/101/30
f 36/102/31 28/103/31 24/104/31 23/105/31
f 23/106/32 24/107/32 19/108/32
f 28/109/33 29/110/33 25/111/33 24/112/33
f 24/113/34 25/114/34 19/115/34
f 29/116/35 31/117/35 26/118/35 25/119/35
f 25/120/36 26/121/36 19/122/36
f 31/123/37 32/124/37 27/125/37 26/126/37
f 26/127/38 27/128/38 19/129/38
f 32/130/39 33/131/39 20/132/39 27/133/39
f 27/134/40 20/135/40 19/136/40
f 34/137/41 33/138/41 30/139/41
f 35/140/42 34/141/42 30/142/42
f 36/143/43 35/144/43 30/145/43
f 28/146/44 36/147/44 30/148/44
f 29/149/45 28/150/45 30/151/45
f 31/152/46 29/153/46 30/154/46
f 32/155/47 31/156/47 30/157/47
f 33/158/48 32/159/48 30/160/48
o can_1
v 0.59375 0.6875 0.703125
v 0.645526875 0.6875 0.828125
v 0.71875 0.6875 0.754901875
v 0.71875 0.6875 0.651348125
v 0.645526875 0.6875 0.578125
v 0.541973125 0.6875 0.578125
v 0.46875 0.6875 0.651348125
v 0.46875 0.6875 0.754901875
v 0.541973125 0.6875 0.828125
v 0.541973125 0.34375 0.578125
v 0.46875 0.34375 0.651348125
v 0.59375 0.34375 0.703125
v 0.46875 0.34375 0.754901875
v 0.541973125 0.34375 0.828125
v 0.645526875 0.34375 0.828125
v 0.71875 0.34375 0.754901875
v 0.71875 0.34375 0.651348125
v 0.645526875 0.34375 0.578125
vt 0.46875 0.53125
vt 0.5625 0.53125
vt 0.5625 0.875
vt 0.46875 0.875
vt 0.5625 0.875
vt 0.46875 0.875
vt 0.515625 1
vt 0.5625 0.53125
vt 0.65625 0.53125
vt 0.65625 0.875
vt 0.5625 0.875
vt 0.65625 0.875
vt 0.5625 0.875
vt 0.609375 1
vt 0.65625 0.53125
vt 0.75 0.53125
vt 0.75 0.875
vt 0.65625 0.875
vt 0.75 0.875
vt 0.65625 0.875
vt 0.703125 1
vt 0 0.53125
vt 0.09375 0.53125
vt 0.09375 0.875
vt 0 0.875
vt 0.09375 0.875
vt 0 0.875
vt 0.046875 1
vt 0.09375 0.53125
vt 0.1875 0.53125
vt 0.1875 0.875
vt 0.09375 0.875
vt 0.1875 0.875
vt 0.09375 0.875
vt 0.140625 1
vt 0.1875 0.53125
vt 0.28125 0.53125
vt 0.28125 0.875
vt 0.1875 0.875
vt 0.28125 0.875
vt 0.1875 0.875
vt 0.234375 1
vt 0.28125 0.53125
vt 0.375 0.53125
vt 0.375 0.875
vt 0.28125 0.875
vt 0.375 0.875
vt 0.28125 0.875
vt 0.328125 1
vt 0.375 0.53125
vt 0.46875 0.53125
vt 0.46875 0.875
vt 0.375 0.875
vt 0.46875 0.875
vt 0.375 0.875
vt 0.421875 1
vt 0.46875 0.53125
vt 0.5625 0.53125
vt 0.515625 0.40625
vt 0.5625 0.53125
vt 0.65625 0.53125
vt 0.609375 0.40625
vt 0.65625 0.53125
vt 0.75 0.53125
vt 0.703125 0.40625
vt 0 0.53125
vt 0.09375 0.53125
vt 0.046875 0.40625
vt 0.09375 0.53125
vt 0.1875 0.53125
vt 0.140625 0.40625
vt 0.1875 0.53125
vt 0.28125 0.53125
vt 0.234375 0.40625
vt 0.28125 0.53125
vt 0.375 0.53125
vt 0.328125 0.40625
vt 0.375 0.53125
vt 0.46875 0.53125
vt 0.421875 0.40625
vn 0.7071067811865476 0 0.7071067811865476
vn 0 1 0
vn 1 0 0
vn 0 1 0
vn 0.7071067811865476 0 -0.7071067811865476
vn 0 1 0
vn 0 0 -1
vn 0 1 0
vn -0.7071067811865476 0 -0.7071067811865476
vn 0 1 0
vn -1 0 0
vn 0 1 0
vn -0.7071067811865476 0 0.7071067811865476
vn 0 1 0
vn 0 0 1
vn 0 1 0
vn 0 -1 0
vn 0 -1 0
vn 0 -1 0
vn 0 -1 0
vn 0 -1 0
vn 0 -1 0
vn 0 -1 0
vn 0 -1 0
usemtl m_05db5eec-93aa-9956-b346-b578b34a5489
f 51/161/49 52/162/49 39/163/49 38/164/49
f 38/165/50 39/166/50 37/167/50
f 52/168/51 53/169/51 40/170/51 39/171/51
f 39/172/52 40/173/52 37/174/52
f 53/175/53 54/176/53 41/177/53 40/178/53
f 40/179/54 41/180/54 37/181/54
f 54/182/55 46/183/55 42/184/55 41/185/55
f 41/186/56 42/187/56 37/188/56
f 46/189/57 47/190/57 43/191/57 42/192/57
f 42/193/58 43/194/58 37/195/58
f 47/196/59 49/197/59 44/198/59 43/199/59
f 43/200/60 44/201/60 37/202/60
f 49/203/61 50/204/61 45/205/61 44/206/61
f 44/207/62 45/208/62 37/209/62
f 50/210/63 51/211/63 38/212/63 45/213/63
f 45/214/64 38/215/64 37/216/64
f 52/217/65 51/218/65 48/219/65
f 53/220/66 52/221/66 48/222/66
f 54/223/67 53/224/67 48/225/67
f 46/226/68 54/227/68 48/228/68
f 47/229/69 46/230/69 48/231/69
f 49/232/70 47/233/70 48/234/70
f 50/235/71 49/236/71 48/237/71
f 51/238/72 50/239/72 48/240/72
o can_6
v 0.3125 0.6875 0.71875
v 0.43750012706946667 0.6875 0.7705265682271702
v 0.43750012706946667 0.6875 0.6669734317728298
v 0.3642765682271702 0.6875 0.5937498729305333
v 0.26072343177282975 0.6875 0.5937498729305333
v 0.18749987293053333 0.6875 0.6669734317728298
v 0.18749987293053333 0.6875 0.7705265682271702
v 0.2607234317728298 0.6875 0.8437501270694667
v 0.36427656822717025 0.6875 0.8437501270694667
v 0.18749987293053333 0.34375 0.6669734317728298
v 0.18749987293053333 0.34375 0.7705265682271702
v 0.3125 0.34375 0.71875
v 0.2607234317728298 0.34375 0.8437501270694667
v 0.36427656822717025 0.34375 0.8437501270694667
v 0.43750012706946667 0.34375 0.7705265682271702
v 0.43750012706946667 0.34375 0.6669734317728298
v 0.3642765682271702 0.34375 0.5937498729305333
v 0.26072343177282975 0.34375 0.5937498729305333
vt 0.46875 0.53125
vt 0.5625 0.53125
vt 0.5625 0.875
vt 0.46875 0.875
vt 0.5625 0.875
vt 0.46875 0.875
vt 0.515625 1
vt 0.5625 0.53125
vt 0.65625 0.53125
vt 0.65625 0.875
vt 0.5625 0.875
vt 0.65625 0.875
vt 0.5625 0.875
vt 0.609375 1
vt 0.65625 0.53125
vt 0.75 0.53125
vt 0.75 0.875
vt 0.65625 0.875
vt 0.75 0.875
vt 0.65625 0.875
vt 0.703125 1
vt 0 0.53125
vt 0.09375 0.53125
vt 0.09375 0.875
vt 0 0.875
vt 0.09375 0.875
vt 0 0.875
vt 0.046875 1
vt 0.09375 0.53125
vt 0.1875 0.53125
vt 0.1875 0.875
vt 0.09375 0.875
vt 0.1875 0.875
vt 0.09375 0.875
vt 0.140625 1
vt 0.1875 0.53125
vt 0.28125 0.53125
vt 0.28125 0.875
vt 0.1875 0.875
vt 0.28125 0.875
vt 0.1875 0.875
vt 0.234375 1
vt 0.28125 0.53125
vt 0.375 0.53125
vt 0.375 0.875
vt 0.28125 0.875
vt 0.375 0.875
vt 0.28125 0.875
vt 0.328125 1
vt 0.375 0.53125
vt 0.46875 0.53125
vt 0.46875 0.875
vt 0.375 0.875
vt 0.46875 0.875
vt 0.375 0.875
vt 0.421875 1
vt 0.46875 0.53125
vt 0.5625 0.53125
vt 0.515625 0.40625
vt 0.5625 0.53125
vt 0.65625 0.53125
vt 0.609375 0.40625
vt 0.65625 0.53125
vt 0.75 0.53125
vt 0.703125 0.40625
vt 0 0.53125
vt 0.09375 0.53125
vt 0.046875 0.40625
vt 0.09375 0.53125
vt 0.1875 0.53125
vt 0.140625 0.40625
vt 0.1875 0.53125
vt 0.28125 0.53125
vt 0.234375 0.40625
vt 0.28125 0.53125
vt 0.375 0.53125
vt 0.328125 0.40625
vt 0.375 0.53125
vt 0.46875 0.53125
vt 0.421875 0.40625
vn 1 0 -1.1102230246251565e-16
vn 0 1 0
vn 0.7071067811865475 0 -0.7071067811865476
vn 0 1 0
vn -1.1102230246251565e-16 0 -1
vn 0 1 0
vn -0.7071067811865476 0 -0.7071067811865475
vn 0 1 0
vn -1 0 1.1102230246251565e-16
vn 0 1 0
vn -0.7071067811865475 0 0.7071067811865476
vn 0 1 0
vn 1.1102230246251565e-16 0 1
vn 0 1 0
vn 0.7071067811865476 0 0.7071067811865475
vn 0 1 0
vn 0 -1 0
vn 0 -1 0
vn 0 -1 0
vn 0 -1 0
vn 0 -1 0
vn 0 -1 0
vn 0 -1 0
vn 0 -1 0
usemtl m_a41d7dec-7c8e-9aec-d61e-9f85fb4a4562
f 69/241/73 70/242/73 57/243/73 56/244/73
f 56/245/74 57/246/74 55/247/74
f 70/248/75 71/249/75 58/250/75 57/251/75
f 57/252/76 58/253/76 55/254/76
f 71/255/77 72/256/77 59/257/77 58/258/77
f 58/259/78 59/260/78 55/261/78
f 72/262/79 64/263/79 60/264/79 59/265/79
f 59/266/80 60/267/80 55/268/80
f 64/269/81 65/270/81 61/271/81 60/272/81
f 60/273/82 61/274/82 55/275/82
f 65/276/83 67/277/83 62/278/83 61/279/83
f 61/280/84 62/281/84 55/282/84
f 67/283/85 68/284/85 63/285/85 62/286/85
f 62/287/86 63/288/86 55/289/86
f 68/290/87 69/291/87 56/292/87 63/293/87
f 63/294/88 56/295/88 55/296/88
f 70/297/89 69/298/89 66/299/89
f 71/300/90 70/301/90 66/302/90
f 72/303/91 71/304/91 66/305/91
f 64/306/92 72/307/92 66/308/92
f 65/309/93 64/310/93 66/311/93
f 67/312/94 65/313/94 66/314/94
f 68/315/95 67/316/95 66/317/95
f 69/318/96 68/319/96 66/320/96
o can_2
v 0.1304225 0.34375 0.732919375
v 0.182199375 0.34375 0.857919375
v 0.2554225 0.34375 0.7846962500000001
v 0.2554225 0.34375 0.6811425
v 0.182199375 0.34375 0.607919375
v 0.078645625 0.34375 0.607919375
v 0.005422499999999997 0.34375 0.6811425
v 0.005422499999999997 0.34375 0.7846962500000001
v 0.078645625 0.34375 0.857919375
v 0.078645625 0 0.607919375
v 0.005422499999999997 0 0.6811425
v 0.1304225 0 0.732919375
v 0.005422499999999997 0 0.7846962500000001
v 0.078645625 0 0.857919375
v 0.182199375 0 0.857919375
v 0.2554225 0 0.7846962500000001
v 0.2554225 0 0.6811425
v 0.182199375 0 0.607919375
vt 0.46875 0.53125
vt 0.5625 0.53125
vt 0.5625 0.875
vt 0.46875 0.875
vt 0.5625 0.875
vt 0.46875 0.875
vt 0.515625 1
vt 0.5625 0.53125
vt 0.65625 0.53125
vt 0.65625 0.875
vt 0.5625 0.875
vt 0.65625 0.875
vt 0.5625 0.875
vt 0.609375 1
vt 0.65625 0.53125
vt 0.75 0.53125
vt 0.75 0.875
vt 0.65625 0.875
vt 0.75 0.875
vt 0.65625 0.875
vt 0.703125 1
vt 0 0.53125
vt 0.09375 0.53125
vt 0.09375 0.875
vt 0 0.875
vt 0.09375 0.875
vt 0 0.875
vt 0.046875 1
vt 0.09375 0.53125
vt 0.1875 0.53125
vt 0.1875 0.875
vt 0.09375 0.875
vt 0.1875 0.875
vt 0.09375 0.875
vt 0.140625 1
vt 0.1875 0.53125
vt 0.28125 0.53125
vt 0.28125 0.875
vt 0.1875 0.875
vt 0.28125 0.875
vt 0.1875 0.875
vt 0.234375 1
vt 0.28125 0.53125
vt 0.375 0.53125
vt 0.375 0.875
vt 0.28125 0.875
vt 0.375 0.875
vt 0.28125 0.875
vt 0.328125 1
vt 0.375 0.53125
vt 0.46875 0.53125
vt 0.46875 0.875
vt 0.375 0.875
vt 0.46875 0.875
vt 0.375 0.875
vt 0.421875 1
vt 0.46875 0.53125
vt 0.5625 0.53125
vt 0.515625 0.40625
vt 0.5625 0.53125
vt 0.65625 0.53125
vt 0.609375 0.40625
vt 0.65625 0.53125
vt 0.75 0.53125
vt 0.703125 0.40625
vt 0 0.53125
vt 0.09375 0.53125
vt 0.046875 0.40625
vt 0.09375 0.53125
vt 0.1875 0.53125
vt 0.140625 0.40625
vt 0.1875 0.53125
vt 0.28125 0.53125
vt 0.234375 0.40625
vt 0.28125 0.53125
vt 0.375 0.53125
vt 0.328125 0.40625
vt 0.375 0.53125
vt 0.46875 0.53125
vt 0.421875 0.40625
vn 0.7071067811865476 0 0.7071067811865476
vn 0 1 0
vn 1 0 0
vn 0 1 0
vn 0.7071067811865476 0 -0.7071067811865476
vn 0 1 0
vn 0 0 -1
vn 0 1 0
vn -0.7071067811865476 0 -0.7071067811865476
vn 0 1 0
vn -1 0 0
vn 0 1 0
vn -0.7071067811865476 0 0.7071067811865476
vn 0 1 0
vn 0 0 1
vn 0 1 0
vn 0 -1 0
vn 0 -1 0
vn 0 -1 0
vn 0 -1 0
vn 0 -1 0
vn 0 -1 0
vn 0 -1 0
vn 0 -1 0
usemtl m_05db5eec-93aa-9956-b346-b578b34a5489
f 87/321/97 88/322/97 75/323/97 74/324/97
f 74/325/98 75/326/98 73/327/98
f 88/328/99 89/329/99 76/330/99 75/331/99
f 75/332/100 76/333/100 73/334/100
f 89/335/101 90/336/101 77/337/101 76/338/101
f 76/339/102 77/340/102 73/341/102
f 90/342/103 82/343/103 78/344/103 77/345/103
f 77/346/104 78/347/104 73/348/104
f 82/349/105 83/350/105 79/351/105 78/352/105
f 78/353/106 79/354/106 73/355/106
f 83/356/107 85/357/107 80/358/107 79/359/107
f 79/360/108 80/361/108 73/362/108
f 85/363/109 86/364/109 81/365/109 80/366/109
f 80/367/110 81/368/110 73/369/110
f 86/370/111 87/371/111 74/372/111 81/373/111
f 81/374/112 74/375/112 73/376/112
f 88/377/113 87/378/113 84/379/113
f 89/380/114 88/381/114 84/382/114
f 90/383/115 89/384/115 84/385/115
f 82/386/116 90/387/116 84/388/116
f 83/389/117 82/390/117 84/391/117
f 85/392/118 83/393/118 84/394/118
f 86/395/119 85/396/119 84/397/119
f 87/398/120 86/399/120 84/400/120
o can_3
v 0.4741725 1.03125 0.732919375
v 0.5259493749999999 1.03125 0.857919375
v 0.5991725 1.03125 0.7846962500000001
v 0.5991725 1.03125 0.6811425
v 0.5259493749999999 1.03125 0.607919375
v 0.422395625 1.03125 0.607919375
v 0.3491725 1.03125 0.6811425
v 0.3491725 1.03125 0.7846962500000001
v 0.422395625 1.03125 0.857919375
v 0.422395625 0.6875 0.607919375
v 0.3491725 0.6875 0.6811425
v 0.4741725 0.6875 0.732919375
v 0.3491725 0.6875 0.7846962500000001
v 0.422395625 0.6875 0.857919375
v 0.5259493749999999 0.6875 0.857919375
v 0.5991725 0.6875 0.7846962500000001
v 0.5991725 0.6875 0.6811425
v 0.5259493749999999 0.6875 0.607919375
vt 0.46875 0.53125
vt 0.5625 0.53125
vt 0.5625 0.875
vt 0.46875 0.875
vt 0.5625 0.875
vt 0.46875 0.875
vt 0.515625 1
vt 0.5625 0.53125
vt 0.65625 0.53125
vt 0.65625 0.875
vt 0.5625 0.875
vt 0.65625 0.875
vt 0.5625 0.875
vt 0.609375 1
vt 0.65625 0.53125
vt 0.75 0.53125
vt 0.75 0.875
vt 0.65625 0.875
vt 0.75 0.875
vt 0.65625 0.875
vt 0.703125 1
vt 0 0.53125
vt 0.09375 0.53125
vt 0.09375 0.875
vt 0 0.875
vt 0.09375 0.875
vt 0 0.875
vt 0.046875 1
vt 0.09375 0.53125
vt 0.1875 0.53125
vt 0.1875 0.875
vt 0.09375 0.875
vt 0.1875 0.875
vt 0.09375 0.875
vt 0.140625 1
vt 0.1875 0.53125
vt 0.28125 0.53125
vt 0.28125 0.875
vt 0.1875 0.875
vt 0.28125 0.875
vt 0.1875 0.875
vt 0.234375 1
vt 0.28125 0.53125
vt 0.375 0.53125
vt 0.375 0.875
vt 0.28125 0.875
vt 0.375 0.875
vt 0.28125 0.875
vt 0.328125 1
vt 0.375 0.53125
vt 0.46875 0.53125
vt 0.46875 0.875
vt 0.375 0.875
vt 0.46875 0.875
vt 0.375 0.875
vt 0.421875 1
vt 0.46875 0.53125
vt 0.5625 0.53125
vt 0.515625 0.40625
vt 0.5625 0.53125
vt 0.65625 0.53125
vt 0.609375 0.40625
vt 0.65625 0.53125
vt 0.75 0.53125
vt 0.703125 0.40625
vt 0 0.53125
vt 0.09375 0.53125
vt 0.046875 0.40625
vt 0.09375 0.53125
vt 0.1875 0.53125
vt 0.140625 0.40625
vt 0.1875 0.53125
vt 0.28125 0.53125
vt 0.234375 0.40625
vt 0.28125 0.53125
vt 0.375 0.53125
vt 0.328125 0.40625
vt 0.375 0.53125
vt 0.46875 0.53125
vt 0.421875 0.40625
vn 0.7071067811865476 0 0.7071067811865476
vn 0 1 0
vn 1 0 0
vn 0 1 0
vn 0.7071067811865476 0 -0.7071067811865476
vn 0 1 0
vn 0 0 -1
vn 0 1 0
vn -0.7071067811865476 0 -0.7071067811865476
vn 0 1 0
vn -1 0 0
vn 0 1 0
vn -0.7071067811865476 0 0.7071067811865476
vn 0 1 0
vn 0 0 1
vn 0 1 0
vn 0 -1 0
vn 0 -1 0
vn 0 -1 0
vn 0 -1 0
vn 0 -1 0
vn 0 -1 0
vn 0 -1 0
vn 0 -1 0
usemtl m_05db5eec-93aa-9956-b346-b578b34a5489
f 105/401/121 106/402/121 93/403/121 92/404/121
f 92/405/122 93/406/122 91/407/122
f 106/408/123 107/409/123 94/410/123 93/411/123
f 93/412/124 94/413/124 91/414/124
f 107/415/125 108/416/125 95/417/125 94/418/125
f 94/419/126 95/420/126 91/421/126
f 108/422/127 100/423/127 96/424/127 95/425/127
f 95/426/128 96/427/128 91/428/128
f 100/429/129 101/430/129 97/431/129 96/432/129
f 96/433/130 97/434/130 91/435/130
f 101/436/131 103/437/131 98/438/131 97/439/131
f 97/440/132 98/441/132 91/442/132
f 103/443/133 104/444/133 99/445/133 98/446/133
f 98/447/134 99/448/134 91/449/134
f 104/450/135 105/451/135 92/452/135 99/453/135
f 99/454/136 92/455/136 91/456/136
f 106/457/137 105/458/137 102/459/137
f 107/460/138 106/461/138 102/462/138
f 108/463/139 107/464/139 102/465/139
f 100/466/140 108/467/140 102/468/140
f 101/469/141 100/470/141 102/471/141
f 103/472/142 101/473/142 102/474/142
f 104/475/143 103/476/143 102/477/143
f 105/478/144 104/479/144 102/480/144