# Made in Blockbench 5.0.3
mtllib fallen_branches.mtl

o mediumbranch5
v 0.9934781552595695 0.43229440745325454 1.716605178344321
v 0.22676618996032077 -0.2088683032367421 1.68399934009993
v 0.9934781552595695 0.43229440745325454 1.716605178344321
v 0.22676618996032077 -0.2088683032367421 1.68399934009993
v 0.2496714303295419 -0.13462703863756398 -0.31449098627003824
v 1.0163833956287907 0.5065356720524327 -0.28188514802564724
v 0.2496714303295419 -0.13462703863756398 -0.31449098627003824
v 1.0163833956287907 0.5065356720524327 -0.28188514802564724
vt 0 0.125
vt 0.25 0.125
vt 0.25 0
vt 0 0
vt 0 0
vt 0.25 0
vt 0.25 0.125
vt 0 0.125
vn 0.6418890868038425 -0.7665066451625416 -0.021117839941500814
vn -0.6418890868038425 0.7665066451625416 0.021117839941500814
usemtl m_e85776c5-370e-59fc-7b1e-fc37cde4292c
f 6/4/1 1/3/1 2/2/1 5/1/1
f 7/8/2 4/7/2 3/6/2 8/5/2
o tinybranch1
v -0.047445082790509685 0.5514505775744976 1.6617618632898696
v -0.10182632163937305 -0.27558164987617684 1.3812527268624823
v -0.047445082790509685 0.5514505775744976 1.6617618632898696
v -0.10182632163937305 -0.27558164987617684 1.3812527268624823
v 0.48915523825497087 0.03172611923660362 0.36063806235497464
v 0.5435364771038342 0.8587583466872781 0.6411471987823619
v 0.48915523825497087 0.03172611923660362 0.36063806235497464
v 0.5435364771038342 0.8587583466872781 0.6411471987823619
vt 0.6953125 0.3125
vt 0.84765625 0.3125
vt 0.84765625 0.421875
vt 0.6953125 0.421875
vt 0.6953125 0.421875
vt 0.84765625 0.421875
vt 0.84765625 0.3125
vt 0.6953125 0.3125
vn 0.8723540923430638 -0.20749879968699372 0.44265402483290045
vn -0.8723540923430638 0.20749879968699372 -0.44265402483290045
usemtl m_e85776c5-370e-59fc-7b1e-fc37cde4292c
f 14/12/3 9/11/3 10/10/3 13/9/3
f 15/16/4 12/15/4 11/14/4 16/13/4
o tinybranch7
v 1.3968467119819699 0.32937831931553 1.7008291589959192
v 1.614382599722714 0.7608298401966804 1.4800254335423195
v 1.3968467119819699 0.32937831931553 1.7008291589959192
v 1.614382599722714 0.7608298401966804 1.4800254335423195
v 0.9068167488429546 0.633861445107995 0.5348345304346955
v 0.6892808611022105 0.20240992422684462 0.755638255888295
v 0.9068167488429546 0.633861445107995 0.5348345304346955
v 0.6892808611022105 0.20240992422684462 0.755638255888295
vt 0.453125 0.62890625
vt 0.6015625 0.62890625
vt 0.6015625 0.5625
vt 0.453125 0.5625
vt 0.453125 0.5625
vt 0.6015625 0.5625
vt 0.6015625 0.62890625
vt 0.453125 0.62890625
vn -0.6908657691252647 0.5735765091388071 0.4401300685196329
vn 0.6908657691252647 -0.5735765091388071 -0.4401300685196329
usemtl m_18e9c3ee-b242-4470-d25d-46e0d87da4b5
f 22/20/5 17/19/5 18/18/5 21/17/5
f 23/24/6 20/23/6 19/22/6 24/21/6