# Made in Blockbench 4.12.6
mtllib lobster_trap.mtl

o cover_inside
v -0.09375 0.278095 0.875
v -0.09375 0.47524375 0.7317625
v -0.09375 0.5505481249999999 0.5
v -0.09375 0.47524375 0.2682375
v -0.09375 0.278095 0.125
v -0.09375 0.03125 0.125
v -0.09375 0.03125 0.875
v 1.09375 0.278095 0.875
v 1.09375 0.47524375 0.7317625
v 1.09375 0.5505481249999999 0.5
v 1.09375 0.47524375 0.2682375
v 1.09375 0.278095 0.125
v 1.09375 0.03125 0.125
v 1.09375 0.03125 0.875
v 1.125 0.278095 0.875
v -0.125 0.278095 0.875
v 1.125 0.47524375 0.7317625
v -0.125 0.47524375 0.7317625
v 1.125 0.5505481249999999 0.5
v -0.125 0.5505481249999999 0.5
v 1.125 0.47524375 0.2682375
v -0.125 0.47524375 0.2682375
v 1.125 0.278095 0.125
v -0.125 0.278095 0.125
v 1.125 0.03125 0.125
v -0.125 0.03125 0.125
v 1.125 0.03125 0.875
v -0.125 0.03125 0.875
vt 0.625 0
vt 1 0
vt 1 0.125
vt 0.625 0.125
vt 0.8125 0.2578125
vt 0.6953125 0.21875
vt 0.625 0.125
vt 0.9296875 0.21875
vt 1 0.125
vt 0.9296875 0.21875
vt 0.625 0.125
vt 0.6953125 0.21875
vt 0.8125 0.2578125
vt 0.9296875 0.21875
vt 0.625 0.125
vt 1 0
vt 0.625 0
vt 0.625 0.125
vt 1 0.125
vt 0.9296875 0.21875
vt 1 0.125
vt 0.625 0.125
vt 0.625 0.25
vt 0 0.25
vt 0 0.125
vt 0.625 0.125
vt 0.625 0.375
vt 0 0.375
vt 0 0.25
vt 0.625 0.25
vt 0.625 0.25
vt 0 0.25
vt 0 0.375
vt 0.625 0.375
vt 0.625 0.125
vt 0 0.125
vt 0 0.25
vt 0.625 0.25
vt 0.625 0
vt 0 0
vt 0 0.125
vt 0.625 0.125
vt 0.625 0.125
vt 0 0.125
vt 0 0
vt 0.625 0
vt 0.625 0.21875
vt 0 0.21875
vt 0 0.59375
vt 0.625 0.59375
vn 1 0 0
vn 1 0 0
vn 1 0 0
vn -1 0 0
vn -1 0 0
vn -1 0 0
vn 0 -0.5877867262257536 -0.8090159234976844
vn 0 -0.951056306567192 -0.3090176398504968
vn 0 -0.951056306567192 0.3090176398504968
vn 0 -0.5877867262257536 0.8090159234976844
vn 0 0 1
vn 0 0 -1
vn 0 1 0
usemtl m_91d00ce0-78f4-4ca0-5c77-9727b1508439
f 7/1/1 6/2/1 5/3/1 1/4/1
f 3/5/2 2/6/2 1/7/2 4/8/2
f 5/9/3 4/10/3 1/11/3
f 9/12/4 10/13/4 11/14/4 8/15/4
f 13/16/5 14/17/5 8/18/5 12/19/5
f 11/20/6 12/21/6 8/22/6
f 18/23/7 17/24/7 15/25/7 16/26/7
f 20/27/8 19/28/8 17/29/8 18/30/8
f 22/31/9 21/32/9 19/33/9 20/34/9
f 24/35/10 23/36/10 21/37/10 22/38/10
f 26/39/11 25/40/11 23/41/11 24/42/11
f 16/43/12 15/44/12 27/45/12 28/46/12
f 25/47/13 26/48/13 28/49/13 27/50/13
o underneath
v 1.09375 0.030625 0.90625
v 1.09375 0.030625 0.09375
v 1.09375 0 0.90625
v 1.09375 0 0.09375
v -0.09375 0.030625 0.09375
v -0.09375 0.030625 0.90625
v -0.09375 0 0.09375
v -0.09375 0 0.90625
vt 0.9846875 1
vt 0.9846875 0.40625
vt 1 0.40625
vt 1 1
vt 0.625 0.40625
vt 1 0.40625
vt 1 0.390625
vt 0.625 0.390625
vt 0.9846875 0.40625
vt 0.9846875 1
vt 1 1
vt 1 0.40625
vt 0.625 0.40625
vt 1 0.40625
vt 1 0.390625
vt 0.625 0.390625
vt 0.625 0.40625
vt 0.625 1
vt 1 1
vt 1 0.40625
vt 0.625 0.40625
vt 0.625 1
vt 1 1
vt 1 0.40625
vn 0 0 -1
vn 1 0 0
vn 0 0 1
vn -1 0 0
vn 0 1 0
vn 0 -1 0
usemtl m_91d00ce0-78f4-4ca0-5c77-9727b1508439
f 32/54/14 35/53/14 33/52/14 30/51/14
f 31/58/15 32/57/15 30/56/15 29/55/15
f 36/62/16 31/61/16 29/60/16 34/59/16
f 35/66/17 36/65/17 34/64/17 33/63/17
f 34/70/18 29/69/18 30/68/18 33/67/18
f 35/74/19 32/73/19 31/72/19 36/71/19
o middle_bar
v 0.5625 0.030625 0.90625
v 0.5625 0.030625 0.09375
v 0.5625 0 0.90625
v 0.5625 0 0.09375
v 0.5 0.030625 0.09375
v 0.5 0.030625 0.90625
v 0.5 0 0.09375
v 0.5 0 0.90625
vt 0.625 0.40625
vt 1 0.40625
vt 1 0.390625
vt 0.625 0.390625
vt 0.625 0.40625
vt 1 0.40625
vt 1 0.390625
vt 0.625 0.390625
vn 1 0 0
vn -1 0 0
usemtl m_91d00ce0-78f4-4ca0-5c77-9727b1508439
f 39/78/20 40/77/20 38/76/20 37/75/20
f 43/82/21 44/81/21 42/80/21 41/79/21
o right_bar
v -0.03125 0.030625 0.90625
v -0.03125 0.030625 0.09375
v -0.03125 0 0.90625
v -0.03125 0 0.09375
v -0.03125 0.030625 0.09375
v -0.03125 0.030625 0.90625
v -0.03125 0 0.09375
v -0.03125 0 0.90625
vt 0.625 0.40625
vt 1 0.40625
vt 1 0.390625
vt 0.625 0.390625
vn 1 0 0
usemtl m_91d00ce0-78f4-4ca0-5c77-9727b1508439
f 47/86/22 48/85/22 46/84/22 45/83/22
o left_bar
v 1.03125 0.030625 0.90625
v 1.03125 0.030625 0.09375
v 1.03125 0 0.90625
v 1.03125 0 0.09375
v 1.03125 0.030625 0.09375
v 1.03125 0.030625 0.90625
v 1.03125 0 0.09375
v 1.03125 0 0.90625
vt 0.625 0.40625
vt 1 0.40625
vt 1 0.390625
vt 0.625 0.390625
vn -1 0 0
usemtl m_91d00ce0-78f4-4ca0-5c77-9727b1508439
f 59/90/23 60/89/23 58/88/23 57/87/23
o middle
v 0.53125 0.5625 0.875
v 0.53125 0.5625 0.125
v 0.53125 0.0625 0.875
v 0.53125 0.0625 0.125
v 0.53125 0.5625 0.125
v 0.53125 0.5625 0.875
v 0.53125 0.0625 0.125
v 0.53125 0.0625 0.875
vt 0 1
vt 0.375 1
vt 0.375 0.75
vt 0 0.75
vt 0 1
vt 0.375 1
vt 0.375 0.75
vt 0 0.75
vn 1 0 0
vn -1 0 0
usemtl m_91d00ce0-78f4-4ca0-5c77-9727b1508439
f 63/94/24 64/93/24 62/92/24 61/91/24
f 67/98/25 68/97/25 66/96/25 65/95/25
o cover_outside
v -0.09375 0.278095 0.875
v -0.09375 0.47524375 0.7317625
v -0.09375 0.5505481249999999 0.5
v -0.09375 0.47524375 0.2682375
v -0.09375 0.278095 0.125
v -0.09375 0.03125 0.125
v -0.09375 0.03125 0.875
v 1.09375 0.278095 0.875
v 1.09375 0.47524375 0.7317625
v 1.09375 0.5505481249999999 0.5
v 1.09375 0.47524375 0.2682375
v 1.09375 0.278095 0.125
v 1.09375 0.03125 0.125
v 1.09375 0.03125 0.875
v 1.125 0.278095 0.875
v -0.125 0.278095 0.875
v 1.125 0.47524375 0.7317625
v -0.125 0.47524375 0.7317625
v 1.125 0.5505481249999999 0.5
v -0.125 0.5505481249999999 0.5
v 1.125 0.47524375 0.2682375
v -0.125 0.47524375 0.2682375
v 1.125 0.278095 0.125
v -0.125 0.278095 0.125
v 1.125 0.03125 0.125
v -0.125 0.03125 0.125
v 1.125 0.03125 0.875
v -0.125 0.03125 0.875
vt 1 0.125
vt 1 0
vt 0.625 0
vt 0.625 0.125
vt 0.625 0.125
vt 0.6953125 0.21875
vt 0.8125 0.2578125
vt 0.9296875 0.21875
vt 0.9296875 0.21875
vt 1 0.125
vt 0.625 0.125
vt 0.9296875 0.21875
vt 0.8125 0.2578125
vt 0.6953125 0.21875
vt 0.625 0.125
vt 0.625 0.125
vt 0.625 0
vt 1 0
vt 1 0.125
vt 1 0.125
vt 0.9296875 0.21875
vt 0.625 0.125
vt 0 0.125
vt 0 0.25
vt 0.625 0.25
vt 0.625 0.125
vt 0 0.453125
vt 0 0.578125
vt 0.625 0.578125
vt 0.625 0.453125
vt 0 0.375
vt 0 0.25
vt 0.625 0.25
vt 0.625 0.375
vt 0 0.25
vt 0 0.125
vt 0.625 0.125
vt 0.625 0.25
vt 0 0.125
vt 0 0
vt 0.625 0
vt 0.625 0.125
vt 0 0
vt 0 0.125
vt 0.625 0.125
vt 0.625 0
vt 0 0.59375
vt 0 0.21875
vt 0.625 0.21875
vt 0.625 0.59375
vn -1 0 0
vn -1 0 0
vn -1 0 0
vn 1 0 0
vn 1 0 0
vn 1 0 0
vn 0 0.5877867262257536 0.8090159234976844
vn 0 0.951056306567192 0.3090176398504968
vn 0 0.951056306567192 -0.3090176398504968
vn 0 0.5877867262257536 -0.8090159234976844
vn 0 0 -1
vn 0 0 1
vn 0 -1 0
usemtl m_91d00ce0-78f4-4ca0-5c77-9727b1508439
f 73/99/26 74/100/26 75/101/26 69/102/26
f 69/103/27 70/104/27 71/105/27 72/106/27
f 72/107/28 73/108/28 69/109/28
f 79/110/29 78/111/29 77/112/29 76/113/29
f 76/114/30 82/115/30 81/116/30 80/117/30
f 80/118/31 79/119/31 76/120/31
f 83/121/32 85/122/32 86/123/32 84/124/32
f 85/125/33 87/126/33 88/127/33 86/128/33
f 87/129/34 89/130/34 90/131/34 88/132/34
f 89/133/35 91/134/35 92/135/35 90/136/35
f 91/137/36 93/138/36 94/139/36 92/140/36
f 95/141/37 83/142/37 84/143/37 96/144/37
f 96/145/38 94/146/38 93/147/38 95/148/38