# Made in Blockbench 4.12.6
mtllib metal_bucket.mtl

o bucket
v 0.5487254367260526 0.625 0.19517204613277894
v 0.5785600395912659 0 0.13661830134967395
v 0.5275617307651392 0.5625 0.23598359789243706
v 0.5627836034195175 0 0.16659962887198354
v 0.38826611428877167 0.625 0.16975774453345804
v 0.3779856655737957 0 0.10485064532139193
v 0.39483425240251824 0.5625 0.21462897310060342
v 0.3824395544117945 0 0.13758438598947015
v 0.24351295928685887 0.625 0.2435129592868593
v 0.19704455327770837 0 0.1970445532777088
v 0.2753049221107443 0.5625 0.27530492211074464
v 0.22002817531670066 0 0.22002817531670105
v 0.16975774453345788 0.625 0.38826611428877217
v 0.10485064532139171 0 0.3779856655737963
v 0.21462897310060325 0.5625 0.3948342524025187
v 0.13758438598946993 0 0.38243955441179506
v 0.195172046132779 0.625 0.548725436726053
v 0.136618301349674 0 0.5785600395912665
v 0.23598359789243706 0.5625 0.5275617307651396
v 0.1665996288719836 0 0.562783603419518
v 0.31004861380434556 0.625 0.6636020043976194
v 0.28021401093913223 0 0.7221557491807244
v 0.3312123197652589 0.5625 0.6227904526379613
v 0.2959904471108805 0 0.6921744216584148
v 0.4705079362416264 0.625 0.6890163059969403
v 0.4807883849566024 0 0.7539234052090065
v 0.46393979812787983 0.5625 0.644145077429795
v 0.47633449611860357 0 0.7211896645409281
v 0.6152610912435392 0.625 0.6152610912435391
v 0.6617294972526897 0 0.6617294972526896
v 0.5834691284196538 0.5625 0.5834691284196537
v 0.6387458752136975 0 0.6387458752136973
v 0.6890163059969402 0.625 0.4705079362416262
v 0.7539234052090065 0 0.4807883849566021
v 0.6441450774297949 0.5625 0.46393979812787967
v 0.7211896645409281 0 0.47633449611860335
v 0.6636020043976191 0.625 0.3100486138043454
v 0.7221557491807241 0 0.28021401093913195
v 0.6227904526379611 0.5625 0.3312123197652588
v 0.6921744216584145 0 0.2959904471108803
vt 0.48046875 0.71875
vt 0.46875 0.40625
vt 0.390625 0.40625
vt 0.37890625 0.71875
vt 0.0125615625 0.109375
vt 0 0.390625
vt 0.09375 0.390625
vt 0.0815571875 0.109375
vt 0.4765625 0.75
vt 0.48046875 0.734375
vt 0.37890625 0.734375
vt 0.3828125 0.75
vt 0.10546875 0.71875
vt 0.09375 0.40625
vt 0.015625 0.40625
vt 0.00390625 0.71875
vt 0.3874915625 0.109375
vt 0.375 0.390625
vt 0.46875 0.390625
vt 0.45649 0.109375
vt 0.1015625 0.75
vt 0.10546875 0.734375
vt 0.00390625 0.734375
vt 0.0078125 0.75
vt 0.19921875 0.71875
vt 0.1875 0.40625
vt 0.109375 0.40625
vt 0.09765625 0.71875
vt 0.29351 0.109375
vt 0.28125 0.390625
vt 0.375 0.390625
vt 0.3625084375 0.109375
vt 0.1953125 0.75
vt 0.19921875 0.734375
vt 0.09765625 0.734375
vt 0.1015625 0.75
vt 0.29296875 0.71875
vt 0.28125 0.40625
vt 0.203125 0.40625
vt 0.19140625 0.71875
vt 0.1996928125 0.109375
vt 0.1875 0.390625
vt 0.28125 0.390625
vt 0.2686884375 0.109375
vt 0.2890625 0.75
vt 0.29296875 0.734375
vt 0.19140625 0.734375
vt 0.1953125 0.75
vt 0.38671875 0.71875
vt 0.375 0.40625
vt 0.296875 0.40625
vt 0.28515625 0.71875
vt 0.1061259375 0.109375
vt 0.09375 0.390625
vt 0.1875 0.390625
vt 0.1751240625 0.109375
vt 0.3828125 0.75
vt 0.38671875 0.734375
vt 0.28515625 0.734375
vt 0.2890625 0.75
vt 0.48046875 0.71875
vt 0.46875 0.40625
vt 0.390625 0.40625
vt 0.37890625 0.71875
vt 0.0125615625 0.109375
vt 0 0.390625
vt 0.09375 0.390625
vt 0.0815571875 0.109375
vt 0.4765625 0.75
vt 0.48046875 0.734375
vt 0.37890625 0.734375
vt 0.3828125 0.75
vt 0.10546875 0.71875
vt 0.09375 0.40625
vt 0.015625 0.40625
vt 0.00390625 0.71875
vt 0.3874915625 0.109375
vt 0.375 0.390625
vt 0.46875 0.390625
vt 0.45649 0.109375
vt 0.1015625 0.75
vt 0.10546875 0.734375
vt 0.00390625 0.734375
vt 0.0078125 0.75
vt 0.19921875 0.71875
vt 0.1875 0.40625
vt 0.109375 0.40625
vt 0.09765625 0.71875
vt 0.29351 0.109375
vt 0.28125 0.390625
vt 0.375 0.390625
vt 0.3625084375 0.109375
vt 0.1953125 0.75
vt 0.19921875 0.734375
vt 0.09765625 0.734375
vt 0.1015625 0.75
vt 0.29296875 0.71875
vt 0.28125 0.40625
vt 0.203125 0.40625
vt 0.19140625 0.71875
vt 0.1996928125 0.109375
vt 0.1875 0.390625
vt 0.28125 0.390625
vt 0.2686884375 0.109375
vt 0.2890625 0.75
vt 0.29296875 0.734375
vt 0.19140625 0.734375
vt 0.1953125 0.75
vt 0.38671875 0.71875
vt 0.375 0.40625
vt 0.296875 0.40625
vt 0.28515625 0.71875
vt 0.1061259375 0.109375
vt 0.09375 0.390625
vt 0.1875 0.390625
vt 0.1751240625 0.109375
vt 0.3828125 0.75
vt 0.38671875 0.734375
vt 0.28515625 0.734375
vt 0.2890625 0.75
vt 0.875 0.737134375
vt 0.797745625 0.7622359375
vt 0.75 0.8279521875
vt 0.952254375 0.7622359375
vt 1 0.9091821875
vt 1 0.8279521875
vt 0.952254375 0.7622359375
vt 0.952254375 0.9748984375
vt 0.797745625 0.9748984375
vt 0.875 1
vt 0.952254375 0.9748984375
vt 0.75 0.9091821875
vt 0.952254375 0.7622359375
vt 0.75 0.8279521875
vt 0.75 0.9091821875
vt 0.952254375 0.9748984375
vt 0.6000365625 0.97752
vt 0.536324375 0.956711875
vt 0.4969478125 0.902235625
vt 0.6637484375 0.956711875
vt 0.703125 0.8348990625
vt 0.703125 0.902235625
vt 0.6637484375 0.956711875
vt 0.6637484375 0.7804225
vt 0.536324375 0.7804225
vt 0.6000365625 0.7596146875
vt 0.6637484375 0.7804225
vt 0.4969478125 0.8348990625
vt 0.6637484375 0.956711875
vt 0.4969478125 0.902235625
vt 0.4969478125 0.8348990625
vt 0.6637484375 0.7804225
vn 0.15565836505665914 0.09950334619530528 -0.982786628665564
vn -0.15748504317852538 -0.13060071416979924 0.9788472376389468
vn 0 -1 0
vn -0.4517364619716955 0.09950347522156547 -0.8865851495170254
vn 0.4487444937068098 -0.13096957316410768 0.8840109446568127
vn 0 -1 0
vn -0.8865851422088562 0.09950355724319598 -0.4517364582480061
vn 0.8840109599287684 -0.1309694435200236 0.44874450145920775
vn 0 -1 0
vn -0.9827865893046805 0.0995037447112394 0.1556583588224988
vn 0.978847164270517 -0.13060127829607895 -0.15748503137440673
vn 0 -1 0
vn -0.7035975447302913 0.09950371902099894 0.7035975447302923
vn 0.7010714135458606 -0.13037540495667366 -0.7010714135458616
vn 0 -1 0
vn -0.1556583650566591 0.09950334619530532 0.982786628665564
vn 0.1574850431785252 -0.13060071416979924 -0.9788472376389468
vn 0 -1 0
vn 0.4517364619716953 0.09950347522156547 0.8865851495170255
vn -0.44874449370680963 -0.1309695731641078 -0.884010944656813
vn 0 -1 0
vn 0.8865851422088564 0.09950355724319607 0.45173645824800573
vn -0.8840109599287685 -0.1309694435200236 -0.4487445014592075
vn 0 -1 0
vn 0.9827865893046805 0.09950374471123946 -0.15565835882249882
vn -0.9788471642705171 -0.13060127829607895 0.15748503137440648
vn 0 -1 0
vn 0.7035975447302913 0.09950371902099893 -0.7035975447302923
vn -0.7010714135458606 -0.13037540495667366 0.7010714135458616
vn 0 -1 0
vn 0 1 0
vn 0 1 0
vn 0 1 0
vn 0 1 0
vn 0 -1 0
vn 0 -1 0
vn 0 -1 0
vn 0 -1 0
usemtl m_b6022f63-c3fe-e04a-f85c-38673a506afa
f 6/1/1 5/2/1 1/3/1 2/4/1
f 7/5/2 8/6/2 4/7/2 3/8/2
f 8/9/3 6/10/3 2/11/3 4/12/3
f 10/13/4 9/14/4 5/15/4 6/16/4
f 11/17/5 12/18/5 8/19/5 7/20/5
f 12/21/6 10/22/6 6/23/6 8/24/6
f 14/25/7 13/26/7 9/27/7 10/28/7
f 15/29/8 16/30/8 12/31/8 11/32/8
f 16/33/9 14/34/9 10/35/9 12/36/9
f 18/37/10 17/38/10 13/39/10 14/40/10
f 19/41/11 20/42/11 16/43/11 15/44/11
f 20/45/12 18/46/12 14/47/12 16/48/12
f 22/49/13 21/50/13 17/51/13 18/52/13
f 23/53/14 24/54/14 20/55/14 19/56/14
f 24/57/15 22/58/15 18/59/15 20/60/15
f 26/61/16 25/62/16 21/63/16 22/64/16
f 27/65/17 28/66/17 24/67/17 23/68/17
f 28/69/18 26/70/18 22/71/18 24/72/18
f 30/73/19 29/74/19 25/75/19 26/76/19
f 31/77/20 32/78/20 28/79/20 27/80/20
f 32/81/21 30/82/21 26/83/21 28/84/21
f 34/85/22 33/86/22 29/87/22 30/88/22
f 35/89/23 36/90/23 32/91/23 31/92/23
f 36/93/24 34/94/24 30/95/24 32/96/24
f 38/97/25 37/98/25 33/99/25 34/100/25
f 39/101/26 40/102/26 36/103/26 35/104/26
f 40/105/27 38/106/27 34/107/27 36/108/27
f 2/109/28 1/110/28 37/111/28 38/112/28
f 3/113/29 4/114/29 40/115/29 39/116/29
f 4/117/30 2/118/30 38/119/30 40/120/30
f 9/121/31 13/122/31 17/123/31 5/124/31
f 37/125/32 1/126/32 5/127/32 33/128/32
f 25/129/33 29/130/33 33/131/33 21/132/33
f 5/133/34 17/134/34 21/135/34 33/136/34
f 31/137/35 27/138/35 23/139/35 35/140/35
f 3/141/36 39/142/36 35/143/36 7/144/36
f 15/145/37 11/146/37 7/147/37 19/148/37
f 35/149/38 23/150/38 19/151/38 7/152/38
o bucket_handle
v 0.6835035247541139 0.07812500000000008 0.17527052577628327
v 0.6835035247541139 0.07812500000000008 0.17527052577628327
v 0.9659554236933181 0.0040918177688153284 0.4577224247154865
v 0.9659554236933181 0.0040918177688153284 0.4577224247154865
v 0.17527052577628377 0.07812500000000012 0.683503524754115
v 0.17527052577628377 0.07812500000000012 0.683503524754115
v 0.45772242471548785 0.004091817768815356 0.9659554236933182
v 0.45772242471548785 0.004091817768815356 0.9659554236933182
vt 0 0.78125
vt 0.359375 0.78125
vt 0.359375 0.984375
vt 0 0.984375
vt 0 0.78125
vt 0.359375 0.78125
vt 0.359375 0.984375
vt 0 0.984375
vn -0.12885997584859135 -0.9832549075639546 -0.1288599758485909
vn 0.12885997584859135 0.9832549075639546 0.1288599758485909
usemtl m_b6022f63-c3fe-e04a-f85c-38673a506afa
f 44/156/39 47/155/39 45/154/39 42/153/39
f 48/160/40 43/159/40 41/158/40 46/157/40