# Made in Blockbench 4.12.6
mtllib metal_bucket.mtl

o bucket
v 0.5624584041367767 0.3432033506988379 0.04256233569958878
v 0.8330547584993144 0.4287298936313114 0.6032819340872089
v 0.5430339854179607 0.3359193626454778 0.11732442958750677
v 0.803009511289307 0.4187405427685217 0.6153348145608082
v 0.4680271588853771 0.47391584971182843 0.062312358607460316
v 0.7150154082811209 0.5921205173975497 0.627969569603343
v 0.4651356989056807 0.44427500945058956 0.13355755240465467
v 0.697164583086613 0.5659689425826563 0.6373917815773122
v 0.32104162277472903 0.5238439567402389 0.11022628027072123
v 0.5312837873828234 0.6545304957890165 0.6878618801487221
v 0.34390816045953143 0.48566265970252487 0.1730515762208239
v 0.5324458237480969 0.6222048047324399 0.6910545488228959
v 0.17764569444166772 0.47391584971182843 0.1680025682476003
v 0.35203916503437205 0.5921205173975496 0.7600821178909284
v 0.22565620911416795 0.4442750094505895 0.2207209584060223
v 0.3717701715924206 0.5659689425826563 0.7558256617577666
v 0.09261209374382262 0.3432033506988378 0.2135724073624234
v 0.24574687050812166 0.4287298936313113 0.817044523665752
v 0.15554820938956343 0.3359193626454777 0.25835771826338394
v 0.2765103074049464 0.4187405427685216 0.8069648531395682
v 0.0984201752083404 0.18163332357730805 0.2295299800365388
v 0.25300697233876895 0.2267673597293991 0.8369914895083963
v 0.16036290907645312 0.20198336953912463 0.2715859969345686
v 0.28305221954877635 0.2367567105921888 0.824938609034797
v 0.19285142045974007 0.05092082456431743 0.20977995712866732
v 0.37104632255696246 0.06337673596316079 0.8123038539922622
v 0.2382611955887331 0.09362772273401279 0.2553528741174207
v 0.38889714775147033 0.08952831077805418 0.8028816420182929
v 0.33983695657038815 0.000992717535907045 0.16186603546540645
v 0.5547779434552599 0.0009667575716940935 0.7524115434468831
v 0.35948873403488235 0.052240072482077515 0.21585885030125146
v 0.5536159070899864 0.03329244862827058 0.7492188747727093
v 0.48323288490344946 0.050920824564317485 0.1040897474885274
v 0.7340225658037113 0.06337673596316087 0.6801913057046768
v 0.47774068538024583 0.09362772273401285 0.16818946811605306
v 0.7142915592456627 0.08952831077805426 0.6844477618378386
v 0.5682664856012946 0.18163332357730816 0.058519908373704244
v 0.8403148603299617 0.22676735972939924 0.6232288999298532
v 0.5478486851048504 0.2019833695391247 0.13055270825869142
v 0.8095514234331369 0.23675671059218892 0.633308570456037
vt 0.390625 0.40625
vt 0.46875 0.40625
vt 0.48046875 0.71875
vt 0.37890625 0.71875
vt 0.09375 0.390625
vt 0 0.390625
vt 0.0125615625 0.109375
vt 0.0815571875 0.109375
vt 0.37890625 0.734375
vt 0.48046875 0.734375
vt 0.4765625 0.75
vt 0.3828125 0.75
vt 0.015625 0.40625
vt 0.09375 0.40625
vt 0.10546875 0.71875
vt 0.00390625 0.71875
vt 0.46875 0.390625
vt 0.375 0.390625
vt 0.3874915625 0.109375
vt 0.45649 0.109375
vt 0.00390625 0.734375
vt 0.10546875 0.734375
vt 0.1015625 0.75
vt 0.0078125 0.75
vt 0.109375 0.40625
vt 0.1875 0.40625
vt 0.19921875 0.71875
vt 0.09765625 0.71875
vt 0.375 0.390625
vt 0.28125 0.390625
vt 0.29351 0.109375
vt 0.3625084375 0.109375
vt 0.09765625 0.734375
vt 0.19921875 0.734375
vt 0.1953125 0.75
vt 0.1015625 0.75
vt 0.203125 0.40625
vt 0.28125 0.40625
vt 0.29296875 0.71875
vt 0.19140625 0.71875
vt 0.28125 0.390625
vt 0.1875 0.390625
vt 0.1996928125 0.109375
vt 0.2686884375 0.109375
vt 0.19140625 0.734375
vt 0.29296875 0.734375
vt 0.2890625 0.75
vt 0.1953125 0.75
vt 0.296875 0.40625
vt 0.375 0.40625
vt 0.38671875 0.71875
vt 0.28515625 0.71875
vt 0.1875 0.390625
vt 0.09375 0.390625
vt 0.1061259375 0.109375
vt 0.1751240625 0.109375
vt 0.28515625 0.734375
vt 0.38671875 0.734375
vt 0.3828125 0.75
vt 0.2890625 0.75
vt 0.390625 0.40625
vt 0.46875 0.40625
vt 0.48046875 0.71875
vt 0.37890625 0.71875
vt 0.09375 0.390625
vt 0 0.390625
vt 0.0125615625 0.109375
vt 0.0815571875 0.109375
vt 0.37890625 0.734375
vt 0.48046875 0.734375
vt 0.4765625 0.75
vt 0.3828125 0.75
vt 0.015625 0.40625
vt 0.09375 0.40625
vt 0.10546875 0.71875
vt 0.00390625 0.71875
vt 0.46875 0.390625
vt 0.375 0.390625
vt 0.3874915625 0.109375
vt 0.45649 0.109375
vt 0.00390625 0.734375
vt 0.10546875 0.734375
vt 0.1015625 0.75
vt 0.0078125 0.75
vt 0.109375 0.40625
vt 0.1875 0.40625
vt 0.19921875 0.71875
vt 0.09765625 0.71875
vt 0.375 0.390625
vt 0.28125 0.390625
vt 0.29351 0.109375
vt 0.3625084375 0.109375
vt 0.09765625 0.734375
vt 0.19921875 0.734375
vt 0.1953125 0.75
vt 0.1015625 0.75
vt 0.203125 0.40625
vt 0.28125 0.40625
vt 0.29296875 0.71875
vt 0.19140625 0.71875
vt 0.28125 0.390625
vt 0.1875 0.390625
vt 0.1996928125 0.109375
vt 0.2686884375 0.109375
vt 0.19140625 0.734375
vt 0.29296875 0.734375
vt 0.2890625 0.75
vt 0.1953125 0.75
vt 0.296875 0.40625
vt 0.375 0.40625
vt 0.38671875 0.71875
vt 0.28515625 0.71875
vt 0.1875 0.390625
vt 0.09375 0.390625
vt 0.1061259375 0.109375
vt 0.1751240625 0.109375
vt 0.28515625 0.734375
vt 0.38671875 0.734375
vt 0.3828125 0.75
vt 0.2890625 0.75
vt 0.75 0.8279521875
vt 0.797745625 0.7622359375
vt 0.875 0.737134375
vt 0.952254375 0.7622359375
vt 0.952254375 0.7622359375
vt 1 0.8279521875
vt 1 0.9091821875
vt 0.952254375 0.9748984375
vt 0.952254375 0.9748984375
vt 0.875 1
vt 0.797745625 0.9748984375
vt 0.75 0.9091821875
vt 0.75 0.9091821875
vt 0.75 0.8279521875
vt 0.952254375 0.7622359375
vt 0.952254375 0.9748984375
vt 0.4969478125 0.902235625
vt 0.536324375 0.956711875
vt 0.6000365625 0.97752
vt 0.6637484375 0.956711875
vt 0.6637484375 0.956711875
vt 0.703125 0.902235625
vt 0.703125 0.8348990625
vt 0.6637484375 0.7804225
vt 0.6637484375 0.7804225
vt 0.6000365625 0.7596146875
vt 0.536324375 0.7804225
vt 0.4969478125 0.8348990625
vt 0.4969478125 0.8348990625
vt 0.4969478125 0.902235625
vt 0.6637484375 0.956711875
vt 0.6637484375 0.7804225
vn 0.7016993641440411 0.5712631041188687 -0.42576574337577144
vn -0.6898636472784786 -0.5639576529110412 0.4539161969865194
vn 0.34014652119437294 0.10452846326765163 0.9345448862875818
vn 0.22126279596653814 0.9307512123410865 -0.29110986903000746
vn -0.21097801152300302 -0.923547791871784 0.32023078362729523
vn 0.34014652119437294 0.10452846326765163 0.9345448862875818
vn -0.3566189774278305 0.9307511960095227 -0.08077819052920138
vn 0.36745887478385564 -0.9235478216147704 0.10969683921241735
vn 0.34014652119437294 0.10452846326765163 0.9345448862875818
vn -0.8112099475337428 0.5712630391668004 0.12488779405615777
vn 0.8202380545016954 -0.5639575506497226 -0.0957152809766516
vn 0.34014652119437294 0.10452846326765163 0.9345448862875818
vn -0.9688749489187661 -0.010400970838681498 0.2473320706323205
vn 0.9760188039595723 0.013627940728019153 -0.21725923121662674
vn 0.34014652119437294 0.10452846326765163 0.9345448862875818
vn -0.7693907982551061 -0.5920649678544372 0.23978505666512057
vn 0.7787104044591941 0.591260636818695 -0.20981173784073534
vn 0.34014652119437294 0.10452846326765163 0.9345448862875818
vn -0.28895431785327014 -0.9515531030504887 0.10512894115769346
vn 0.3000757009111696 0.9509278883071127 -0.07543689390772723
vn 0.34014652119437294 0.10452846326765163 0.9345448862875818
vn 0.288927399742354 -0.9515531038661147 -0.1052028906489037
vn -0.2783612735916582 0.9509278909471056 0.13509680819071945
vn 0.34014652119437294 0.10452846326765163 0.9345448862875818
vn 0.7435182423150607 -0.5920649862148853 -0.3108692256288655
vn -0.7313909135497965 0.5912606524918829 0.3398207945250954
vn 0.34014652119437294 0.10452846326765163 0.9345448862875818
vn 0.901183261176976 -0.01040097083868092 -0.4333134541876624
vn -0.887325323068932 0.013627940728018574 0.46094256721649074
vn 0.34014652119437294 0.10452846326765163 0.9345448862875818
vn -0.34014652119437294 -0.10452846326765163 -0.9345448862875818
vn -0.34014652119437294 -0.10452846326765163 -0.9345448862875818
vn -0.34014652119437294 -0.10452846326765163 -0.9345448862875818
vn -0.34014652119437294 -0.10452846326765163 -0.9345448862875818
vn 0.34014652119437294 0.10452846326765163 0.9345448862875818
vn 0.34014652119437294 0.10452846326765163 0.9345448862875818
vn 0.34014652119437294 0.10452846326765163 0.9345448862875818
vn 0.34014652119437294 0.10452846326765163 0.9345448862875818
usemtl m_b6022f63-c3fe-e04a-f85c-38673a506afa
f 1/1/1 5/2/1 6/3/1 2/4/1
f 4/5/2 8/6/2 7/7/2 3/8/2
f 2/9/3 6/10/3 8/11/3 4/12/3
f 5/13/4 9/14/4 10/15/4 6/16/4
f 8/17/5 12/18/5 11/19/5 7/20/5
f 6/21/6 10/22/6 12/23/6 8/24/6
f 9/25/7 13/26/7 14/27/7 10/28/7
f 12/29/8 16/30/8 15/31/8 11/32/8
f 10/33/9 14/34/9 16/35/9 12/36/9
f 13/37/10 17/38/10 18/39/10 14/40/10
f 16/41/11 20/42/11 19/43/11 15/44/11
f 14/45/12 18/46/12 20/47/12 16/48/12
f 17/49/13 21/50/13 22/51/13 18/52/13
f 20/53/14 24/54/14 23/55/14 19/56/14
f 18/57/15 22/58/15 24/59/15 20/60/15
f 21/61/16 25/62/16 26/63/16 22/64/16
f 24/65/17 28/66/17 27/67/17 23/68/17
f 22/69/18 26/70/18 28/71/18 24/72/18
f 25/73/19 29/74/19 30/75/19 26/76/19
f 28/77/20 32/78/20 31/79/20 27/80/20
f 26/81/21 30/82/21 32/83/21 28/84/21
f 29/85/22 33/86/22 34/87/22 30/88/22
f 32/89/23 36/90/23 35/91/23 31/92/23
f 30/93/24 34/94/24 36/95/24 32/96/24
f 33/97/25 37/98/25 38/99/25 34/100/25
f 36/101/26 40/102/26 39/103/26 35/104/26
f 34/105/27 38/106/27 40/107/27 36/108/27
f 37/109/28 1/110/28 2/111/28 38/112/28
f 40/113/29 4/114/29 3/115/29 39/116/29
f 38/117/30 2/118/30 4/119/30 40/120/30
f 17/121/31 13/122/31 9/123/31 5/124/31
f 5/125/32 1/126/32 37/127/32 33/128/32
f 33/129/33 29/130/33 25/131/33 21/132/33
f 21/133/34 17/134/34 5/135/34 33/136/34
f 23/137/35 27/138/35 31/139/35 35/140/35
f 35/141/36 39/142/36 3/143/36 7/144/36
f 7/145/37 11/146/37 15/147/37 19/148/37
f 19/149/38 23/150/38 35/151/38 7/152/38
o bucket_handle
v 0.9389000294083896 0.00041616633277372084 0.7570360946083055
v 0.9389000294083896 0.00041616633277372084 0.7570360946083055
v 0.8524043079025576 0.31835073005406694 0.5193910528915965
v 0.8524043079025576 0.31835073005406694 0.5193910528915965
v 0.263495958218518 0.00041616633277372084 1.0028630726236298
v 0.263495958218518 0.00041616633277372084 1.0028630726236298
v 0.177000236712686 0.318350730054067 0.765218030906921
v 0.177000236712686 0.318350730054067 0.765218030906921
vt 0 0.984375
vt 0.359375 0.984375
vt 0.359375 0.78125
vt 0 0.78125
vt 0 0.984375
vt 0.359375 0.984375
vt 0.359375 0.78125
vt 0 0.78125
vn 0.2676677539745004 0.6225146366376187 0.7354111099610747
vn -0.2676677539745004 -0.6225146366376187 -0.7354111099610747
usemtl m_b6022f63-c3fe-e04a-f85c-38673a506afa
f 44/156/39 47/155/39 45/154/39 42/153/39
f 48/160/40 43/159/40 41/158/40 46/157/40