# Made in Blockbench 4.12.6
mtllib metal_cans_debris.mtl

o can_2
v 0.75 0.34375 0.6875
v 0.7382080723787354 0.34375 0.8222842543761715
v 0.836968453918384 0.34375 0.7911452256874939
v 0.8847842543761715 0.34375 0.6992919276212646
v 0.8536452256874939 0.34375 0.600531546081616
v 0.7617919276212646 0.34375 0.5527157456238285
v 0.663031546081616 0.34375 0.5838547743125061
v 0.6152157456238285 0.34375 0.6757080723787354
v 0.6463547743125061 0.34375 0.774468453918384
v 0.7617919276212646 0 0.5527157456238285
v 0.663031546081616 0 0.5838547743125061
v 0.75 0 0.6875
v 0.6152157456238285 0 0.6757080723787354
v 0.6463547743125061 0 0.774468453918384
v 0.7382080723787354 0 0.8222842543761715
v 0.836968453918384 0 0.7911452256874939
v 0.8847842543761715 0 0.6992919276212646
v 0.8536452256874939 0 0.600531546081616
vt 0.46875 0.53125
vt 0.5625 0.53125
vt 0.5625 0.875
vt 0.46875 0.875
vt 0.5625 0.875
vt 0.46875 0.875
vt 0.515625 1
vt 0.5625 0.53125
vt 0.65625 0.53125
vt 0.65625 0.875
vt 0.5625 0.875
vt 0.65625 0.875
vt 0.5625 0.875
vt 0.609375 1
vt 0.65625 0.53125
vt 0.75 0.53125
vt 0.75 0.875
vt 0.65625 0.875
vt 0.75 0.875
vt 0.65625 0.875
vt 0.703125 1
vt 0 0.53125
vt 0.09375 0.53125
vt 0.09375 0.875
vt 0 0.875
vt 0.09375 0.875
vt 0 0.875
vt 0.046875 1
vt 0.09375 0.53125
vt 0.1875 0.53125
vt 0.1875 0.875
vt 0.09375 0.875
vt 0.1875 0.875
vt 0.09375 0.875
vt 0.140625 1
vt 0.1875 0.53125
vt 0.28125 0.53125
vt 0.28125 0.875
vt 0.1875 0.875
vt 0.28125 0.875
vt 0.1875 0.875
vt 0.234375 1
vt 0.28125 0.53125
vt 0.375 0.53125
vt 0.375 0.875
vt 0.28125 0.875
vt 0.375 0.875
vt 0.28125 0.875
vt 0.328125 1
vt 0.375 0.53125
vt 0.46875 0.53125
vt 0.46875 0.875
vt 0.375 0.875
vt 0.46875 0.875
vt 0.375 0.875
vt 0.421875 1
vt 0.46875 0.53125
vt 0.5625 0.53125
vt 0.515625 0.40625
vt 0.5625 0.53125
vt 0.65625 0.53125
vt 0.609375 0.40625
vt 0.65625 0.53125
vt 0.75 0.53125
vt 0.703125 0.40625
vt 0 0.53125
vt 0.09375 0.53125
vt 0.046875 0.40625
vt 0.09375 0.53125
vt 0.1875 0.53125
vt 0.140625 0.40625
vt 0.1875 0.53125
vt 0.28125 0.53125
vt 0.234375 0.40625
vt 0.28125 0.53125
vt 0.375 0.53125
vt 0.328125 0.40625
vt 0.375 0.53125
vt 0.46875 0.53125
vt 0.421875 0.40625
vn 0.3007057995042731 0 0.9537169507482269
vn 0 1 0
vn 0.8870108331782217 0 0.4617486132350339
vn 0 1 0
vn 0.9537169507482269 0 -0.3007057995042731
vn 0 1 0
vn 0.4617486132350339 0 -0.8870108331782217
vn 0 1 0
vn -0.3007057995042731 0 -0.9537169507482269
vn 0 1 0
vn -0.8870108331782217 0 -0.4617486132350339
vn 0 1 0
vn -0.9537169507482269 0 0.3007057995042731
vn 0 1 0
vn -0.4617486132350339 0 0.8870108331782217
vn 0 1 0
vn 0 -1 0
vn 0 -1 0
vn 0 -1 0
vn 0 -1 0
vn 0 -1 0
vn 0 -1 0
vn 0 -1 0
vn 0 -1 0
usemtl m_576f9ee6-af02-f947-af13-1796e4a8bebf
f 15/1/1 16/2/1 3/3/1 2/4/1
f 2/5/2 3/6/2 1/7/2
f 16/8/3 17/9/3 4/10/3 3/11/3
f 3/12/4 4/13/4 1/14/4
f 17/15/5 18/16/5 5/17/5 4/18/5
f 4/19/6 5/20/6 1/21/6
f 18/22/7 10/23/7 6/24/7 5/25/7
f 5/26/8 6/27/8 1/28/8
f 10/29/9 11/30/9 7/31/9 6/32/9
f 6/33/10 7/34/10 1/35/10
f 11/36/11 13/37/11 8/38/11 7/39/11
f 7/40/12 8/41/12 1/42/12
f 13/43/13 14/44/13 9/45/13 8/46/13
f 8/47/14 9/48/14 1/49/14
f 14/50/15 15/51/15 2/52/15 9/53/15
f 9/54/16 2/55/16 1/56/16
f 16/57/17 15/58/17 12/59/17
f 17/60/18 16/61/18 12/62/18
f 18/63/19 17/64/19 12/65/19
f 10/66/20 18/67/20 12/68/20
f 11/69/21 10/70/21 12/71/21
f 13/72/22 11/73/22 12/74/22
f 14/75/23 13/76/23 12/77/23
f 15/78/24 14/79/24 12/80/24
o can_5_lid
v 0.4790238254952559 0.1451345495240146 0.7333317643824878
v 0.3760815717550495 0.13864149457627567 0.7241674476123262
v 0.3111215508040044 0.08263062212333876 0.6661471323411808
v 0.3221970062080616 0.009912810927061554 0.5932588185182738
v 0.40282017920359947 -0.03691544075143531 0.5481988811023227
v 0.5057624329438059 -0.030422385803696377 0.5573631978724843
v 0.570722453894851 0.025588486649240537 0.6153835131436297
v 0.5596469984907938 0.09830629784551775 0.6882718269665367
v 0.4409220023494277 0.05410955438628964 0.6407653227424053
vt 0.5625 0.875
vt 0.46875 0.875
vt 0.515625 1
vt 0.65625 0.875
vt 0.5625 0.875
vt 0.609375 1
vt 0.75 0.875
vt 0.65625 0.875
vt 0.703125 1
vt 0.09375 0.875
vt 0 0.875
vt 0.046875 1
vt 0.1875 0.875
vt 0.09375 0.875
vt 0.140625 1
vt 0.28125 0.875
vt 0.1875 0.875
vt 0.234375 1
vt 0.375 0.875
vt 0.28125 0.875
vt 0.328125 1
vt 0.46875 0.875
vt 0.375 0.875
vt 0.421875 1
vn -0.018011441742015962 -0.7091865628672561 0.7047907540645674
vn -0.018011441742015962 -0.7091865628672561 0.7047907540645674
vn -0.018011441742015962 -0.7091865628672561 0.7047907540645674
vn -0.018011441742015962 -0.7091865628672561 0.7047907540645674
vn -0.018011441742015962 -0.7091865628672561 0.7047907540645674
vn -0.018011441742015962 -0.7091865628672561 0.7047907540645674
vn -0.018011441742015962 -0.7091865628672561 0.7047907540645674
vn -0.018011441742015962 -0.7091865628672561 0.7047907540645674
usemtl m_b522ed66-0252-f3ef-0971-30066132a114
f 19/81/25 20/82/25 27/83/25
f 20/84/26 21/85/26 27/86/26
f 21/87/27 22/88/27 27/89/27
f 22/90/28 23/91/28 27/92/28
f 23/93/29 24/94/29 27/95/29
f 24/96/30 25/97/30 27/98/30
f 25/99/31 26/100/31 27/101/31
f 26/102/32 19/103/32 27/104/32
o can_5
v 0.49683352357649685 0.23563835641508463 0.49923919935577404
v 0.43456661195978935 0.17939022077913094 0.43855780991281756
v 0.41168521987002255 0.07872690491214088 0.4303897089242493
v 0.44159314819229584 -0.007383542519019792 0.47951972761146683
v 0.5067709887401504 -0.02849951080132755 0.5571685790136707
v 0.5690379003568578 0.02774862483462614 0.6178499684566272
v 0.5919192924466246 0.1284119407016162 0.6260180694451953
v 0.5620113641243514 0.21452238813277685 0.5768880507579779
v 0.7628631602390527 -0.06838805933323172 0.3313594430315436
v 0.8251300718557601 -0.012139923697278024 0.39204083247450006
v 0.7578944276572259 0.06368087427497438 0.30239475320259523
v 0.848011463945527 0.08852339216971204 0.40020893346306824
v 0.8181035356232537 0.1746338396008727 0.3510789147758508
v 0.7529256950753992 0.19574980788318047 0.2734300633736469
v 0.6906587834586917 0.13950167224722676 0.21274867393069044
v 0.6677773913689249 0.03883835638023671 0.20458057294212223
v 0.6976853196911982 -0.04727209105092395 0.2537105916293397
v 0.7628631602390527 -0.06838805933323172 0.3313594430315436
v 0.8251300718557601 -0.012139923697278024 0.39204083247450006
v 0.5690379003568578 0.02774862483462614 0.6178499684566272
v 0.5067709887401504 -0.02849951080132755 0.5571685790136707
v 0.848011463945527 0.08852339216971204 0.40020893346306824
v 0.5919192924466246 0.1284119407016162 0.6260180694451953
v 0.8181035356232537 0.1746338396008727 0.3510789147758508
v 0.5620113641243514 0.21452238813277685 0.5768880507579779
v 0.7529256950753992 0.19574980788318047 0.2734300633736469
v 0.49683352357649685 0.23563835641508463 0.49923919935577404
v 0.6906587834586917 0.13950167224722676 0.21274867393069044
v 0.43456661195978935 0.17939022077913094 0.43855780991281756
v 0.6677773913689249 0.03883835638023671 0.20458057294212223
v 0.41168521987002255 0.07872690491214088 0.4303897089242493
v 0.6976853196911982 -0.04727209105092395 0.2537105916293397
v 0.44159314819229584 -0.007383542519019792 0.47951972761146683
v 0.7628631602390527 -0.06838805933323172 0.3313594430315436
v 0.6976853196911982 -0.04727209105092395 0.2537105916293397
v 0.7578944276572259 0.06368087427497438 0.30239475320259523
v 0.6677773913689249 0.03883835638023671 0.20458057294212223
v 0.6906587834586917 0.13950167224722676 0.21274867393069044
v 0.7529256950753992 0.19574980788318047 0.2734300633736469
v 0.8181035356232537 0.1746338396008727 0.3510789147758508
v 0.848011463945527 0.08852339216971204 0.40020893346306824
v 0.8251300718557601 -0.012139923697278024 0.39204083247450006
vt 0.46875 0.53125
vt 0.5625 0.53125
vt 0.5625 0.875
vt 0.46875 0.875
vt 0.5625 0
vt 0.65625 0
vt 0.65625 0.34375
vt 0.5625 0.34375
vt 0.65625 0
vt 0.75 0
vt 0.75 0.34375
vt 0.65625 0.34375
vt 0 0.53125
vt 0.09375 0.53125
vt 0.09375 0.875
vt 0 0.875
vt 0.09375 0.53125
vt 0.1875 0.53125
vt 0.1875 0.875
vt 0.09375 0.875
vt 0.1875 0.53125
vt 0.28125 0.53125
vt 0.28125 0.875
vt 0.1875 0.875
vt 0.28125 0.53125
vt 0.375 0.53125
vt 0.375 0.875
vt 0.28125 0.875
vt 0.375 0.53125
vt 0.46875 0.53125
vt 0.46875 0.875
vt 0.375 0.875
vt 0.46875 0.53125
vt 0.5625 0.53125
vt 0.515625 0.40625
vt 0.5625 0.53125
vt 0.65625 0.53125
vt 0.609375 0.40625
vt 0.65625 0.53125
vt 0.75 0.53125
vt 0.703125 0.40625
vt 0 0.53125
vt 0.09375 0.53125
vt 0.046875 0.40625
vt 0.09375 0.53125
vt 0.1875 0.53125
vt 0.140625 0.40625
vt 0.1875 0.53125
vt 0.28125 0.53125
vt 0.234375 0.40625
vt 0.28125 0.53125
vt 0.375 0.53125
vt 0.328125 0.40625
vt 0.375 0.53125
vt 0.46875 0.53125
vt 0.421875 0.40625
vt 0.5625 0.875
vt 0.5625 0.53125
vt 0.46875 0.53125
vt 0.46875 0.875
vt 0.65625 0.875
vt 0.65625 0.53125
vt 0.5625 0.53125
vt 0.5625 0.875
vt 0.75 0.875
vt 0.75 0.53125
vt 0.65625 0.53125
vt 0.65625 0.875
vt 0.09375 0.875
vt 0.09375 0.53125
vt 0 0.53125
vt 0 0.875
vt 0.1875 0.875
vt 0.1875 0.53125
vt 0.09375 0.53125
vt 0.09375 0.875
vt 0.28125 0.875
vt 0.28125 0.53125
vt 0.1875 0.53125
vt 0.1875 0.875
vt 0.375 0.875
vt 0.375 0.53125
vt 0.28125 0.53125
vt 0.28125 0.875
vt 0.46875 0.875
vt 0.46875 0.53125
vt 0.375 0.53125
vt 0.375 0.875
vt 0.5625 0.53125
vt 0.46875 0.53125
vt 0.515625 0.40625
vt 0.65625 0.53125
vt 0.5625 0.53125
vt 0.609375 0.40625
vt 0.75 0.53125
vt 0.65625 0.53125
vt 0.703125 0.40625
vt 0.09375 0.53125
vt 0 0.53125
vt 0.046875 0.40625
vt 0.1875 0.53125
vt 0.09375 0.53125
vt 0.140625 0.40625
vt 0.28125 0.53125
vt 0.1875 0.53125
vt 0.234375 0.40625
vt 0.375 0.53125
vt 0.28125 0.53125
vt 0.328125 0.40625
vt 0.46875 0.53125
vt 0.375 0.53125
vt 0.421875 0.40625
vn -0.28881721352264955 0.8315580809966988 -0.474442594106073
vn -0.6294107219473409 0.20391312031005865 -0.7498410381295111
vn -0.6013039657583209 -0.543181380708397 -0.5859927716406026
vn -0.22096150153680386 -0.9720875957364175 -0.07887788697722925
vn 0.28881721352264955 -0.8315580809966988 0.474442594106073
vn 0.6294107219473409 -0.20391312031005865 0.7498410381295111
vn 0.6013039657583209 0.543181380708397 0.5859927716406026
vn 0.22096150153680386 0.9720875957364175 0.07887788697722925
vn 0.7449954079968064 -0.11603941391099427 -0.6568993046752788
vn 0.7449954079968064 -0.11603941391099427 -0.6568993046752788
vn 0.7449954079968064 -0.11603941391099427 -0.6568993046752788
vn 0.7449954079968064 -0.11603941391099427 -0.6568993046752788
vn 0.7449954079968064 -0.11603941391099427 -0.6568993046752788
vn 0.7449954079968064 -0.11603941391099427 -0.6568993046752788
vn 0.7449954079968064 -0.11603941391099427 -0.6568993046752788
vn 0.7449954079968064 -0.11603941391099427 -0.6568993046752788
vn 0.28881721352264955 -0.8315580809966988 0.474442594106073
vn 0.6294107219473409 -0.20391312031005865 0.7498410381295111
vn 0.6013039657583209 0.543181380708397 0.5859927716406026
vn 0.22096150153680386 0.9720875957364175 0.07887788697722925
vn -0.28881721352264955 0.8315580809966988 -0.474442594106073
vn -0.6294107219473409 0.20391312031005865 -0.7498410381295111
vn -0.6013039657583209 -0.543181380708397 -0.5859927716406026
vn -0.22096150153680386 -0.9720875957364175 -0.07887788697722925
vn -0.7449954079968064 0.11603941391099427 0.6568993046752788
vn -0.7449954079968064 0.11603941391099427 0.6568993046752788
vn -0.7449954079968064 0.11603941391099427 0.6568993046752788
vn -0.7449954079968064 0.11603941391099427 0.6568993046752788
vn -0.7449954079968064 0.11603941391099427 0.6568993046752788
vn -0.7449954079968064 0.11603941391099427 0.6568993046752788
vn -0.7449954079968064 0.11603941391099427 0.6568993046752788
vn -0.7449954079968064 0.11603941391099427 0.6568993046752788
usemtl m_05db5eec-93aa-9956-b346-b578b34a5489
f 41/105/33 42/106/33 29/107/33 28/108/33
f 42/109/34 43/110/34 30/111/34 29/112/34
f 43/113/35 44/114/35 31/115/35 30/116/35
f 44/117/36 36/118/36 32/119/36 31/120/36
f 36/121/37 37/122/37 33/123/37 32/124/37
f 37/125/38 39/126/38 34/127/38 33/128/38
f 39/129/39 40/130/39 35/131/39 34/132/39
f 40/133/40 41/134/40 28/135/40 35/136/40
f 42/137/41 41/138/41 38/139/41
f 43/140/42 42/141/42 38/142/42
f 44/143/43 43/144/43 38/145/43
f 36/146/44 44/147/44 38/148/44
f 37/149/45 36/150/45 38/151/45
f 39/152/46 37/153/46 38/154/46
f 40/155/47 39/156/47 38/157/47
f 41/158/48 40/159/48 38/160/48
f 56/161/49 55/162/49 53/163/49 54/164/49
f 58/165/50 57/166/50 55/167/50 56/168/50
f 60/169/51 59/170/51 57/171/51 58/172/51
f 48/173/52 45/174/52 59/175/52 60/176/52
f 47/177/53 46/178/53 45/179/53 48/180/53
f 50/181/54 49/182/54 46/183/54 47/184/54
f 52/185/55 51/186/55 49/187/55 50/188/55
f 54/189/56 53/190/56 51/191/56 52/192/56
f 66/193/57 65/194/57 63/195/57
f 65/196/58 64/197/58 63/198/58
f 64/199/59 62/200/59 63/201/59
f 62/202/60 61/203/60 63/204/60
f 61/205/61 69/206/61 63/207/61
f 69/208/62 68/209/62 63/210/62
f 68/211/63 67/212/63 63/213/63
f 67/214/64 66/215/64 63/216/64