# Made in Blockbench 4.12.6
mtllib metal_cans_debris.mtl

o can_2
v 0.75 0.34375 0.6875
v 0.7382080723787354 0.34375 0.8222842543761715
v 0.836968453918384 0.34375 0.7911452256874939
v 0.8847842543761715 0.34375 0.6992919276212646
v 0.8536452256874939 0.34375 0.600531546081616
v 0.7617919276212646 0.34375 0.5527157456238285
v 0.663031546081616 0.34375 0.5838547743125061
v 0.6152157456238285 0.34375 0.6757080723787354
v 0.6463547743125061 0.34375 0.774468453918384
v 0.7617919276212646 0 0.5527157456238285
v 0.663031546081616 0 0.5838547743125061
v 0.75 0 0.6875
v 0.6152157456238285 0 0.6757080723787354
v 0.6463547743125061 0 0.774468453918384
v 0.7382080723787354 0 0.8222842543761715
v 0.836968453918384 0 0.7911452256874939
v 0.8847842543761715 0 0.6992919276212646
v 0.8536452256874939 0 0.600531546081616
vt 0.46875 0.53125
vt 0.5625 0.53125
vt 0.5625 0.875
vt 0.46875 0.875
vt 0.5625 0.875
vt 0.46875 0.875
vt 0.515625 1
vt 0.5625 0.53125
vt 0.65625 0.53125
vt 0.65625 0.875
vt 0.5625 0.875
vt 0.65625 0.875
vt 0.5625 0.875
vt 0.609375 1
vt 0.65625 0.53125
vt 0.75 0.53125
vt 0.75 0.875
vt 0.65625 0.875
vt 0.75 0.875
vt 0.65625 0.875
vt 0.703125 1
vt 0 0.53125
vt 0.09375 0.53125
vt 0.09375 0.875
vt 0 0.875
vt 0.09375 0.875
vt 0 0.875
vt 0.046875 1
vt 0.09375 0.53125
vt 0.1875 0.53125
vt 0.1875 0.875
vt 0.09375 0.875
vt 0.1875 0.875
vt 0.09375 0.875
vt 0.140625 1
vt 0.1875 0.53125
vt 0.28125 0.53125
vt 0.28125 0.875
vt 0.1875 0.875
vt 0.28125 0.875
vt 0.1875 0.875
vt 0.234375 1
vt 0.28125 0.53125
vt 0.375 0.53125
vt 0.375 0.875
vt 0.28125 0.875
vt 0.375 0.875
vt 0.28125 0.875
vt 0.328125 1
vt 0.375 0.53125
vt 0.46875 0.53125
vt 0.46875 0.875
vt 0.375 0.875
vt 0.46875 0.875
vt 0.375 0.875
vt 0.421875 1
vt 0.46875 0.53125
vt 0.5625 0.53125
vt 0.515625 0.40625
vt 0.5625 0.53125
vt 0.65625 0.53125
vt 0.609375 0.40625
vt 0.65625 0.53125
vt 0.75 0.53125
vt 0.703125 0.40625
vt 0 0.53125
vt 0.09375 0.53125
vt 0.046875 0.40625
vt 0.09375 0.53125
vt 0.1875 0.53125
vt 0.140625 0.40625
vt 0.1875 0.53125
vt 0.28125 0.53125
vt 0.234375 0.40625
vt 0.28125 0.53125
vt 0.375 0.53125
vt 0.328125 0.40625
vt 0.375 0.53125
vt 0.46875 0.53125
vt 0.421875 0.40625
vn 0.3007057995042731 0 0.9537169507482269
vn 0 1 0
vn 0.8870108331782217 0 0.4617486132350339
vn 0 1 0
vn 0.9537169507482269 0 -0.3007057995042731
vn 0 1 0
vn 0.4617486132350339 0 -0.8870108331782217
vn 0 1 0
vn -0.3007057995042731 0 -0.9537169507482269
vn 0 1 0
vn -0.8870108331782217 0 -0.4617486132350339
vn 0 1 0
vn -0.9537169507482269 0 0.3007057995042731
vn 0 1 0
vn -0.4617486132350339 0 0.8870108331782217
vn 0 1 0
vn 0 -1 0
vn 0 -1 0
vn 0 -1 0
vn 0 -1 0
vn 0 -1 0
vn 0 -1 0
vn 0 -1 0
vn 0 -1 0
usemtl m_576f9ee6-af02-f947-af13-1796e4a8bebf
f 15/1/1 16/2/1 3/3/1 2/4/1
f 2/5/2 3/6/2 1/7/2
f 16/8/3 17/9/3 4/10/3 3/11/3
f 3/12/4 4/13/4 1/14/4
f 17/15/5 18/16/5 5/17/5 4/18/5
f 4/19/6 5/20/6 1/21/6
f 18/22/7 10/23/7 6/24/7 5/25/7
f 5/26/8 6/27/8 1/28/8
f 10/29/9 11/30/9 7/31/9 6/32/9
f 6/33/10 7/34/10 1/35/10
f 11/36/11 13/37/11 8/38/11 7/39/11
f 7/40/12 8/41/12 1/42/12
f 13/43/13 14/44/13 9/45/13 8/46/13
f 8/47/14 9/48/14 1/49/14
f 14/50/15 15/51/15 2/52/15 9/53/15
f 9/54/16 2/55/16 1/56/16
f 16/57/17 15/58/17 12/59/17
f 17/60/18 16/61/18 12/62/18
f 18/63/19 17/64/19 12/65/19
f 10/66/20 18/67/20 12/68/20
f 11/69/21 10/70/21 12/71/21
f 13/72/22 11/73/22 12/74/22
f 14/75/23 13/76/23 12/77/23
f 15/78/24 14/79/24 12/80/24
o can_3
v 0.1840497600590782 0.0019332679882083648 0.19945681024011988
v 0.24484423557953033 -0.11450045363466782 0.16700584723429607
v 0.27799308176309806 -0.035088821872145834 0.10940203827132014
v 0.25611123183848233 0.06601029102912892 0.10455094009519625
v 0.19201696007136254 0.12957354875847285 0.15529430087280777
v 0.12325528453862605 0.11836698961108455 0.2319077732459437
v 0.09010643835505835 0.03895535784856256 0.28951158220891965
v 0.11198828827967408 -0.062143755052712205 0.2943626803850435
v 0.1760825600467939 -0.12570701278205612 0.243619319607432
v -0.12329447552045214 0.053933721622876185 0.0012009630058237991
v -0.15644332170401984 -0.0254779101396458 0.05880477196879974
v -0.0625 -0.0625 -0.03125
v -0.1345614717794041 -0.12657702304092056 0.06365587014492363
v -0.07046720001228432 -0.19014028077026449 0.012912509367312128
v -0.0017055244795478666 -0.17893372162287619 -0.0637009630058238
v 0.03144332170401984 -0.0995220898603542 -0.12130477196879974
v 0.009561471779404113 0.0015770230409205693 -0.12615587014492363
v -0.05453279998771569 0.06514028077026449 -0.07541250936731213
vt 0.46875 0.53125
vt 0.5625 0.53125
vt 0.5625 0.875
vt 0.46875 0.875
vt 0.5625 0.875
vt 0.46875 0.875
vt 0.515625 1
vt 0.5625 0.53125
vt 0.65625 0.53125
vt 0.65625 0.875
vt 0.5625 0.875
vt 0.65625 0.875
vt 0.5625 0.875
vt 0.609375 1
vt 0.65625 0.53125
vt 0.75 0.53125
vt 0.75 0.875
vt 0.65625 0.875
vt 0.75 0.875
vt 0.65625 0.875
vt 0.703125 1
vt 0 0.53125
vt 0.09375 0.53125
vt 0.09375 0.875
vt 0 0.875
vt 0.09375 0.875
vt 0 0.875
vt 0.046875 1
vt 0.09375 0.53125
vt 0.1875 0.53125
vt 0.1875 0.875
vt 0.09375 0.875
vt 0.1875 0.875
vt 0.09375 0.875
vt 0.140625 1
vt 0.1875 0.53125
vt 0.28125 0.53125
vt 0.28125 0.875
vt 0.1875 0.875
vt 0.28125 0.875
vt 0.1875 0.875
vt 0.234375 1
vt 0.28125 0.53125
vt 0.375 0.53125
vt 0.375 0.875
vt 0.28125 0.875
vt 0.375 0.875
vt 0.28125 0.875
vt 0.328125 1
vt 0.375 0.53125
vt 0.46875 0.53125
vt 0.46875 0.875
vt 0.375 0.875
vt 0.46875 0.875
vt 0.375 0.875
vt 0.421875 1
vt 0.46875 0.53125
vt 0.5625 0.53125
vt 0.515625 0.40625
vt 0.5625 0.53125
vt 0.65625 0.53125
vt 0.609375 0.40625
vt 0.65625 0.53125
vt 0.75 0.53125
vt 0.703125 0.40625
vt 0 0.53125
vt 0.09375 0.53125
vt 0.046875 0.40625
vt 0.09375 0.53125
vt 0.1875 0.53125
vt 0.140625 0.40625
vt 0.1875 0.53125
vt 0.28125 0.53125
vt 0.234375 0.40625
vt 0.28125 0.53125
vt 0.375 0.53125
vt 0.328125 0.40625
vt 0.375 0.53125
vt 0.46875 0.53125
vt 0.421875 0.40625
vn 0.6189505597001478 -0.6138226219480162 -0.4900224417633716
vn 0.7172356656264093 0.18744223414751532 0.6711470843348942
vn 0.6640191739336958 0.10821973272226548 -0.7398425684548935
vn 0.7172356656264093 0.18744223414751532 0.6711470843348942
vn 0.3201143617526639 0.7668684356802353 -0.5562729525664837
vn 0.7172356656264093 0.18744223414751532 0.6711470843348942
vn -0.21130910203267125 0.9762960095725628 -0.04684618544595327
vn 0.7172356656264093 0.18744223414751532 0.6711470843348942
vn -0.6189505597001478 0.6138226219480162 0.4900224417633716
vn 0.7172356656264093 0.18744223414751532 0.6711470843348942
vn -0.6640191739336958 -0.10821973272226548 0.7398425684548935
vn 0.7172356656264093 0.18744223414751532 0.6711470843348942
vn -0.3201143617526639 -0.7668684356802353 0.5562729525664837
vn 0.7172356656264093 0.18744223414751532 0.6711470843348942
vn 0.21130910203267125 -0.9762960095725628 0.04684618544595327
vn 0.7172356656264093 0.18744223414751532 0.6711470843348942
vn -0.7172356656264093 -0.18744223414751532 -0.6711470843348942
vn -0.7172356656264093 -0.18744223414751532 -0.6711470843348942
vn -0.7172356656264093 -0.18744223414751532 -0.6711470843348942
vn -0.7172356656264093 -0.18744223414751532 -0.6711470843348942
vn -0.7172356656264093 -0.18744223414751532 -0.6711470843348942
vn -0.7172356656264093 -0.18744223414751532 -0.6711470843348942
vn -0.7172356656264093 -0.18744223414751532 -0.6711470843348942
vn -0.7172356656264093 -0.18744223414751532 -0.6711470843348942
usemtl m_a41d7dec-7c8e-9aec-d61e-9f85fb4a4562
f 33/81/25 34/82/25 21/83/25 20/84/25
f 20/85/26 21/86/26 19/87/26
f 34/88/27 35/89/27 22/90/27 21/91/27
f 21/92/28 22/93/28 19/94/28
f 35/95/29 36/96/29 23/97/29 22/98/29
f 22/99/30 23/100/30 19/101/30
f 36/102/31 28/103/31 24/104/31 23/105/31
f 23/106/32 24/107/32 19/108/32
f 28/109/33 29/110/33 25/111/33 24/112/33
f 24/113/34 25/114/34 19/115/34
f 29/116/35 31/117/35 26/118/35 25/119/35
f 25/120/36 26/121/36 19/122/36
f 31/123/37 32/124/37 27/125/37 26/126/37
f 26/127/38 27/128/38 19/129/38
f 32/130/39 33/131/39 20/132/39 27/133/39
f 27/134/40 20/135/40 19/136/40
f 34/137/41 33/138/41 30/139/41
f 35/140/42 34/141/42 30/142/42
f 36/143/43 35/144/43 30/145/43
f 28/146/44 36/147/44 30/148/44
f 29/149/45 28/150/45 30/151/45
f 31/152/46 29/153/46 30/154/46
f 32/155/47 31/156/47 30/157/47
f 33/158/48 32/159/48 30/160/48
o can_1
v 0.46048240324870704 0.07567841631034002 0.6784148006585173
v 0.48997568296992067 -0.05617469532936668 0.6712910244844009
v 0.3968277139006251 -0.03420982301600811 0.6317403947542101
v 0.34096743284924413 0.05212635533937985 0.6195308719580537
v 0.35511750291516414 0.15225855396239718 0.6418147312643185
v 0.43098912352749347 0.20753152795004673 0.6855385768326338
v 0.524137092596789 0.18556665563668814 0.7250892065628246
v 0.57999737364817 0.09923047728130019 0.737298729358981
v 0.56584730358225 -0.0009017213417171349 0.7150148700527161
v 0.2883455670300792 0.1589321953293667 0.994496475515599
v 0.38149353609937475 0.1369673230160081 1.0340471052457898
v 0.3178388467512928 0.027079083689659986 0.9873726993414826
v 0.4373538171507557 0.05063114466062015 1.0462566280419463
v 0.4232037470848357 -0.049501053962397165 1.0239727687356814
v 0.3473321264725064 -0.10477402795004673 0.9802489231673662
v 0.2541841574032109 -0.08280915563668814 0.9406982934371754
v 0.1983238763518299 0.0035270227186998196 0.928488770641019
v 0.21247394641774991 0.10365922134171714 0.9507726299472838
vt 0.46875 0.53125
vt 0.5625 0.53125
vt 0.5625 0.875
vt 0.46875 0.875
vt 0.5625 0.875
vt 0.46875 0.875
vt 0.515625 1
vt 0.5625 0.53125
vt 0.65625 0.53125
vt 0.65625 0.875
vt 0.5625 0.875
vt 0.65625 0.875
vt 0.5625 0.875
vt 0.609375 1
vt 0.65625 0.53125
vt 0.75 0.53125
vt 0.75 0.875
vt 0.65625 0.875
vt 0.75 0.875
vt 0.65625 0.875
vt 0.703125 1
vt 0 0.53125
vt 0.09375 0.53125
vt 0.09375 0.875
vt 0 0.875
vt 0.09375 0.875
vt 0 0.875
vt 0.046875 1
vt 0.09375 0.53125
vt 0.1875 0.53125
vt 0.1875 0.875
vt 0.09375 0.875
vt 0.1875 0.875
vt 0.09375 0.875
vt 0.140625 1
vt 0.1875 0.53125
vt 0.28125 0.53125
vt 0.28125 0.875
vt 0.1875 0.875
vt 0.28125 0.875
vt 0.1875 0.875
vt 0.234375 1
vt 0.28125 0.53125
vt 0.375 0.53125
vt 0.375 0.875
vt 0.28125 0.875
vt 0.375 0.875
vt 0.28125 0.875
vt 0.328125 1
vt 0.375 0.53125
vt 0.46875 0.53125
vt 0.46875 0.875
vt 0.375 0.875
vt 0.46875 0.875
vt 0.375 0.875
vt 0.421875 1
vt 0.46875 0.53125
vt 0.5625 0.53125
vt 0.515625 0.40625
vt 0.5625 0.53125
vt 0.65625 0.53125
vt 0.609375 0.40625
vt 0.65625 0.53125
vt 0.75 0.53125
vt 0.703125 0.40625
vt 0 0.53125
vt 0.09375 0.53125
vt 0.046875 0.40625
vt 0.09375 0.53125
vt 0.1875 0.53125
vt 0.140625 0.40625
vt 0.1875 0.53125
vt 0.28125 0.53125
vt 0.234375 0.40625
vt 0.28125 0.53125
vt 0.375 0.53125
vt 0.328125 0.40625
vt 0.375 0.53125
vt 0.46875 0.53125
vt 0.421875 0.40625
vn -0.1366454995997074 -0.9669644208909935 -0.21519250955851563
vn 0.4149630734470235 0.14137987671470542 -0.8987866143504446
vn -0.7326786389901797 -0.5337612011892333 -0.42223333841908406
vn 0.4149630734470235 0.14137987671470542 -0.8987866143504446
vn -0.8995185685212654 0.21211209110062554 -0.38193560411982186
vn 0.4149630734470235 0.14137987671470542 -0.8987866143504446
vn -0.5394327202190263 0.8337329971670555 -0.11790517288032941
vn 0.4149630734470235 0.14137987671470542 -0.8987866143504446
vn 0.1366454995997074 0.9669644208909935 0.21519250955851563
vn 0.4149630734470235 0.14137987671470542 -0.8987866143504446
vn 0.7326786389901797 0.5337612011892333 0.42223333841908406
vn 0.4149630734470235 0.14137987671470542 -0.8987866143504446
vn 0.8995185685212654 -0.21211209110062554 0.38193560411982186
vn 0.4149630734470235 0.14137987671470542 -0.8987866143504446
vn 0.5394327202190263 -0.8337329971670555 0.11790517288032941
vn 0.4149630734470235 0.14137987671470542 -0.8987866143504446
vn -0.4149630734470235 -0.14137987671470542 0.8987866143504446
vn -0.4149630734470235 -0.14137987671470542 0.8987866143504446
vn -0.4149630734470235 -0.14137987671470542 0.8987866143504446
vn -0.4149630734470235 -0.14137987671470542 0.8987866143504446
vn -0.4149630734470235 -0.14137987671470542 0.8987866143504446
vn -0.4149630734470235 -0.14137987671470542 0.8987866143504446
vn -0.4149630734470235 -0.14137987671470542 0.8987866143504446
vn -0.4149630734470235 -0.14137987671470542 0.8987866143504446
usemtl m_05db5eec-93aa-9956-b346-b578b34a5489
f 51/161/49 52/162/49 39/163/49 38/164/49
f 38/165/50 39/166/50 37/167/50
f 52/168/51 53/169/51 40/170/51 39/171/51
f 39/172/52 40/173/52 37/174/52
f 53/175/53 54/176/53 41/177/53 40/178/53
f 40/179/54 41/180/54 37/181/54
f 54/182/55 46/183/55 42/184/55 41/185/55
f 41/186/56 42/187/56 37/188/56
f 46/189/57 47/190/57 43/191/57 42/192/57
f 42/193/58 43/194/58 37/195/58
f 47/196/59 49/197/59 44/198/59 43/199/59
f 43/200/60 44/201/60 37/202/60
f 49/203/61 50/204/61 45/205/61 44/206/61
f 44/207/62 45/208/62 37/209/62
f 50/210/63 51/211/63 38/212/63 45/213/63
f 45/214/64 38/215/64 37/216/64
f 52/217/65 51/218/65 48/219/65
f 53/220/66 52/221/66 48/222/66
f 54/223/67 53/224/67 48/225/67
f 46/226/68 54/227/68 48/228/68
f 47/229/69 46/230/69 48/231/69
f 49/232/70 47/233/70 48/234/70
f 50/235/71 49/236/71 48/237/71
f 51/238/72 50/239/72 48/240/72
o can_5_lid
v 1.1019461238239023 0.14513461016398557 0.4757911143881961
v 1.0794235392034754 0.13864155803404532 0.5766564975758133
v 1.0134206136973691 0.08263067960114294 0.6334876022709758
v 0.942601518954194 0.009912857130168908 0.6129930619158389
v 0.9084505267975254 -0.03691540451328614 0.5271781285695396
v 0.9309731114179524 -0.030422352383345886 0.42631274538192254
v 0.9969760369240586 0.025588526049556484 0.36948164068676
v 1.0677951316672336 0.09830634852053052 0.3899761810418969
v 1.0051983253107137 0.05410960282534971 0.5014846214788679
vt 0.5625 0.875
vt 0.46875 0.875
vt 0.515625 1
vt 0.65625 0.875
vt 0.5625 0.875
vt 0.609375 1
vt 0.75 0.875
vt 0.65625 0.875
vt 0.703125 1
vt 0.09375 0.875
vt 0 0.875
vt 0.046875 1
vt 0.1875 0.875
vt 0.09375 0.875
vt 0.140625 1
vt 0.28125 0.875
vt 0.1875 0.875
vt 0.234375 1
vt 0.375 0.875
vt 0.28125 0.875
vt 0.328125 1
vt 0.46875 0.875
vt 0.375 0.875
vt 0.421875 1
vn 0.696410295923914 -0.7091864574632051 0.10985111871053649
vn 0.696410295923914 -0.7091864574632051 0.10985111871053649
vn 0.696410295923914 -0.7091864574632051 0.10985111871053649
vn 0.696410295923914 -0.7091864574632051 0.10985111871053649
vn 0.696410295923914 -0.7091864574632051 0.10985111871053649
vn 0.696410295923914 -0.7091864574632051 0.10985111871053649
vn 0.696410295923914 -0.7091864574632051 0.10985111871053649
vn 0.696410295923914 -0.7091864574632051 0.10985111871053649
usemtl m_b522ed66-0252-f3ef-0971-30066132a114
f 55/241/73 56/242/73 63/243/73
f 56/244/74 57/245/74 63/246/74
f 57/247/75 58/248/75 63/249/75
f 58/250/76 59/251/76 63/252/76
f 59/253/77 60/254/77 63/255/77
f 60/256/78 61/257/78 63/258/78
f 61/259/79 62/260/79 63/261/79
f 62/262/80 55/263/80 63/264/80
o can_5
v 0.8721808773289463 0.23563838156553432 0.4275785405768392
v 0.803891165160098 0.179390239445078 0.48139223576146706
v 0.7928063344911307 0.07872692329384301 0.503011728113031
v 0.8454198216719389 -0.007383518054795729 0.47977243107226775
v 0.9309118003306927 -0.02849947745082257 0.425287414940683
v 0.999201512499541 0.02774866466963375 0.3714737197560551
v 1.0102863431685083 0.12841198082086877 0.3498542274044911
v 0.9576728559877001 0.21452242216950748 0.37309352444525445
v 0.7404612636176254 -0.06838806991488622 0.14191212357437388
v 0.8087509757864739 -0.012139927794429906 0.088098428389746
v 0.7110958021167524 0.06368085959329223 0.143057686392452
v 0.8198358064554412 0.08852338835680511 0.06647893603818207
v 0.767222319274633 0.17463382970544383 0.08971823307894533
v 0.6817303406158793 0.19574978910147067 0.14420324921053013
v 0.6134406284470308 0.13950164698101436 0.198016944395158
v 0.6023557977780636 0.03883833082977935 0.21963643674672195
v 0.6549692849588717 -0.04727211051885938 0.19639713970595868
v 0.7404612636176254 -0.06838806991488622 0.14191212357437388
v 0.8087509757864739 -0.012139927794429906 0.088098428389746
v 0.999201512499541 0.02774866466963375 0.3714737197560551
v 0.9309118003306927 -0.02849947745082257 0.425287414940683
v 0.8198358064554412 0.08852338835680511 0.06647893603818207
v 1.0102863431685083 0.12841198082086877 0.3498542274044911
v 0.767222319274633 0.17463382970544383 0.08971823307894533
v 0.9576728559877001 0.21452242216950748 0.37309352444525445
v 0.6817303406158793 0.19574978910147067 0.14420324921053013
v 0.8721808773289463 0.23563838156553432 0.4275785405768392
v 0.6134406284470308 0.13950164698101436 0.198016944395158
v 0.803891165160098 0.179390239445078 0.48139223576146706
v 0.6023557977780636 0.03883833082977935 0.21963643674672195
v 0.7928063344911307 0.07872692329384301 0.503011728113031
v 0.6549692849588717 -0.04727211051885938 0.19639713970595868
v 0.8454198216719389 -0.007383518054795729 0.47977243107226775
v 0.7404612636176254 -0.06838806991488622 0.14191212357437388
v 0.6549692849588717 -0.04727211051885938 0.19639713970595868
v 0.7110958021167524 0.06368085959329223 0.143057686392452
v 0.6023557977780636 0.03883833082977935 0.21963643674672195
v 0.6134406284470308 0.13950164698101436 0.198016944395158
v 0.6817303406158793 0.19574978910147067 0.14420324921053013
v 0.767222319274633 0.17463382970544383 0.08971823307894533
v 0.8198358064554412 0.08852338835680511 0.06647893603818207
v 0.8087509757864739 -0.012139927794429906 0.088098428389746
vt 0.46875 0.53125
vt 0.5625 0.53125
vt 0.5625 0.875
vt 0.46875 0.875
vt 0.5625 0
vt 0.65625 0
vt 0.65625 0.34375
vt 0.5625 0.34375
vt 0.65625 0
vt 0.75 0
vt 0.75 0.34375
vt 0.65625 0.34375
vt 0 0.53125
vt 0.09375 0.53125
vt 0.09375 0.875
vt 0 0.875
vt 0.09375 0.53125
vt 0.1875 0.53125
vt 0.1875 0.875
vt 0.09375 0.875
vt 0.1875 0.53125
vt 0.28125 0.53125
vt 0.28125 0.875
vt 0.1875 0.875
vt 0.28125 0.53125
vt 0.375 0.53125
vt 0.375 0.875
vt 0.28125 0.875
vt 0.375 0.53125
vt 0.46875 0.53125
vt 0.46875 0.875
vt 0.375 0.875
vt 0.46875 0.53125
vt 0.5625 0.53125
vt 0.515625 0.40625
vt 0.5625 0.53125
vt 0.65625 0.53125
vt 0.609375 0.40625
vt 0.65625 0.53125
vt 0.75 0.53125
vt 0.703125 0.40625
vt 0 0.53125
vt 0.09375 0.53125
vt 0.046875 0.40625
vt 0.09375 0.53125
vt 0.1875 0.53125
vt 0.140625 0.40625
vt 0.1875 0.53125
vt 0.28125 0.53125
vt 0.234375 0.40625
vt 0.28125 0.53125
vt 0.375 0.53125
vt 0.328125 0.40625
vt 0.375 0.53125
vt 0.46875 0.53125
vt 0.421875 0.40625
vt 0.5625 0.875
vt 0.5625 0.53125
vt 0.46875 0.53125
vt 0.46875 0.875
vt 0.65625 0.875
vt 0.65625 0.53125
vt 0.5625 0.53125
vt 0.5625 0.875
vt 0.75 0.875
vt 0.75 0.53125
vt 0.65625 0.53125
vt 0.65625 0.875
vt 0.09375 0.875
vt 0.09375 0.53125
vt 0 0.53125
vt 0 0.875
vt 0.1875 0.875
vt 0.1875 0.53125
vt 0.09375 0.53125
vt 0.09375 0.875
vt 0.28125 0.875
vt 0.28125 0.53125
vt 0.1875 0.53125
vt 0.1875 0.875
vt 0.375 0.875
vt 0.375 0.53125
vt 0.28125 0.53125
vt 0.28125 0.875
vt 0.46875 0.875
vt 0.46875 0.53125
vt 0.375 0.53125
vt 0.375 0.875
vt 0.5625 0.53125
vt 0.46875 0.53125
vt 0.515625 0.40625
vt 0.65625 0.53125
vt 0.5625 0.53125
vt 0.609375 0.40625
vt 0.75 0.53125
vt 0.65625 0.53125
vt 0.703125 0.40625
vt 0.09375 0.53125
vt 0 0.53125
vt 0.046875 0.40625
vt 0.1875 0.53125
vt 0.09375 0.53125
vt 0.140625 0.40625
vt 0.28125 0.53125
vt 0.1875 0.53125
vt 0.234375 0.40625
vt 0.375 0.53125
vt 0.28125 0.53125
vt 0.328125 0.40625
vt 0.46875 0.53125
vt 0.375 0.53125
vt 0.421875 0.40625
vn -0.5080820241886835 0.8315580222585273 0.22441905514865945
vn -0.8255807120336413 0.20391303449683704 0.5261520334279036
vn -0.6594654156029286 -0.5431814433284475 0.519672286395264
vn -0.10704422262803016 -0.9720875984813202 0.20877556198171396
vn 0.5080820241886835 -0.8315580222585273 -0.22441905514865945
vn 0.8255807120336413 -0.20391303449683704 -0.5261520334279036
vn 0.6594654156029286 0.5431814433284475 -0.519672286395264
vn 0.10704422262803016 0.9720875984813202 -0.20877556198171396
vn -0.5540379249834679 -0.11603954171364 -0.8243644839747172
vn -0.5540379249834679 -0.11603954171364 -0.8243644839747172
vn -0.5540379249834679 -0.11603954171364 -0.8243644839747172
vn -0.5540379249834679 -0.11603954171364 -0.8243644839747172
vn -0.5540379249834679 -0.11603954171364 -0.8243644839747172
vn -0.5540379249834679 -0.11603954171364 -0.8243644839747172
vn -0.5540379249834679 -0.11603954171364 -0.8243644839747172
vn -0.5540379249834679 -0.11603954171364 -0.8243644839747172
vn 0.5080820241886835 -0.8315580222585273 -0.22441905514865945
vn 0.8255807120336413 -0.20391303449683704 -0.5261520334279036
vn 0.6594654156029286 0.5431814433284475 -0.519672286395264
vn 0.10704422262803016 0.9720875984813202 -0.20877556198171396
vn -0.5080820241886835 0.8315580222585273 0.22441905514865945
vn -0.8255807120336413 0.20391303449683704 0.5261520334279036
vn -0.6594654156029286 -0.5431814433284475 0.519672286395264
vn -0.10704422262803016 -0.9720875984813202 0.20877556198171396
vn 0.5540379249834679 0.11603954171364 0.8243644839747172
vn 0.5540379249834679 0.11603954171364 0.8243644839747172
vn 0.5540379249834679 0.11603954171364 0.8243644839747172
vn 0.5540379249834679 0.11603954171364 0.8243644839747172
vn 0.5540379249834679 0.11603954171364 0.8243644839747172
vn 0.5540379249834679 0.11603954171364 0.8243644839747172
vn 0.5540379249834679 0.11603954171364 0.8243644839747172
vn 0.5540379249834679 0.11603954171364 0.8243644839747172
usemtl m_05db5eec-93aa-9956-b346-b578b34a5489
f 77/265/81 78/266/81 65/267/81 64/268/81
f 78/269/82 79/270/82 66/271/82 65/272/82
f 79/273/83 80/274/83 67/275/83 66/276/83
f 80/277/84 72/278/84 68/279/84 67/280/84
f 72/281/85 73/282/85 69/283/85 68/284/85
f 73/285/86 75/286/86 70/287/86 69/288/86
f 75/289/87 76/290/87 71/291/87 70/292/87
f 76/293/88 77/294/88 64/295/88 71/296/88
f 78/297/89 77/298/89 74/299/89
f 79/300/90 78/301/90 74/302/90
f 80/303/91 79/304/91 74/305/91
f 72/306/92 80/307/92 74/308/92
f 73/309/93 72/310/93 74/311/93
f 75/312/94 73/313/94 74/314/94
f 76/315/95 75/316/95 74/317/95
f 77/318/96 76/319/96 74/320/96
f 92/321/97 91/322/97 89/323/97 90/324/97
f 94/325/98 93/326/98 91/327/98 92/328/98
f 96/329/99 95/330/99 93/331/99 94/332/99
f 84/333/100 81/334/100 95/335/100 96/336/100
f 83/337/101 82/338/101 81/339/101 84/340/101
f 86/341/102 85/342/102 82/343/102 83/344/102
f 88/345/103 87/346/103 85/347/103 86/348/103
f 90/349/104 89/350/104 87/351/104 88/352/104
f 102/353/105 101/354/105 99/355/105
f 101/356/106 100/357/106 99/358/106
f 100/359/107 98/360/107 99/361/107
f 98/362/108 97/363/108 99/364/108
f 97/365/109 105/366/109 99/367/109
f 105/368/110 104/369/110 99/370/110
f 104/371/111 103/372/111 99/373/111
f 103/374/112 102/375/112 99/376/112