# Made in Blockbench 5.0.7
mtllib spiral_staircase.mtl

o step2
v 3.7534861071770754e-18 0.4375 1
v -3.7534861071770754e-18 0.5 1
v 0.7071040577192391 0.43750000000000017 0.29289610525604837
v 0.7071040577192391 0.5000000000000001 0.29289610525604837
v 0.3826817172529135 0.4375000000000001 0.07612423569518023
v 0.3826817172529135 0.5000000000000001 0.07612423569518023
vt 0.4375015625 0.75
vt 0.4755609375 0.558659375
vt 0.9374984375 0.75
vt 0.6875 0.875
vt 0.875 0.875
vt 0.875 0.90625
vt 0.6875 0.90625
vt 0.4375015625 0.75
vt 0.4755609375 0.558659375
vt 0.9374984375 0.75
vt 0.90625 0.875
vt 0.90625 0.90625
vt 0.40625 0.90625
vt 0.40625 0.875
vt 0.90625 0.90625
vt 0.90625 0.875
vt 0.40625 0.875
vt 0.40625 0.90625
vn 1.201115554296664e-16 -1 -9.857300607457185e-17
vn 0.5555698644689657 1.4869084398988356e-16 -0.8314698585600896
vn -1.201115554296664e-16 1 9.857300607457185e-17
vn -0.9238795870541676 -7.324637090754688e-17 -0.3826833006869006
vn 0.7071066996985759 1.523003648574805e-17 0.7071068626745097
usemtl m_3efeb77a-4c96-42d6-830e-2aab4c373d52
f 5/1/1 3/2/1 1/3/1
f 3/4/2 5/5/2 6/6/2 4/7/2
f 4/8/3 6/9/3 2/10/3
f 1/11/4 2/12/4 6/13/4 5/14/4
f 2/15/5 1/16/5 3/17/5 4/18/5
o beam
v -0.08838834764831822 0.9375 1.0000000000000002
v 2.914335439641036e-16 0.9375 1.0883883476483185
v -0.08838834764831842 1.8478493197614622e-17 1
v 9.71445146547012e-17 -7.654042494670968e-18 1.0883883476483185
v 0.08838834764831861 0.9375 1
v 9.71445146547012e-17 0.9375 0.9116116523516816
v 0.08838834764831842 -1.8478493197614622e-17 0.9999999999999999
v -9.71445146547012e-17 7.654042494670968e-18 0.9116116523516816
vt 0.21875 0.78125
vt 0.21875 0.84375
vt 0.6875 0.84375
vt 0.6875 0.78125
vt 0.21875 0.78125
vt 0.21875 0.84375
vt 0.6875 0.84375
vt 0.6875 0.78125
vt 0.21875 0.78125
vt 0.21875 0.84375
vt 0.6875 0.84375
vt 0.6875 0.78125
vt 0.21875 0.78125
vt 0.21875 0.84375
vt 0.6875 0.84375
vt 0.6875 0.78125
vt 0.3125 0.28125
vt 0.25 0.28125
vt 0.25 0.34375
vt 0.3125 0.34375
vt 0.40625 0.34375
vt 0.34375 0.34375
vt 0.34375 0.28125
vt 0.40625 0.28125
vn 0.7071067811865483 -2.0906028553828475e-16 0.7071067811865468
vn -0.7071067811865468 8.659560562354922e-17 0.7071067811865483
vn -0.7071067811865483 2.0906028553828475e-16 -0.7071067811865468
vn 0.7071067811865468 -8.659560562354922e-17 -0.7071067811865483
vn 2.090602855382848e-16 1 8.659560562354924e-17
vn -2.090602855382848e-16 -1 -8.659560562354924e-17
usemtl m_3efeb77a-4c96-42d6-830e-2aab4c373d52
f 10/22/6 13/21/6 11/20/6 8/19/6
f 9/26/7 10/25/7 8/24/7 7/23/7
f 14/30/8 9/29/8 7/28/8 12/27/8
f 13/34/9 14/33/9 12/32/9 11/31/9
f 12/38/10 7/37/10 8/36/10 11/35/10
f 13/42/11 10/41/11 9/40/11 14/39/11
o joint1
v -0.13258252147247762 0.250625 1.0000000000000002
v 1.6653345369377348e-16 0.250625 1.1325825214724776
v -0.13258252147247762 0.18812500000000001 1.0000000000000002
v 1.5265566588595902e-16 0.188125 1.1325825214724776
v 0.13258252147247765 0.250625 0.9999999999999999
v -1.3877787807814457e-16 0.250625 0.8674174785275224
v 0.13258252147247762 0.18812499999999996 0.9999999999999999
v -1.5265566588595902e-16 0.188125 0.8674174785275224
vt 0.125 1
vt 0.21875 1
vt 0.21875 0.96875
vt 0.125 0.96875
vt 0.125 1
vt 0.21875 1
vt 0.21875 0.96875
vt 0.125 0.96875
vt 0.125 1
vt 0.21875 1
vt 0.21875 0.96875
vt 0.125 0.96875
vt 0.125 1
vt 0.21875 1
vt 0.21875 0.96875
vt 0.125 0.96875
vt 0.09375 0.25
vt 0 0.25
vt 0 0.34375
vt 0.09375 0.34375
vt 0.09375 0.25
vt 0 0.25
vt 0 0.34375
vt 0.09375 0.34375
vn 0.7071067811865483 -2.0906028553828475e-16 0.7071067811865468
vn -0.7071067811865468 8.659560562354922e-17 0.7071067811865483
vn -0.7071067811865483 2.0906028553828475e-16 -0.7071067811865468
vn 0.7071067811865468 -8.659560562354922e-17 -0.7071067811865483
vn 2.090602855382848e-16 1 8.659560562354924e-17
vn -2.090602855382848e-16 -1 -8.659560562354924e-17
usemtl m_3efeb77a-4c96-42d6-830e-2aab4c373d52
f 18/46/12 21/45/12 19/44/12 16/43/12
f 17/50/13 18/49/13 16/48/13 15/47/13
f 22/54/14 17/53/14 15/52/14 20/51/14
f 21/58/15 22/57/15 20/56/15 19/55/15
f 20/62/16 15/61/16 16/60/16 19/59/16
f 21/66/17 18/65/17 17/64/17 22/63/17
o joint2
v -0.13258252147247762 0.500625 1.0000000000000002
v 1.6653345369377348e-16 0.500625 1.1325825214724776
v -0.13258252147247762 0.438125 1.0000000000000002
v 1.5265566588595902e-16 0.438125 1.1325825214724776
v 0.13258252147247765 0.500625 0.9999999999999999
v -1.3877787807814457e-16 0.500625 0.8674174785275224
v 0.13258252147247762 0.438125 0.9999999999999999
v -1.5265566588595902e-16 0.438125 0.8674174785275224
vt 0.125 1
vt 0.21875 1
vt 0.21875 0.96875
vt 0.125 0.96875
vt 0.125 1
vt 0.21875 1
vt 0.21875 0.96875
vt 0.125 0.96875
vt 0.125 1
vt 0.21875 1
vt 0.21875 0.96875
vt 0.125 0.96875
vt 0.125 1
vt 0.21875 1
vt 0.21875 0.96875
vt 0.125 0.96875
vt 0.09375 0.25
vt 0 0.25
vt 0 0.34375
vt 0.09375 0.34375
vt 0.09375 0.25
vt 0 0.25
vt 0 0.34375
vt 0.09375 0.34375
vn 0.7071067811865483 -2.0906028553828475e-16 0.7071067811865468
vn -0.7071067811865468 8.659560562354922e-17 0.7071067811865483
vn -0.7071067811865483 2.0906028553828475e-16 -0.7071067811865468
vn 0.7071067811865468 -8.659560562354922e-17 -0.7071067811865483
vn 2.090602855382848e-16 1 8.659560562354924e-17
vn -2.090602855382848e-16 -1 -8.659560562354924e-17
usemtl m_3efeb77a-4c96-42d6-830e-2aab4c373d52
f 26/70/18 29/69/18 27/68/18 24/67/18
f 25/74/19 26/73/19 24/72/19 23/71/19
f 30/78/20 25/77/20 23/76/20 28/75/20
f 29/82/21 30/81/21 28/80/21 27/79/21
f 28/86/22 23/85/22 24/84/22 27/83/22
f 29/90/23 26/89/23 25/88/23 30/87/23
o joint3
v -0.13258252147247762 0.750625 1.0000000000000002
v 1.6653345369377348e-16 0.750625 1.1325825214724776
v -0.13258252147247762 0.688125 1.0000000000000002
v 1.5265566588595902e-16 0.688125 1.1325825214724776
v 0.13258252147247765 0.750625 0.9999999999999999
v -1.3877787807814457e-16 0.750625 0.8674174785275224
v 0.13258252147247762 0.688125 0.9999999999999999
v -1.5265566588595902e-16 0.688125 0.8674174785275224
vt 0.125 1
vt 0.21875 1
vt 0.21875 0.96875
vt 0.125 0.96875
vt 0.125 1
vt 0.21875 1
vt 0.21875 0.96875
vt 0.125 0.96875
vt 0.125 1
vt 0.21875 1
vt 0.21875 0.96875
vt 0.125 0.96875
vt 0.125 1
vt 0.21875 1
vt 0.21875 0.96875
vt 0.125 0.96875
vt 0.09375 0.25
vt 0 0.25
vt 0 0.34375
vt 0.09375 0.34375
vt 0.09375 0.25
vt 0 0.25
vt 0 0.34375
vt 0.09375 0.34375
vn 0.7071067811865483 -2.0906028553828475e-16 0.7071067811865468
vn -0.7071067811865468 8.659560562354922e-17 0.7071067811865483
vn -0.7071067811865483 2.0906028553828475e-16 -0.7071067811865468
vn 0.7071067811865468 -8.659560562354922e-17 -0.7071067811865483
vn 2.090602855382848e-16 1 8.659560562354924e-17
vn -2.090602855382848e-16 -1 -8.659560562354924e-17
usemtl m_3efeb77a-4c96-42d6-830e-2aab4c373d52
f 34/94/24 37/93/24 35/92/24 32/91/24
f 33/98/25 34/97/25 32/96/25 31/95/25
f 38/102/26 33/101/26 31/100/26 36/99/26
f 37/106/27 38/105/27 36/104/27 35/103/27
f 36/110/28 31/109/28 32/108/28 35/107/28
f 37/114/29 34/113/29 33/112/29 38/111/29
o joint4
v -0.13258252147247762 1.000625 1.0000000000000002
v 1.6653345369377348e-16 1.000625 1.1325825214724776
v -0.13258252147247762 0.9381250000000001 1.0000000000000002
v 1.5265566588595902e-16 0.9381250000000001 1.1325825214724776
v 0.13258252147247765 1.000625 0.9999999999999999
v -1.3877787807814457e-16 1.000625 0.8674174785275224
v 0.13258252147247762 0.9381250000000001 0.9999999999999999
v -1.5265566588595902e-16 0.9381250000000001 0.8674174785275224
vt 0.125 1
vt 0.21875 1
vt 0.21875 0.96875
vt 0.125 0.96875
vt 0.125 1
vt 0.21875 1
vt 0.21875 0.96875
vt 0.125 0.96875
vt 0.125 1
vt 0.21875 1
vt 0.21875 0.96875
vt 0.125 0.96875
vt 0.125 1
vt 0.21875 1
vt 0.21875 0.96875
vt 0.125 0.96875
vt 0.21875 0.25
vt 0.125 0.25
vt 0.125 0.34375
vt 0.21875 0.34375
vt 0.09375 0.25
vt 0 0.25
vt 0 0.34375
vt 0.09375 0.34375
vn 0.7071067811865483 -2.0906028553828475e-16 0.7071067811865468
vn -0.7071067811865468 8.659560562354922e-17 0.7071067811865483
vn -0.7071067811865483 2.0906028553828475e-16 -0.7071067811865468
vn 0.7071067811865468 -8.659560562354922e-17 -0.7071067811865483
vn 2.090602855382848e-16 1 8.659560562354924e-17
vn -2.090602855382848e-16 -1 -8.659560562354924e-17
usemtl m_3efeb77a-4c96-42d6-830e-2aab4c373d52
f 42/118/30 45/117/30 43/116/30 40/115/30
f 41/122/31 42/121/31 40/120/31 39/119/31
f 46/126/32 41/125/32 39/124/32 44/123/32
f 45/130/33 46/129/33 44/128/33 43/127/33
f 44/134/34 39/133/34 40/132/34 43/131/34
f 45/138/35 42/137/35 41/136/35 46/135/35
o step4
v 3.827021247335479e-18 0.9375 1
v -3.827021247335479e-18 1 1
v 0.999995625 0.9375000000000001 1.000000000000001
v 0.999995625 1.0000000000000002 1.000000000000001
v 0.9238756250000004 0.9375000000000001 0.617318125000001
v 0.9238756250000004 1.0000000000000002 0.617318125000001
vt 0.6875 0.875
vt 0.875 0.875
vt 0.875 0.90625
vt 0.6875 0.90625
vt 0.4375015625 0.75
vt 0.4755609375 0.558659375
vt 0.9374984375 0.75
vt 0.90625 0.875
vt 0.90625 0.90625
vt 0.40625 0.90625
vt 0.40625 0.875
vt 0.90625 0.875
vt 0.90625 0.90625
vt 0.40625 0.90625
vt 0.40625 0.875
vt 0.4375000000000008 0.7500000000000013
vt 0.9374968750000008 0.7500000000000013
vt 0.4755593750000008 0.5586593750000013
vn 0.9807853577430705 1.4400319112524583e-16 -0.19508993320209422
vn -1.2246467991473532e-16 1 1.2246467991473517e-16
vn -0.3826834845849193 6.627739813149122e-17 -0.9238795108811236
vn -1.1310397063368784e-15 -1.2246467991473532e-16 1
vn 1.2246467991473532e-16 -1 -1.2246467991473517e-16
usemtl m_3efeb77a-4c96-42d6-830e-2aab4c373d52
f 49/139/36 51/140/36 52/141/36 50/142/36
f 50/143/37 52/144/37 48/145/37
f 47/146/38 48/147/38 52/148/38 51/149/38
f 49/150/39 50/151/39 48/152/39 47/153/39
f 49/154/40 47/155/40 51/156/40
o step3
v 3.7534861071770754e-18 0.6875 1
v -3.7534861071770754e-18 0.75 1
v 0.9238758235602054 0.6875000000000001 0.6173179791967871
v 0.9238758235602054 0.7500000000000001 0.6173179791967871
v 0.7071040577192391 0.6875000000000001 0.29289610525604837
v 0.7071040577192391 0.7500000000000001 0.29289610525604837
vt 0.4375015625 0.75
vt 0.4755609375 0.558659375
vt 0.9374984375 0.75
vt 0.6875 0.875
vt 0.875 0.875
vt 0.875 0.90625
vt 0.6875 0.90625
vt 0.4375015625 0.75
vt 0.4755609375 0.558659375
vt 0.9374984375 0.75
vt 0.90625 0.875
vt 0.90625 0.90625
vt 0.40625 0.90625
vt 0.40625 0.875
vt 0.90625 0.90625
vt 0.90625 0.875
vt 0.40625 0.875
vt 0.40625 0.90625
vn 1.201115554296664e-16 -1 -9.857300607457185e-17
vn 0.8314696123025253 1.5463333638045356e-16 -0.5555702330196324
vn -1.201115554296664e-16 1 9.857300607457185e-17
vn -0.7071066996985759 -1.523003648574805e-17 -0.7071068626745097
vn 0.3826835388343138 -4.5104863336520616e-17 0.923879488410283
usemtl m_3efeb77a-4c96-42d6-830e-2aab4c373d52
f 57/157/41 55/158/41 53/159/41
f 55/160/42 57/161/42 58/162/42 56/163/42
f 56/164/43 58/165/43 54/166/43
f 53/167/44 54/168/44 58/169/44 57/170/44
f 54/171/45 53/172/45 55/173/45 56/174/45
o step1
v 3.7534861071770754e-18 0.1875 1
v -3.7534861071770754e-18 0.25 1
v 1.4252677865700392e-7 0.1875000000000001 0.000004137713843666013
v 1.4252677865700392e-7 0.2500000000000001 0.000004137713843666013
v 0.3826817172529135 0.18750000000000014 0.07612423569518023
v 0.3826817172529135 0.2500000000000001 0.07612423569518023
vt 0.4375015625 0.75
vt 0.4755609375 0.558659375
vt 0.9374984375 0.75
vt 0.6875 0.875
vt 0.875 0.875
vt 0.875 0.90625
vt 0.6875 0.90625
vt 0.4375015625 0.75
vt 0.4755609375 0.558659375
vt 0.9374984375 0.75
vt 0.90625 0.90625
vt 0.90625 0.875
vt 0.40625 0.875
vt 0.40625 0.90625
vt 0.90625 0.875
vt 0.90625 0.90625
vt 0.40625 0.90625
vt 0.40625 0.875
vn 1.201115554296664e-16 -1 -9.857300607457185e-17
vn 0.19509032201609283 1.2011155542966641e-16 -0.9807852804032375
vn -1.201115554296664e-16 1 9.857300607457185e-17
vn 0.9238795870541676 7.324637090754688e-17 0.3826833006869006
vn -0.99999999999999 -1.2011154138031406e-16 -1.4252736843523023e-7
usemtl m_3efeb77a-4c96-42d6-830e-2aab4c373d52
f 61/175/46 63/176/46 59/177/46
f 63/178/47 61/179/47 62/180/47 64/181/47
f 64/182/48 62/183/48 60/184/48
f 60/185/49 59/186/49 63/187/49 64/188/49
f 59/189/50 60/190/50 62/191/50 61/192/50
o railing1
v 1.4252677865700392e-7 0.2500000000000001 0.000004137713843666013
v 1.4252677854598161e-7 1.25 0.0000041377138437770355
v 0.3826817172529135 0.2500000000000001 0.07612423569518023
v 0.38268171725291333 1.5000000000000002 0.07612423569518034
v 1.4252677851822604e-7 1.3437500000000002 0.0000041377138437770355
v 0.38268171725291333 1.5937500000000002 0.07612423569518034
v 0.3826817172529135 0.2500000000000001 0.07612423569518023
v 1.4252677865700392e-7 0.2500000000000001 0.000004137713843666013
v 1.4252677854598161e-7 1.25 0.0000041377138437770355
v 0.38268171725291333 1.5000000000000002 0.07612423569518034
v 1.4252677851822604e-7 1.3437500000000002 0.0000041377138437770355
v 0.38268171725291333 1.5937500000000002 0.07612423569518034
vt 0 0.375
vt 0.1875 0.375
vt 0.1875 0.875
vt 0 1
vt 0.7888375 0.53125
vt 0.7888375 0.578125
vt 0.59375 0.578125
vt 0.59375 0.53125
vt 0.1875 0.875
vt 0.1875 0.375
vt 0 0.375
vt 0 1
vt 0.59375 0.578125
vt 0.7888375 0.578125
vt 0.7888375 0.53125
vt 0.59375 0.53125
vn 0.19509032201609283 1.2011155542966641e-16 -0.9807852804032375
vn 0.19509032201609283 1.2011155542966641e-16 -0.9807852804032375
vn -0.19509032201609283 -1.2011155542966641e-16 0.9807852804032375
vn -0.19509032201609283 -1.2011155542966641e-16 0.9807852804032375
usemtl m_3efeb77a-4c96-42d6-830e-2aab4c373d52
f 67/193/51 65/194/51 66/195/51 68/196/51
f 66/197/52 69/198/52 70/199/52 68/200/52
f 73/201/53 72/202/53 71/203/53 74/204/53
f 76/205/54 75/206/54 73/207/54 74/208/54
o scallopfront4
v 3.827021247335479e-18 0.9375 1
v 0.9238756250000004 0.9375000000000001 0.617318125000001
v 2.678914873134835e-17 0.75 1
v 0.9238756250000004 0.7500000000000002 0.617318125000001
v 2.678914873134835e-17 0.75 1
v 3.827021247335479e-18 0.9375 1
v 0.9238756250000004 0.9375000000000001 0.617318125000001
v 0.9238756250000004 0.7500000000000002 0.617318125000001
vt 0.9375 0.40625
vt 0.9375 0.5
vt 0.4375 0.5
vt 0.4375 0.40625
vt 0.4375 0.5
vt 0.9375 0.5
vt 0.9375 0.40625
vt 0.4375 0.40625
vn -0.3826834845849192 6.62773981314912e-17 -0.9238795108811235
vn 0.3826834845849192 -6.62773981314912e-17 0.9238795108811235
usemtl m_3efeb77a-4c96-42d6-830e-2aab4c373d52
f 79/209/55 77/210/55 78/211/55 80/212/55
f 83/213/56 82/214/56 81/215/56 84/216/56
o scallopside4
v 0.999995625 0.7187500000000001 1.000000000000001
v 0.9238756250000004 0.7187500000000002 0.617318125000001
v 0.9238756250000004 0.9375000000000001 0.617318125000001
v 0.999995625 0.9375000000000001 1.000000000000001
vt 0.5234374999999998 0.265625
vt 0.7185249999999999 0.265625
vt 0.7185249999999999 0.375
vt 0.5234374999999998 0.375
vn 0.9807853577430705 1.4400319112524583e-16 -0.1950899332020942
usemtl m_3efeb77a-4c96-42d6-830e-2aab4c373d52
f 85/217/57 86/218/57 87/219/57 88/220/57
o scallopfront3
v 3.7534861071770754e-18 0.6875 1
v 0.7071040577192391 0.6875000000000001 0.29289610525604837
v 2.6274402750239528e-17 0.5 1
v 0.7071040577192391 0.5000000000000002 0.29289610525604837
v 2.6274402750239528e-17 0.5 1
v 3.7534861071770754e-18 0.6875 1
v 0.7071040577192391 0.6875000000000001 0.29289610525604837
v 0.7071040577192391 0.5000000000000002 0.29289610525604837
vt 0.9375 0.40625
vt 0.9375 0.5
vt 0.4375 0.5
vt 0.4375 0.40625
vt 0.4375 0.5
vt 0.9375 0.5
vt 0.9375 0.40625
vt 0.4375 0.40625
vn -0.7071066996985758 -1.5230036485748037e-17 -0.70710686267451
vn 0.7071066996985758 1.5230036485748037e-17 0.70710686267451
usemtl m_3efeb77a-4c96-42d6-830e-2aab4c373d52
f 91/221/58 89/222/58 90/223/58 92/224/58
f 95/225/59 94/226/59 93/227/59 96/228/59
o scallopside3
v 0.9238758235602054 0.4687500000000001 0.6173179791967871
v 0.7071040577192391 0.46875000000000017 0.29289610525604837
v 0.7071040577192391 0.6875000000000001 0.29289610525604837
v 0.9238758235602054 0.6875000000000001 0.6173179791967871
vt 0.5234374999999998 0.265625
vt 0.7185249999999999 0.265625
vt 0.7185249999999999 0.375
vt 0.5234374999999998 0.375
vn 0.8314696123025253 1.5463333638045356e-16 -0.5555702330196324
usemtl m_3efeb77a-4c96-42d6-830e-2aab4c373d52
f 97/229/60 98/230/60 99/231/60 100/232/60
o scallopside2
v 0.7071040577192391 0.43750000000000017 0.29289610525604837
v 0.7071040577192391 0.21875000000000017 0.29289610525604837
v 0.38268171725291356 0.21875000000000014 0.07612423569518023
v 0.3826817172529135 0.4375000000000001 0.07612423569518023
vt 0.5234374999999998 0.265625
vt 0.7185249999999999 0.265625
vt 0.7185249999999999 0.375
vt 0.5234374999999998 0.375
vn 0.5555698644689656 1.4869084398988353e-16 -0.8314698585600895
usemtl m_3efeb77a-4c96-42d6-830e-2aab4c373d52
f 102/233/61 103/234/61 104/235/61 101/236/61
o scallopside1
v 0.38268171725291356 -0.03124999999999986 0.07612423569518023
v 1.425267786847595e-7 -0.03124999999999989 0.000004137713843666013
v 1.4252677865700392e-7 0.1875000000000001 0.000004137713843666013
v 0.3826817172529135 0.18750000000000014 0.07612423569518023
vt 0.5234374999999998 0.265625
vt 0.7185249999999999 0.265625
vt 0.7185249999999999 0.375
vt 0.5234374999999998 0.375
vn 0.19509032201609283 1.2011155542966641e-16 -0.9807852804032375
usemtl m_3efeb77a-4c96-42d6-830e-2aab4c373d52
f 105/237/62 106/238/62 107/239/62 108/240/62
o scallopfront1
v 3.7534861071770754e-18 0.1875 1
v 1.4252677865700392e-7 0.1875000000000001 0.000004137713843666013
v 2.6274402750239528e-17 0 1
v 1.425267786847595e-7 8.326672684688674e-17 0.000004137713843666013
v 2.6274402750239528e-17 0 1
v 3.7534861071770754e-18 0.1875 1
v 1.4252677865700392e-7 0.1875000000000001 0.000004137713843666013
v 1.425267786847595e-7 8.326672684688674e-17 0.000004137713843666013
vt 0.9375 0.40625
vt 0.9375 0.5
vt 0.4375 0.5
vt 0.4375 0.40625
vt 0.4375 0.5
vt 0.9375 0.5
vt 0.9375 0.40625
vt 0.4375 0.40625
vn -0.99999999999999 -1.2011154138031406e-16 -1.4252736843523023e-7
vn 0.99999999999999 1.2011154138031406e-16 1.4252736843523023e-7
usemtl m_3efeb77a-4c96-42d6-830e-2aab4c373d52
f 111/241/63 109/242/63 110/243/63 112/244/63
f 115/245/64 114/246/64 113/247/64 116/248/64
o scallopfront2
v 3.7534861071770754e-18 0.4375 1
v 0.3826817172529135 0.4375000000000001 0.07612423569518023
v 2.6274402750239528e-17 0.25 1
v 0.38268171725291356 0.2500000000000001 0.07612423569518023
v 2.6274402750239528e-17 0.25 1
v 3.7534861071770754e-18 0.4375 1
v 0.3826817172529135 0.4375000000000001 0.07612423569518023
v 0.38268171725291356 0.2500000000000001 0.07612423569518023
vt 0.9375 0.40625
vt 0.9375 0.5
vt 0.4375 0.5
vt 0.4375 0.40625
vt 0.4375 0.5
vt 0.9375 0.5
vt 0.9375 0.40625
vt 0.4375 0.40625
vn -0.9238795870541676 -7.324637090754688e-17 -0.3826833006869006
vn 0.9238795870541676 7.324637090754688e-17 0.3826833006869006
usemtl m_3efeb77a-4c96-42d6-830e-2aab4c373d52
f 119/249/65 117/250/65 118/251/65 120/252/65
f 123/253/66 122/254/66 121/255/66 124/256/66
o railing3
v 0.9238758235602054 0.7500000000000001 0.6173179791967872
v 0.9238758235602051 2 0.6173179791967873
v 0.7071040577192391 0.7500000000000002 0.2928961052560485
v 0.7071040577192389 1.75 0.2928961052560486
v 0.7071040577192389 1.84375 0.2928961052560486
v 0.9238758235602051 2.09375 0.6173179791967873
v 0.9238758235602054 0.7500000000000001 0.6173179791967872
v 0.7071040577192391 0.7500000000000002 0.2928961052560485
v 0.7071040577192389 1.75 0.2928961052560486
v 0.9238758235602051 2 0.6173179791967873
v 0.7071040577192389 1.84375 0.2928961052560486
v 0.9238758235602051 2.09375 0.6173179791967873
vt 0 0.375
vt 0.1875 0.375
vt 0.1875 0.875
vt 0 1
vt 0.7888375 0.53125
vt 0.7888375 0.578125
vt 0.59375 0.578125
vt 0.59375 0.53125
vt 0.1875 0.875
vt 0.1875 0.375
vt 0 0.375
vt 0 1
vt 0.59375 0.578125
vt 0.7888375 0.578125
vt 0.7888375 0.53125
vt 0.59375 0.53125
vn 0.8314696123025253 1.5463333638045356e-16 -0.5555702330196324
vn 0.8314696123025253 1.5463333638045356e-16 -0.5555702330196324
vn -0.8314696123025253 -1.5463333638045356e-16 0.5555702330196324
vn -0.8314696123025253 -1.546333363804535e-16 0.5555702330196324
usemtl m_3efeb77a-4c96-42d6-830e-2aab4c373d52
f 125/257/67 127/258/67 128/259/67 126/260/67
f 128/261/68 129/262/68 130/263/68 126/264/68
f 133/265/69 132/266/69 131/267/69 134/268/69
f 136/269/70 135/270/70 133/271/70 134/272/70
o railing2
v 0.7071040577192391 0.5000000000000002 0.2928961052560485
v 0.7071040577192389 1.75 0.2928961052560486
v 0.38268171725291344 0.5000000000000001 0.07612423569518023
v 0.38268171725291333 1.5000000000000002 0.07612423569518034
v 0.38268171725291333 1.5937500000000002 0.07612423569518034
v 0.7071040577192389 1.84375 0.2928961052560486
v 0.7071040577192391 0.5000000000000002 0.2928961052560485
v 0.38268171725291344 0.5000000000000001 0.07612423569518023
v 0.38268171725291333 1.5000000000000002 0.07612423569518034
v 0.7071040577192389 1.75 0.2928961052560486
v 0.38268171725291333 1.5937500000000002 0.07612423569518034
v 0.7071040577192389 1.84375 0.2928961052560486
vt 0 0.375
vt 0.1875 0.375
vt 0.1875 0.875
vt 0 1
vt 0.7888375 0.53125
vt 0.7888375 0.578125
vt 0.59375 0.578125
vt 0.59375 0.53125
vt 0.1875 0.875
vt 0.1875 0.375
vt 0 0.375
vt 0 1
vt 0.59375 0.578125
vt 0.7888375 0.578125
vt 0.7888375 0.53125
vt 0.59375 0.53125
vn 0.5555698644689657 1.4869084398988356e-16 -0.8314698585600896
vn 0.5555698644689656 1.4869084398988353e-16 -0.8314698585600895
vn -0.5555698644689657 -1.4869084398988356e-16 0.8314698585600896
vn -0.5555698644689656 -1.4869084398988353e-16 0.8314698585600895
usemtl m_3efeb77a-4c96-42d6-830e-2aab4c373d52
f 137/273/71 139/274/71 140/275/71 138/276/71
f 140/277/72 141/278/72 142/279/72 138/280/72
f 145/281/73 144/282/73 143/283/73 146/284/73
f 148/285/74 147/286/74 145/287/74 146/288/74
o railing4
v 0.9999958622861562 1 1.0000001425267788
v 0.9999958622861561 2.25 1.0000001425267788
v 0.9238758235602054 1.0000000000000002 0.6173179791967872
v 0.9238758235602051 2 0.6173179791967873
v 0.9238758235602051 2.09375 0.6173179791967873
v 0.9999958622861561 2.34375 1.0000001425267788
v 0.9999958622861562 1 1.0000001425267788
v 0.9238758235602054 1.0000000000000002 0.6173179791967872
v 0.9238758235602051 2 0.6173179791967873
v 0.9999958622861561 2.25 1.0000001425267788
v 0.9238758235602051 2.09375 0.6173179791967873
v 0.9999958622861561 2.34375 1.0000001425267788
v 0.9238758235602051 2 0.6173179791967873
v 0.9999958622861561 2.25 1.0000001425267788
v 0.9999958622861562 1 1.0000001425267788
v 0.9238758235602054 1.0000000000000002 0.6173179791967872
v 0.9238758235602051 2 0.6173179791967873
v 0.9999958622861561 2.25 1.0000001425267788
v 0.9238758235602051 2 0.6173179791967873
v 0.9238758235602051 2.09375 0.6173179791967873
v 0.9999958622861561 2.34375 1.0000001425267788
v 0.9999958622861561 2.25 1.0000001425267788
vt 0 0.375
vt 0.1875 0.375
vt 0.1875 0.875
vt 0 1
vt 0.7888375 0.53125
vt 0.7888375 0.578125
vt 0.59375 0.578125
vt 0.59375 0.53125
vt 0 0.375
vt 0.1875 0.375
vt 0.1875 0.875
vt 0 1
vt 0.7888375 0.53125
vt 0.7888375 0.578125
vt 0.59375 0.578125
vt 0.59375 0.53125
vt 0.1875 0.875
vt 0.1875 0.375
vt 0 0.375
vt 0 1
vt 0.59375 0.578125
vt 0.7888375 0.578125
vt 0.7888375 0.53125
vt 0.59375 0.53125
vn 0.9807853668772987 1.3703425260233844e-16 -0.19508988728112714
vn 0.9807853668772986 1.370342526023384e-16 -0.1950898872811271
vn 0.9807853668772987 1.3703425260233844e-16 -0.19508988728112714
vn 0.9807853668772986 1.370342526023384e-16 -0.1950898872811271
vn -0.9807853668772987 -1.3703425260233844e-16 0.19508988728112714
vn -0.9807853668772986 -1.370342526023384e-16 0.1950898872811271
usemtl m_3efeb77a-4c96-42d6-830e-2aab4c373d52
f 149/289/75 151/290/75 152/291/75 150/292/75
f 152/293/76 153/294/76 154/295/76 150/296/76
f 155/297/77 156/298/77 157/299/77 158/300/77
f 161/301/78 159/302/78 160/303/78 162/304/78
f 165/305/79 164/306/79 163/307/79 166/308/79
f 169/309/80 168/310/80 167/311/80 170/312/80