# Made in Blockbench 4.12.5
mtllib street_lamp_wall.mtl

o Middle
v 0.5 0.6461043750000001 0.5
v 0.5228825 0.62648125 0.5552425
v 0.532360625 0.58835625 0.578125
v 0.5552425 0.62648125 0.5228825
v 0.578125 0.58835625 0.532360625
v 0.5552425 0.62648125 0.47711749999999997
v 0.578125 0.58835625 0.467639375
v 0.5228825 0.62648125 0.44475750000000003
v 0.532360625 0.58835625 0.421875
v 0.47711749999999997 0.62648125 0.44475750000000003
v 0.467639375 0.58835625 0.421875
v 0.44475750000000003 0.62648125 0.47711749999999997
v 0.421875 0.58835625 0.467639375
v 0.44475750000000003 0.62648125 0.5228825
v 0.421875 0.58835625 0.532360625
v 0.47711749999999997 0.62648125 0.5552425
v 0.467639375 0.58835625 0.578125
v 0.578125 0.557019375 0.532360625
v 0.578125 0.557019375 0.467639375
v 0.532360625 0.557019375 0.421875
v 0.467639375 0.557019375 0.421875
v 0.421875 0.557019375 0.467639375
v 0.421875 0.557019375 0.532360625
v 0.467639375 0.557019375 0.578125
v 0.532360625 0.557019375 0.578125
vt 0.696655625 0.90625
vt 0.740465 0.90625
vt 0.71856 0.8452500000000001
vt 0.696655625 0.90625
vt 0.6875 0.96875
vt 0.75 0.96875
vt 0.740844375 0.90625
vt 0.759155625 0.90625
vt 0.802965 0.90625
vt 0.78106 0.8452500000000001
vt 0.759155625 0.90625
vt 0.75 0.96875
vt 0.8125 0.96875
vt 0.803344375 0.90625
vt 0.696655625 0.90625
vt 0.740465 0.90625
vt 0.71856 0.8452500000000001
vt 0.696655625 0.90625
vt 0.6875 0.96875
vt 0.75 0.96875
vt 0.740844375 0.90625
vt 0.759155625 0.90625
vt 0.802965 0.90625
vt 0.78106 0.8452500000000001
vt 0.759155625 0.90625
vt 0.75 0.96875
vt 0.8125 0.96875
vt 0.803344375 0.90625
vt 0.821655625 0.90625
vt 0.865465 0.90625
vt 0.84356 0.8452500000000001
vt 0.821655625 0.90625
vt 0.8125 0.96875
vt 0.875 0.96875
vt 0.865844375 0.90625
vt 0.696655625 0.90625
vt 0.740465 0.90625
vt 0.71856 0.8452500000000001
vt 0.696655625 0.90625
vt 0.6875 0.96875
vt 0.75 0.96875
vt 0.740844375 0.90625
vt 0.759155625 0.90625
vt 0.802965 0.90625
vt 0.78106 0.8452500000000001
vt 0.759155625 0.90625
vt 0.75 0.96875
vt 0.8125 0.96875
vt 0.803344375 0.90625
vt 0.821655625 0.90625
vt 0.865465 0.90625
vt 0.84356 0.8452500000000001
vt 0.821655625 0.90625
vt 0.8125 0.96875
vt 0.875 0.96875
vt 0.865844375 0.90625
vt 0.6875 0.96875
vt 0.75 0.96875
vt 0.75 1
vt 0.6875 1
vt 0.75 0.96875
vt 0.8125 0.96875
vt 0.8125 1
vt 0.75 1
vt 0.8125 0.96875
vt 0.875 0.96875
vt 0.875 1
vt 0.8125 1
vt 0.6875 0.96875
vt 0.75 0.96875
vt 0.75 1
vt 0.6875 1
vt 0.75 0.96875
vt 0.8125 0.96875
vt 0.8125 1
vt 0.75 1
vt 0.8125 0.96875
vt 0.875 0.96875
vt 0.875 1
vt 0.8125 1
vt 0.6875 0.96875
vt 0.75 0.96875
vt 0.75 1
vt 0.6875 1
vt 0.75 0.96875
vt 0.8125 0.96875
vt 0.8125 1
vt 0.75 1
vn 0.23668703690596304 0.9423154955328661 0.23668703690596304
vn 0.6062870171001458 0.5146184079408892 0.6062870171001458
vn 0.33472718666844015 0.9423150802704112 0
vn 0.8574185024085893 0.5146197739374305 0
vn 0.23668703690596304 0.9423154955328661 -0.23668703690596304
vn 0.6062870171001458 0.5146184079408892 -0.6062870171001458
vn 0 0.9423150802704112 -0.33472718666844015
vn 0 0.5146197739374305 -0.8574185024085893
vn -0.23668703690596304 0.9423154955328661 -0.23668703690596304
vn -0.6062870171001458 0.5146184079408892 -0.6062870171001458
vn -0.33472718666844015 0.9423150802704112 0
vn -0.8574185024085893 0.5146197739374305 0
vn -0.23668703690596304 0.9423154955328661 0.23668703690596304
vn -0.6062870171001458 0.5146184079408892 0.6062870171001458
vn 0 0.9423150802704112 0.33472718666844015
vn 0 0.5146197739374305 0.8574185024085893
vn 0.7071067811865476 0 -0.7071067811865476
vn 0 0 -1
vn -0.7071067811865476 0 -0.7071067811865476
vn -1 0 0
vn -0.7071067811865476 0 0.7071067811865476
vn 0 0 1
vn 0.7071067811865476 0 0.7071067811865476
vn 1 0 0
usemtl m_cebf0129-dcfe-ec6e-9bb5-9c368069bfc9
f 2/1/1 4/2/1 1/3/1
f 2/4/2 3/5/2 5/6/2 4/7/2
f 4/8/3 6/9/3 1/10/3
f 4/11/4 5/12/4 7/13/4 6/14/4
f 6/15/5 8/16/5 1/17/5
f 6/18/6 7/19/6 9/20/6 8/21/6
f 8/22/7 10/23/7 1/24/7
f 8/25/8 9/26/8 11/27/8 10/28/8
f 10/29/9 12/30/9 1/31/9
f 10/32/10 11/33/10 13/34/10 12/35/10
f 12/36/11 14/37/11 1/38/11
f 12/39/12 13/40/12 15/41/12 14/42/12
f 14/43/13 16/44/13 1/45/13
f 14/46/14 15/47/14 17/48/14 16/49/14
f 16/50/15 2/51/15 1/52/15
f 16/53/16 17/54/16 3/55/16 2/56/16
f 19/57/17 20/58/17 9/59/17 7/60/17
f 20/61/18 21/62/18 11/63/18 9/64/18
f 21/65/19 22/66/19 13/67/19 11/68/19
f 22/69/20 23/70/20 15/71/20 13/72/20
f 23/73/21 24/74/21 17/75/21 15/76/21
f 24/77/22 25/78/22 3/79/22 17/80/22
f 25/81/23 18/82/23 5/83/23 3/84/23
f 18/85/24 19/86/24 7/87/24 5/88/24
o Support
v 0.5 0.6875 1
v 0.5 0.6875 0.5
v 0.5 0.375 1
v 0.5 0.375 0.5
v 0.5 0.6875 0.5
v 0.5 0.6875 1
v 0.5 0.375 0.5
v 0.5 0.375 1
vt 0.625 1
vt 0.125 1
vt 0.125 0.6875
vt 0.625 0.6875
vt 0.125 1
vt 0.625 1
vt 0.625 0.6875
vt 0.125 0.6875
vn 1 0 0
vn -1 0 0
usemtl m_cebf0129-dcfe-ec6e-9bb5-9c368069bfc9
f 28/92/25 29/91/25 27/90/25 26/89/25
f 32/96/26 33/95/26 31/94/26 30/93/26
o Bulb
v 0.5 0.45283125 0.5
v 0.510296875 0.46220625000000004 0.475140625
v 0.5145625 0.48408125 0.46484375
v 0.524859375 0.46220625000000004 0.489703125
v 0.53515625 0.48408125 0.4854375
v 0.524859375 0.46220625000000004 0.510296875
v 0.53515625 0.48408125 0.5145625
v 0.510296875 0.46220625000000004 0.524859375
v 0.5145625 0.48408125 0.53515625
v 0.489703125 0.46220625000000004 0.524859375
v 0.4854375 0.48408125 0.53515625
v 0.475140625 0.46220625000000004 0.510296875
v 0.46484375 0.48408125 0.5145625
v 0.475140625 0.46220625000000004 0.489703125
v 0.46484375 0.48408125 0.4854375
v 0.489703125 0.46220625000000004 0.475140625
v 0.4854375 0.48408125 0.46484375
v 0.5 0.57783125 0.5
v 0.510296875 0.56845625 0.524859375
v 0.5145625 0.54658125 0.53515625
v 0.524859375 0.56845625 0.510296875
v 0.53515625 0.54658125 0.5145625
v 0.524859375 0.56845625 0.489703125
v 0.53515625 0.54658125 0.4854375
v 0.510296875 0.56845625 0.47514062500000004
v 0.5145625 0.54658125 0.46484375
v 0.489703125 0.56845625 0.47514062500000004
v 0.4854375 0.54658125 0.46484375
v 0.475140625 0.56845625 0.489703125
v 0.46484375 0.54658125 0.4854375
v 0.475140625 0.56845625 0.510296875
v 0.46484375 0.54658125 0.5145625
v 0.489703125 0.56845625 0.524859375
v 0.4854375 0.54658125 0.53515625
vt 0.713454375 0.78125
vt 0.733710625 0.784996875
vt 0.71875 0.80924875
vt 0.625 1
vt 0.625 0.96875
vt 0.65625 0.96875
vt 0.65625 1
vt 0.713454375 0.78125
vt 0.733710625 0.784996875
vt 0.71875 0.80924875
vt 0.625 1
vt 0.625 0.96875
vt 0.65625 0.96875
vt 0.65625 1
vt 0.713454375 0.78125
vt 0.733710625 0.784996875
vt 0.71875 0.80924875
vt 0.625 1
vt 0.625 0.96875
vt 0.65625 0.96875
vt 0.65625 1
vt 0.713454375 0.78125
vt 0.733710625 0.784996875
vt 0.71875 0.80924875
vt 0.625 1
vt 0.625 0.96875
vt 0.65625 0.96875
vt 0.65625 1
vt 0.713454375 0.78125
vt 0.733710625 0.784996875
vt 0.71875 0.80924875
vt 0.625 1
vt 0.625 0.96875
vt 0.65625 0.96875
vt 0.65625 1
vt 0.713454375 0.78125
vt 0.733710625 0.784996875
vt 0.71875 0.80924875
vt 0.625 1
vt 0.625 0.96875
vt 0.65625 0.96875
vt 0.65625 1
vt 0.713454375 0.78125
vt 0.733710625 0.784996875
vt 0.71875 0.80924875
vt 0.625 1
vt 0.625 0.96875
vt 0.65625 0.96875
vt 0.65625 1
vt 0.713454375 0.78125
vt 0.733710625 0.784996875
vt 0.71875 0.80924875
vt 0.625 1
vt 0.625 0.96875
vt 0.65625 0.96875
vt 0.65625 1
vt 0.713454375 0.78125
vt 0.733710625 0.784996875
vt 0.71875 0.80924875
vt 0.625 1
vt 0.625 0.96875
vt 0.65625 0.96875
vt 0.65625 1
vt 0.713454375 0.78125
vt 0.733710625 0.784996875
vt 0.71875 0.80924875
vt 0.625 1
vt 0.625 0.96875
vt 0.65625 0.96875
vt 0.65625 1
vt 0.713454375 0.78125
vt 0.733710625 0.784996875
vt 0.71875 0.80924875
vt 0.625 1
vt 0.625 0.96875
vt 0.65625 0.96875
vt 0.65625 1
vt 0.713454375 0.78125
vt 0.733710625 0.784996875
vt 0.71875 0.80924875
vt 0.625 1
vt 0.625 0.96875
vt 0.65625 0.96875
vt 0.65625 1
vt 0.713454375 0.78125
vt 0.733710625 0.784996875
vt 0.71875 0.80924875
vt 0.625 1
vt 0.625 0.96875
vt 0.65625 0.96875
vt 0.65625 1
vt 0.713454375 0.78125
vt 0.733710625 0.784996875
vt 0.71875 0.80924875
vt 0.625 1
vt 0.625 0.96875
vt 0.65625 0.96875
vt 0.65625 1
vt 0.713454375 0.78125
vt 0.733710625 0.784996875
vt 0.71875 0.80924875
vt 0.6875 0.765625
vt 0.6875 0.734375
vt 0.71875 0.734375
vt 0.71875 0.765625
vt 0.713454375 0.78125
vt 0.733710625 0.784996875
vt 0.71875 0.80924875
vt 0.625 1
vt 0.625 0.96875
vt 0.65625 0.96875
vt 0.65625 1
vt 0.65625 0.90625
vt 0.65625 0.96875
vt 0.625 0.96875
vt 0.625 0.90625
vt 0.65625 0.90625
vt 0.65625 0.96875
vt 0.625 0.96875
vt 0.625 0.90625
vt 0.65625 0.90625
vt 0.65625 0.96875
vt 0.625 0.96875
vt 0.625 0.90625
vt 0.65625 0.90625
vt 0.65625 0.96875
vt 0.625 0.96875
vt 0.625 0.90625
vt 0.65625 0.90625
vt 0.65625 0.96875
vt 0.625 0.96875
vt 0.625 0.90625
vt 0.65625 0.90625
vt 0.65625 0.96875
vt 0.625 0.96875
vt 0.625 0.90625
vt 0.65625 0.90625
vt 0.65625 0.96875
vt 0.625 0.96875
vt 0.625 0.90625
vt 0.65625 0.90625
vt 0.65625 0.96875
vt 0.625 0.96875
vt 0.625 0.90625
vn 0.24951314462072216 -0.935674292327708 -0.24951314462072227
vn 0.6397682254922494 -0.4259028472562689 -0.6397682254922494
vn 0.3528629814185441 -0.9356750057281729 -1.1458714008071884e-16
vn 0.9047747585040568 -0.42589040418155244 -5.215653202685107e-17
vn 0.24951314462072216 -0.935674292327708 0.24951314462072205
vn 0.6397682254922494 -0.42590284725626903 0.6397682254922494
vn 0 -0.9356750057281729 0.352862981418544
vn 0 -0.42589040418155244 0.9047747585040565
vn -0.24951314462072216 -0.935674292327708 0.24951314462072205
vn -0.6397682254922494 -0.42590284725626903 0.6397682254922494
vn -0.3528629814185441 -0.9356750057281729 -1.1458714008071884e-16
vn -0.9047747585040568 -0.42589040418155244 -5.215653202685107e-17
vn -0.24951314462072216 -0.935674292327708 -0.24951314462072227
vn -0.6397682254922494 -0.4259028472562689 -0.6397682254922494
vn 0 -0.9356750057281729 -0.3528629814185442
vn 0 -0.42589040418155233 -0.9047747585040568
vn 0.24951314462072205 0.9356742923277083 0.24951314462072216
vn 0.6397682254922494 0.4259028472562688 0.6397682254922495
vn 0.352862981418544 0.935675005728173 1.1458714008071884e-16
vn 0.9047747585040566 0.4258904041815523 5.2156532026851054e-17
vn 0.24951314462072205 0.9356742923277083 -0.24951314462072194
vn 0.6397682254922494 0.4259028472562688 -0.6397682254922493
vn 0 0.935675005728173 -0.3528629814185439
vn 0 0.4258904041815524 -0.9047747585040566
vn -0.24951314462072205 0.9356742923277083 -0.24951314462072194
vn -0.6397682254922494 0.4259028472562689 -0.6397682254922495
vn -0.352862981418544 0.935675005728173 1.1458714008071884e-16
vn -0.9047747585040566 0.4258904041815523 5.2156532026851054e-17
vn -0.24951314462072205 0.9356742923277083 0.24951314462072216
vn -0.6397682254922495 0.4259028472562688 0.6397682254922494
vn 0 0.935675005728173 0.3528629814185441
vn 0 0.42589040418155216 0.9047747585040566
vn 1 0 0
vn 0.7071067811865476 8.659560562354934e-17 -0.7071067811865476
vn 0 1.2246467991473532e-16 -1
vn -0.7071067811865476 8.659560562354934e-17 -0.7071067811865476
vn -1 0 0
vn -0.7071067811865476 -8.659560562354934e-17 0.7071067811865476
vn 0 -1.2246467991473532e-16 1
vn 0.7071067811865476 -8.659560562354934e-17 0.7071067811865476
usemtl m_cebf0129-dcfe-ec6e-9bb5-9c368069bfc9
f 35/97/27 37/98/27 34/99/27
f 35/100/28 36/101/28 38/102/28 37/103/28
f 37/104/29 39/105/29 34/106/29
f 37/107/30 38/108/30 40/109/30 39/110/30
f 39/111/31 41/112/31 34/113/31
f 39/114/32 40/115/32 42/116/32 41/117/32
f 41/118/33 43/119/33 34/120/33
f 41/121/34 42/122/34 44/123/34 43/124/34
f 43/125/35 45/126/35 34/127/35
f 43/128/36 44/129/36 46/130/36 45/131/36
f 45/132/37 47/133/37 34/134/37
f 45/135/38 46/136/38 48/137/38 47/138/38
f 47/139/39 49/140/39 34/141/39
f 47/142/40 48/143/40 50/144/40 49/145/40
f 49/146/41 35/147/41 34/148/41
f 49/149/42 50/150/42 36/151/42 35/152/42
f 52/153/43 54/154/43 51/155/43
f 52/156/44 53/157/44 55/158/44 54/159/44
f 54/160/45 56/161/45 51/162/45
f 54/163/46 55/164/46 57/165/46 56/166/46
f 56/167/47 58/168/47 51/169/47
f 56/170/48 57/171/48 59/172/48 58/173/48
f 58/174/49 60/175/49 51/176/49
f 58/177/50 59/178/50 61/179/50 60/180/50
f 60/181/51 62/182/51 51/183/51
f 60/184/52 61/185/52 63/186/52 62/187/52
f 62/188/53 64/189/53 51/190/53
f 62/191/54 63/192/54 65/193/54 64/194/54
f 64/195/55 66/196/55 51/197/55
f 64/198/56 65/199/56 67/200/56 66/201/56
f 66/202/57 52/203/57 51/204/57
f 66/205/58 67/206/58 53/207/58 52/208/58
f 55/209/59 40/210/59 38/211/59 57/212/59
f 57/213/60 38/214/60 36/215/60 59/216/60
f 59/217/61 36/218/61 50/219/61 61/220/61
f 61/221/62 50/222/62 48/223/62 63/224/62
f 63/225/63 48/226/63 46/227/63 65/228/63
f 44/229/64 67/230/64 65/231/64 46/232/64
f 67/233/65 44/234/65 42/235/65 53/236/65
f 40/237/66 55/238/66 53/239/66 42/240/66
o main_inner
v 0.5 0.57421875 0.5
v 0.601745 0.520296875 0.74563375
v 0.65533 0.34765625 0.875
v 0.74563375 0.520296875 0.601745
v 0.875 0.34765625 0.65533
v 0.74563375 0.520296875 0.398255
v 0.875 0.34765625 0.34467000000000003
v 0.601745 0.520296875 0.25436625
v 0.65533 0.34765625 0.125
v 0.398255 0.520296875 0.25436625
v 0.34467000000000003 0.34765625 0.125
v 0.25436625 0.520296875 0.398255
v 0.125 0.34765625 0.34467000000000003
v 0.25436625 0.520296875 0.601745
v 0.125 0.34765625 0.65533
v 0.398255 0.520296875 0.74563375
v 0.34467000000000003 0.34765625 0.875
v 0.63581875 0.467179375 0.827895
v 0.827895 0.467179375 0.63581875
v 0.827895 0.467179375 0.36418125
v 0.63581875 0.467179375 0.172105
v 0.36418125 0.467179375 0.172105
v 0.172105 0.467179375 0.36418125
v 0.172105 0.467179375 0.63581875
v 0.36418125 0.467179375 0.827895
vt 0.882075 0.25
vt 0.6785875 0.25
vt 0.78033125 0.50148125
vt 0.6445125 0.125
vt 0.91615 0.125
vt 0.9356625 0
vt 0.625 0
vt 0.569575 0.25
vt 0.3660875 0.25
vt 0.46783125 0.50148125
vt 0.3125 0
vt 0.3320125 0.125
vt 0.60365 0.125
vt 0.6231625 0
vt 0.882075 0.25
vt 0.6785875 0.25
vt 0.78033125 0.50148125
vt 0.6445125 0.125
vt 0.91615 0.125
vt 0.9356625 0
vt 0.625 0
vt 0.569575 0.25
vt 0.3660875 0.25
vt 0.46783125 0.50148125
vt 0.3320125 0.125
vt 0.60365 0.125
vt 0.6231625 0
vt 0.3125 0
vt 0.882075 0.25
vt 0.6785875 0.25
vt 0.78033125 0.50148125
vt 0.6445125 0.125
vt 0.91615 0.125
vt 0.9356625 0
vt 0.625 0
vt 0.569575 0.25
vt 0.3660875 0.25
vt 0.46783125 0.50148125
vt 0.882075 0.25
vt 0.6785875 0.25
vt 0.78033125 0.50148125
vt 0.6445125 0.125
vt 0.91615 0.125
vt 0.9356625 0
vt 0.625 0
vt 0.569575 0.25
vt 0.3660875 0.25
vt 0.46783125 0.50148125
vt 0.3320125 0.125
vt 0.60365 0.125
vt 0.6231625 0
vt 0.3125 0
vt 0.91615 0.15625
vt 0.6445125 0.15625
vt 0.6785875 0.25
vt 0.882075 0.25
vt 0.60365 0.15625
vt 0.3320125 0.15625
vt 0.3660875 0.25
vt 0.569575 0.25
vt 0.91615 0.15625
vt 0.6445125 0.15625
vt 0.6785875 0.25
vt 0.882075 0.25
vt 0.60365 0.15625
vt 0.3320125 0.15625
vt 0.3660875 0.25
vt 0.569575 0.25
vt 0.91615 0.15625
vt 0.6445125 0.15625
vt 0.6785875 0.25
vt 0.882075 0.25
vt 0.60365 0.15625
vt 0.3320125 0.15625
vt 0.3660875 0.25
vt 0.569575 0.25
vt 0.91615 0.15625
vt 0.6445125 0.15625
vt 0.6785875 0.25
vt 0.882075 0.25
vt 0.60365 0.15625
vt 0.3320125 0.15625
vt 0.3660875 0.25
vt 0.569575 0.25
vt 0.3320125 0.125
vt 0.60365 0.125
vt 0.6231625 0
vt 0.3125 0
vn -0.15161487444892596 -0.9767424735782062 -0.15161487444892596
vn -0.6578606600545464 -0.3666588385750346 -0.6578606600545464
vn -0.21441591144083255 -0.9767424516836551 0
vn -0.930354942155483 -0.36666017183063143 0
vn -0.15161487444892596 -0.9767424735782062 0.15161487444892596
vn -0.6578606600545464 -0.3666588385750346 0.6578606600545464
vn 0 -0.9767424516836551 0.21441591144083255
vn 0 -0.3666601718306314 0.930354942155483
vn 0.15161487444892596 -0.9767424735782062 0.15161487444892596
vn 0.6578606600545464 -0.3666588385750346 0.6578606600545464
vn 0.21441591144083255 -0.9767424516836551 0
vn 0.15161487444892596 -0.9767424735782062 -0.15161487444892596
vn 0.6578606600545464 -0.3666588385750346 -0.6578606600545464
vn 0 -0.9767424516836551 -0.21441591144083255
vn 0 -0.3666601718306314 -0.930354942155483
vn -0.383574651085604 -0.8400839089573819 -0.383574651085604
vn -0.5424565546756213 -0.8400838567008981 0
vn -0.383574651085604 -0.8400839089573819 0.383574651085604
vn 0 -0.8400838567008981 0.5424565546756213
vn 0.383574651085604 -0.8400839089573819 0.383574651085604
vn 0.5424565546756213 -0.8400838567008981 0
vn 0.383574651085604 -0.8400839089573819 -0.383574651085604
vn 0 -0.8400838567008981 -0.5424565546756213
vn 0.930354942155483 -0.3666601718306314 0
usemtl m_cebf0129-dcfe-ec6e-9bb5-9c368069bfc9
f 71/241/67 69/242/67 68/243/67
f 85/244/68 86/245/68 72/246/68 70/247/68
f 73/248/69 71/249/69 68/250/69
f 72/251/70 86/252/70 87/253/70 74/254/70
f 75/255/71 73/256/71 68/257/71
f 87/258/72 88/259/72 76/260/72 74/261/72
f 77/262/73 75/263/73 68/264/73
f 88/265/74 89/266/74 78/267/74 76/268/74
f 79/269/75 77/270/75 68/271/75
f 89/272/76 90/273/76 80/274/76 78/275/76
f 81/276/77 79/277/77 68/278/77
f 83/279/78 81/280/78 68/281/78
f 91/282/79 92/283/79 84/284/79 82/285/79
f 69/286/80 83/287/80 68/288/80
f 92/289/81 85/290/81 70/291/81 84/292/81
f 86/293/82 85/294/82 69/295/82 71/296/82
f 87/297/83 86/298/83 71/299/83 73/300/83
f 88/301/84 87/302/84 73/303/84 75/304/84
f 89/305/85 88/306/85 75/307/85 77/308/85
f 90/309/86 89/310/86 77/311/86 79/312/86
f 91/313/87 90/314/87 79/315/87 81/316/87
f 92/317/88 91/318/88 81/319/88 83/320/88
f 85/321/89 92/322/89 83/323/89 69/324/89
f 90/325/90 91/326/90 82/327/90 80/328/90
o main_outer
v 0.5 0.57421875 0.5
v 0.601745 0.520296875 0.74563375
v 0.65533 0.34765625 0.875
v 0.74563375 0.520296875 0.601745
v 0.875 0.34765625 0.65533
v 0.74563375 0.520296875 0.398255
v 0.875 0.34765625 0.34467000000000003
v 0.601745 0.520296875 0.25436625
v 0.65533 0.34765625 0.125
v 0.398255 0.520296875 0.25436625
v 0.34467000000000003 0.34765625 0.125
v 0.25436625 0.520296875 0.398255
v 0.125 0.34765625 0.34467000000000003
v 0.25436625 0.520296875 0.601745
v 0.125 0.34765625 0.65533
v 0.398255 0.520296875 0.74563375
v 0.34467000000000003 0.34765625 0.875
v 0.63581875 0.467179375 0.827895
v 0.827895 0.467179375 0.63581875
v 0.827895 0.467179375 0.36418125
v 0.63581875 0.467179375 0.172105
v 0.36418125 0.467179375 0.172105
v 0.172105 0.467179375 0.36418125
v 0.172105 0.467179375 0.63581875
v 0.36418125 0.467179375 0.827895
vt 0.6785875 0.25
vt 0.882075 0.25
vt 0.78033125 0.50148125
vt 0.9356625 0
vt 0.91615 0.125
vt 0.6445125 0.125
vt 0.625 0
vt 0.3660875 0.25
vt 0.569575 0.25
vt 0.46783125 0.50148125
vt 0.60365 0.125
vt 0.3320125 0.125
vt 0.3125 0
vt 0.6231625 0
vt 0.6785875 0.25
vt 0.882075 0.25
vt 0.78033125 0.50148125
vt 0.9356625 0
vt 0.91615 0.125
vt 0.6445125 0.125
vt 0.625 0
vt 0.3660875 0.25
vt 0.569575 0.25
vt 0.46783125 0.50148125
vt 0.6231625 0
vt 0.60365 0.125
vt 0.3320125 0.125
vt 0.3125 0
vt 0.6785875 0.25
vt 0.882075 0.25
vt 0.78033125 0.50148125
vt 0.9356625 0
vt 0.91615 0.125
vt 0.6445125 0.125
vt 0.625 0
vt 0.3660875 0.25
vt 0.569575 0.25
vt 0.46783125 0.50148125
vt 0.6785875 0.25
vt 0.882075 0.25
vt 0.78033125 0.50148125
vt 0.9356625 0
vt 0.91615 0.125
vt 0.6445125 0.125
vt 0.625 0
vt 0.3660875 0.25
vt 0.569575 0.25
vt 0.46783125 0.50148125
vt 0.6231625 0
vt 0.60365 0.125
vt 0.3320125 0.125
vt 0.3125 0
vt 0.6785875 0.25
vt 0.6445125 0.15625
vt 0.91615 0.15625
vt 0.882075 0.25
vt 0.3660875 0.25
vt 0.3320125 0.15625
vt 0.60365 0.15625
vt 0.569575 0.25
vt 0.6785875 0.25
vt 0.6445125 0.15625
vt 0.91615 0.15625
vt 0.882075 0.25
vt 0.3660875 0.25
vt 0.3320125 0.15625
vt 0.60365 0.15625
vt 0.569575 0.25
vt 0.6785875 0.25
vt 0.6445125 0.15625
vt 0.91615 0.15625
vt 0.882075 0.25
vt 0.3660875 0.25
vt 0.3320125 0.15625
vt 0.60365 0.15625
vt 0.569575 0.25
vt 0.6785875 0.25
vt 0.6445125 0.15625
vt 0.91615 0.15625
vt 0.882075 0.25
vt 0.3660875 0.25
vt 0.3320125 0.15625
vt 0.60365 0.15625
vt 0.569575 0.25
vt 0.6231625 0
vt 0.60365 0.125
vt 0.3320125 0.125
vt 0.3125 0
vn 0.15161487444892596 0.9767424735782062 0.15161487444892596
vn 0.6578606600545462 0.3666588385750346 0.6578606600545464
vn 0.21441591144083255 0.9767424516836551 0
vn 0.930354942155483 0.3666601718306314 0
vn 0.15161487444892596 0.9767424735782062 -0.15161487444892596
vn 0.6578606600545464 0.3666588385750346 -0.6578606600545462
vn 0 0.9767424516836551 -0.21441591144083255
vn 0 0.36666017183063143 -0.930354942155483
vn -0.15161487444892596 0.9767424735782062 -0.15161487444892596
vn -0.6578606600545462 0.3666588385750346 -0.6578606600545464
vn -0.21441591144083255 0.9767424516836551 0
vn -0.15161487444892596 0.9767424735782062 0.15161487444892596
vn -0.6578606600545464 0.3666588385750346 0.6578606600545462
vn 0 0.9767424516836551 0.21441591144083255
vn 0 0.36666017183063143 0.930354942155483
vn 0.383574651085604 0.8400839089573819 0.383574651085604
vn 0.5424565546756213 0.8400838567008981 0
vn 0.383574651085604 0.8400839089573819 -0.383574651085604
vn 0 0.8400838567008981 -0.5424565546756213
vn -0.383574651085604 0.8400839089573819 -0.383574651085604
vn -0.5424565546756213 0.8400838567008981 0
vn -0.383574651085604 0.8400839089573819 0.383574651085604
vn 0 0.8400838567008981 0.5424565546756213
vn -0.930354942155483 0.36666017183063143 0
usemtl m_cebf0129-dcfe-ec6e-9bb5-9c368069bfc9
f 94/329/91 96/330/91 93/331/91
f 97/332/92 111/333/92 110/334/92 95/335/92
f 96/336/93 98/337/93 93/338/93
f 112/339/94 111/340/94 97/341/94 99/342/94
f 98/343/95 100/344/95 93/345/95
f 101/346/96 113/347/96 112/348/96 99/349/96
f 100/350/97 102/351/97 93/352/97
f 103/353/98 114/354/98 113/355/98 101/356/98
f 102/357/99 104/358/99 93/359/99
f 105/360/100 115/361/100 114/362/100 103/363/100
f 104/364/101 106/365/101 93/366/101
f 106/367/102 108/368/102 93/369/102
f 109/370/103 117/371/103 116/372/103 107/373/103
f 108/374/104 94/375/104 93/376/104
f 95/377/105 110/378/105 117/379/105 109/380/105
f 94/381/106 110/382/106 111/383/106 96/384/106
f 96/385/107 111/386/107 112/387/107 98/388/107
f 98/389/108 112/390/108 113/391/108 100/392/108
f 100/393/109 113/394/109 114/395/109 102/396/109
f 102/397/110 114/398/110 115/399/110 104/400/110
f 104/401/111 115/402/111 116/403/111 106/404/111
f 106/405/112 116/406/112 117/407/112 108/408/112
f 108/409/113 117/410/113 110/411/113 94/412/113
f 107/413/114 116/414/114 115/415/114 105/416/114