# Blender 4.2.2 LTS
# www.blender.org
mtllib thin_white_picket_fence.mtl
o cube
v 1.041392 0.687500 0.507252
v 0.511062 0.687500 -0.023078
v 1.041392 0.562500 0.507252
v 0.511062 0.562500 -0.023078
v 0.466868 0.687500 0.021116
v 0.997198 0.687500 0.551446
v 0.466868 0.562500 0.021116
v 0.997198 0.562500 0.551446
vn -0.7071 -0.0000 -0.7071
vn 0.7071 -0.0000 -0.7071
vn 0.7071 -0.0000 0.7071
vn -0.7071 -0.0000 0.7071
vn -0.0000 1.0000 -0.0000
vn -0.0000 -1.0000 -0.0000
vt 0.937500 0.562500
vt 1.000000 0.562500
vt 1.000000 0.687500
vt 0.937500 0.687500
vt 0.812500 0.000000
vt 0.812500 0.750000
vt 0.937500 0.750000
vt 0.937500 0.000000
vt 0.000000 0.562500
vt 0.062500 0.562500
vt 0.062500 0.687500
vt 0.000000 0.687500
vt 0.125000 0.562500
vt 0.875000 0.562500
vt 0.875000 0.687500
vt 0.125000 0.687500
vt 0.375000 0.000000
vt 0.437500 0.000000
vt 0.437500 0.750000
vt 0.375000 0.750000
s 0
usemtl m_668359d0-cdde-9977-83da-ae1ef24946b5
f 4/1/1 7/2/1 5/3/1 2/4/1
f 3/5/2 4/6/2 2/7/2 1/8/2
f 8/9/3 3/10/3 1/11/3 6/12/3
f 7/13/4 8/14/4 6/15/4 5/16/4
f 6/17/5 1/18/5 2/19/5 5/20/5
f 7/17/6 4/18/6 3/19/6 8/20/6
o cube.001
v 1.041392 0.187500 0.507252
v 0.511062 0.187500 -0.023078
v 1.041392 0.062500 0.507252
v 0.511062 0.062500 -0.023078
v 0.466868 0.187500 0.021116
v 0.997198 0.187500 0.551446
v 0.466868 0.062500 0.021116
v 0.997198 0.062500 0.551446
vn -0.7071 -0.0000 -0.7071
vn 0.7071 -0.0000 -0.7071
vn 0.7071 -0.0000 0.7071
vn -0.7071 -0.0000 0.7071
vn -0.0000 1.0000 -0.0000
vn -0.0000 -1.0000 -0.0000
vt 0.937500 0.062500
vt 1.000000 0.062500
vt 1.000000 0.187500
vt 0.937500 0.187500
vt 0.062500 0.000000
vt 0.062500 0.750000
vt 0.187500 0.750000
vt 0.187500 0.000000
vt 0.000000 0.062500
vt 0.062500 0.062500
vt 0.062500 0.187500
vt 0.000000 0.187500
vt 0.125000 0.062500
vt 0.875000 0.062500
vt 0.875000 0.187500
vt 0.125000 0.187500
vt 0.375000 0.000000
vt 0.437500 0.000000
vt 0.437500 0.750000
vt 0.375000 0.750000
s 0
usemtl m_668359d0-cdde-9977-83da-ae1ef24946b5
f 12/21/7 15/22/7 13/23/7 10/24/7
f 11/25/8 12/26/8 10/27/8 9/28/8
f 16/29/9 11/30/9 9/31/9 14/32/9
f 15/33/10 16/34/10 14/35/10 13/36/10
f 14/37/11 9/38/11 10/39/11 13/40/11
f 15/37/12 12/38/12 11/39/12 16/40/12
o cube.002
v 0.599451 0.875000 0.153698
v 0.488965 0.875000 0.043213
v 0.599451 0.000000 0.153698
v 0.488965 0.000000 0.043213
v 0.444771 0.875000 0.087407
v 0.555256 0.875000 0.197892
v 0.444771 0.000000 0.087407
v 0.555256 0.000000 0.197893
vn -0.7071 -0.0000 -0.7071
vn 0.7071 -0.0000 -0.7071
vn 0.7071 -0.0000 0.7071
vn -0.7071 -0.0000 0.7071
vn -0.0000 1.0000 -0.0000
vn -0.0000 -1.0000 -0.0000
vt 0.031250 0.000000
vt 0.093750 0.000000
vt 0.093750 0.875000
vt 0.031250 0.875000
vt 0.187500 0.000000
vt 0.187500 0.875000
vt 0.125000 0.000000
vt 0.125000 0.875000
vt 0.187500 0.812500
vt 0.031250 0.812500
vt 0.187500 0.062500
vt 0.031250 0.062500
s 0
usemtl m_668359d0-cdde-9977-83da-ae1ef24946b5
f 20/41/13 23/42/13 21/43/13 18/44/13
f 19/45/14 20/41/14 18/44/14 17/46/14
f 24/47/15 19/45/15 17/46/15 22/48/15
f 23/41/16 24/45/16 22/46/16 21/44/16
f 22/46/17 17/49/17 18/50/17 21/44/17
f 23/45/18 20/51/18 19/52/18 24/41/18
o cube.003
v 0.599226 0.875000 0.153915
v 0.543985 0.953122 0.098675
v 0.543985 0.796878 0.098675
v 0.488744 0.875000 0.043434
v 0.500233 0.953122 0.142427
v 0.555473 0.875000 0.197667
v 0.444992 0.875000 0.087186
v 0.500233 0.796878 0.142427
vn -0.5000 0.7071 -0.5000
vn 0.7071 -0.0000 -0.7071
vn -0.7071 -0.0000 0.7071
vn 0.5000 0.7071 0.5000
vt 0.062500 0.687500
vt 0.125000 0.687500
vt 0.125000 0.812500
vt 0.062500 0.812500
vt 0.937500 0.812500
vt 0.812500 0.812500
vt 0.812500 0.937500
vt 0.937500 0.937500
vt 0.031250 0.750000
vt 0.156250 0.750000
vt 0.156250 0.875000
vt 0.031250 0.875000
vt 0.593750 0.468750
vt 0.656250 0.468750
vt 0.656250 0.593750
vt 0.593750 0.593750
s 0
usemtl m_668359d0-cdde-9977-83da-ae1ef24946b5
f 28/53/19 31/54/19 29/55/19 26/56/19
f 27/57/20 28/58/20 26/59/20 25/60/20
f 31/61/21 32/62/21 30/63/21 29/64/21
f 30/65/22 25/66/22 26/67/22 29/68/22
o cube.004
v 0.776002 0.937500 0.330692
v 0.720761 1.015622 0.275451
v 0.720761 0.859378 0.275451
v 0.665521 0.937500 0.220210
v 0.677009 1.015622 0.319203
v 0.732250 0.937500 0.374444
v 0.621769 0.937500 0.263963
v 0.677009 0.859378 0.319203
vn -0.5000 0.7071 -0.5000
vn 0.7071 -0.0000 -0.7071
vn -0.7071 -0.0000 0.7071
vn 0.5000 0.7071 0.5000
vt 0.062500 0.687500
vt 0.125000 0.687500
vt 0.125000 0.812500
vt 0.062500 0.812500
vt 0.687500 0.750000
vt 0.562500 0.750000
vt 0.562500 0.875000
vt 0.687500 0.875000
vt 0.281250 0.812500
vt 0.406250 0.812500
vt 0.406250 0.937500
vt 0.281250 0.937500
vt 0.593750 0.468750
vt 0.656250 0.468750
vt 0.656250 0.593750
vt 0.593750 0.593750
s 0
usemtl m_668359d0-cdde-9977-83da-ae1ef24946b5
f 36/69/23 39/70/23 37/71/23 34/72/23
f 35/73/24 36/74/24 34/75/24 33/76/24
f 39/77/25 40/78/25 38/79/25 37/80/25
f 38/81/26 33/82/26 34/83/26 37/84/26
o cube.005
v 0.776227 0.937500 0.330475
v 0.665742 0.937500 0.219990
v 0.776227 0.000000 0.330475
v 0.665742 0.000000 0.219990
v 0.621548 0.937500 0.264184
v 0.732033 0.937500 0.374669
v 0.621548 0.000000 0.264184
v 0.732033 0.000000 0.374669
vn -0.7071 -0.0000 -0.7071
vn 0.7071 -0.0000 -0.7071
vn 0.7071 -0.0000 0.7071
vn -0.7071 -0.0000 0.7071
vn -0.0000 1.0000 -0.0000
vn -0.0000 -1.0000 -0.0000
vt 0.281250 0.000000
vt 0.343750 0.000000
vt 0.343750 0.937500
vt 0.281250 0.937500
vt 0.437500 0.000000
vt 0.437500 0.937500
vt 0.375000 0.000000
vt 0.375000 0.937500
vt 0.437500 0.875000
vt 0.281250 0.875000
vt 0.437500 0.062500
vt 0.281250 0.062500
s 0
usemtl m_668359d0-cdde-9977-83da-ae1ef24946b5
f 44/85/27 47/86/27 45/87/27 42/88/27
f 43/89/28 44/85/28 42/88/28 41/90/28
f 48/91/29 43/89/29 41/90/29 46/92/29
f 47/85/30 48/89/30 46/90/30 45/88/30
f 46/90/31 41/93/31 42/94/31 45/88/31
f 47/89/32 44/95/32 43/96/32 48/85/32
o cube.006
v 0.912953 0.937502 0.544885
v 0.956706 0.937502 0.501133
v 0.857713 0.859379 0.489644
v 0.901465 0.859379 0.445892
v 0.901465 1.015624 0.445892
v 0.857713 1.015624 0.489644
v 0.846224 0.937501 0.390651
v 0.802472 0.937502 0.434404
vn 0.7071 -0.0000 -0.7071
vn -0.7071 -0.0000 0.7071
vn -0.5000 0.7071 -0.5000
vn 0.5000 0.7071 0.5000
vt 0.156250 0.750000
vt 0.031250 0.750000
vt 0.031250 0.875000
vt 0.156250 0.875000
vt 0.812500 0.812500
vt 0.937500 0.812500
vt 0.937500 0.937500
vt 0.812500 0.937500
vt 0.062500 0.687500
vt 0.125000 0.687500
vt 0.125000 0.812500
vt 0.062500 0.812500
vt 0.593750 0.593750
vt 0.593750 0.468750
vt 0.656250 0.468750
vt 0.656250 0.593750
s 0
usemtl m_668359d0-cdde-9977-83da-ae1ef24946b5
f 52/97/33 55/98/33 53/99/33 50/100/33
f 56/101/34 51/102/34 49/103/34 54/104/34
f 55/105/35 56/106/35 54/107/35 53/108/35
f 54/109/36 49/110/36 50/111/36 53/112/36
o cube.007
v 0.912736 0.937500 0.545109
v 0.956930 0.937500 0.500915
v 0.912736 0.000000 0.545109
v 0.956930 0.000000 0.500915
v 0.846444 0.937500 0.390429
v 0.802250 0.937500 0.434624
v 0.846444 0.000000 0.390429
v 0.802250 0.000000 0.434624
vn 0.7071 -0.0000 -0.7071
vn 0.7071 -0.0000 0.7071
vn -0.7071 -0.0000 0.7071
vn -0.7071 -0.0000 -0.7071
vn -0.0000 1.0000 -0.0000
vn -0.0000 -1.0000 -0.0000
vt 0.968750 0.000000
vt 0.812500 0.000000
vt 0.812500 0.937500
vt 0.968750 0.937500
vt 0.906250 0.000000
vt 0.906250 0.937500
vt 0.875000 0.000000
vt 0.875000 0.937500
vt 0.968750 0.875000
vt 0.812500 0.875000
vt 0.968750 0.062500
vt 0.812500 0.062500
s 0
usemtl m_668359d0-cdde-9977-83da-ae1ef24946b5
f 60/113/37 63/114/37 61/115/37 58/116/37
f 59/117/38 60/113/38 58/116/38 57/118/38
f 64/114/39 59/113/39 57/116/39 62/115/39
f 63/114/40 64/119/40 62/120/40 61/115/40
f 62/115/41 57/116/41 58/121/41 61/122/41
f 63/123/42 60/124/42 59/114/42 64/113/42
