# Blender 4.2.2 LTS
# www.blender.org
mtllib thin_white_picket_fence.mtl
o cube
v 1.041392 0.687500 0.507252
v 0.511062 0.687500 -0.023078
v 1.041392 0.562500 0.507252
v 0.511062 0.562500 -0.023078
v 0.466868 0.687500 0.021116
v 0.997198 0.687500 0.551446
v 0.466868 0.562500 0.021116
v 0.997198 0.562500 0.551446
vn -0.7071 -0.0000 -0.7071
vn 0.7071 -0.0000 -0.7071
vn 0.7071 -0.0000 0.7071
vn -0.7071 -0.0000 0.7071
vn -0.0000 1.0000 -0.0000
vn -0.0000 -1.0000 -0.0000
vt 0.937500 0.562500
vt 1.000000 0.562500
vt 1.000000 0.687500
vt 0.937500 0.687500
vt 0.250000 0.562500
vt 0.250000 0.687500
vt 0.000000 0.562500
vt 0.062500 0.562500
vt 0.062500 0.687500
vt 0.000000 0.687500
vt 0.812500 0.000000
vt 0.812500 0.750000
vt 0.937500 0.750000
vt 0.937500 0.000000
vt 0.375000 0.000000
vt 0.437500 0.000000
vt 0.437500 0.750000
vt 0.375000 0.750000
s 0
usemtl m_668359d0-cdde-9977-83da-ae1ef24946b5
f 4/1/1 7/2/1 5/3/1 2/4/1
f 3/5/2 4/2/2 2/3/2 1/6/2
f 8/7/3 3/8/3 1/9/3 6/10/3
f 7/11/4 8/12/4 6/13/4 5/14/4
f 6/15/5 1/16/5 2/17/5 5/18/5
f 7/15/6 4/16/6 3/17/6 8/18/6
o cube.001
v 1.041392 0.187500 0.507252
v 0.511062 0.187500 -0.023078
v 1.041392 0.062500 0.507252
v 0.511062 0.062500 -0.023078
v 0.466868 0.187500 0.021116
v 0.997198 0.187500 0.551446
v 0.466868 0.062500 0.021116
v 0.997198 0.062500 0.551446
vn -0.7071 -0.0000 -0.7071
vn 0.7071 -0.0000 -0.7071
vn 0.7071 -0.0000 0.7071
vn -0.7071 -0.0000 0.7071
vn -0.0000 1.0000 -0.0000
vn -0.0000 -1.0000 -0.0000
vt 0.937500 0.062500
vt 1.000000 0.062500
vt 1.000000 0.187500
vt 0.937500 0.187500
vt 0.250000 0.187500
vt 0.250000 0.062500
vt 0.000000 0.062500
vt 0.062500 0.062500
vt 0.062500 0.187500
vt 0.000000 0.187500
vt 0.062500 0.000000
vt 0.062500 0.750000
vt 0.187500 0.750000
vt 0.187500 0.000000
vt 0.375000 0.000000
vt 0.437500 0.000000
vt 0.437500 0.750000
vt 0.375000 0.750000
s 0
usemtl m_668359d0-cdde-9977-83da-ae1ef24946b5
f 12/19/7 15/20/7 13/21/7 10/22/7
f 11/23/8 12/21/8 10/20/8 9/24/8
f 16/25/9 11/26/9 9/27/9 14/28/9
f 15/29/10 16/30/10 14/31/10 13/32/10
f 14/33/11 9/34/11 10/35/11 13/36/11
f 15/33/12 12/34/12 11/35/12 16/36/12
o cube.002
v 0.687839 0.875000 0.065310
v 0.577354 0.875000 -0.045175
v 0.687839 0.000000 0.065310
v 0.577354 -0.000000 -0.045175
v 0.533159 0.875000 -0.000981
v 0.643645 0.875000 0.109504
v 0.533159 -0.000000 -0.000981
v 0.643645 0.000000 0.109504
vn -0.7071 -0.0000 -0.7071
vn 0.7071 -0.0000 -0.7071
vn 0.7071 -0.0000 0.7071
vn -0.7071 -0.0000 0.7071
vn -0.0000 1.0000 -0.0000
vn -0.0000 -1.0000 -0.0000
vt 0.031250 0.000000
vt 0.093750 0.000000
vt 0.093750 0.875000
vt 0.031250 0.875000
vt 0.187500 0.000000
vt 0.187500 0.875000
vt 0.125000 0.000000
vt 0.125000 0.875000
vt 0.187500 0.812500
vt 0.031250 0.812500
vt 0.187500 0.062500
vt 0.031250 0.062500
s 0
usemtl m_668359d0-cdde-9977-83da-ae1ef24946b5
f 20/37/13 23/38/13 21/39/13 18/40/13
f 19/41/14 20/37/14 18/40/14 17/42/14
f 24/43/15 19/41/15 17/42/15 22/44/15
f 23/37/16 24/41/16 22/42/16 21/40/16
f 22/42/17 17/45/17 18/46/17 21/40/17
f 23/41/18 20/47/18 19/48/18 24/37/18
o cube.003
v 0.687614 0.875000 0.065527
v 0.632373 0.953122 0.010286
v 0.632373 0.796878 0.010286
v 0.577133 0.875000 -0.044954
v 0.588621 0.953122 0.054038
v 0.643862 0.875000 0.109279
v 0.533380 0.875000 -0.001202
v 0.588621 0.796878 0.054038
vn -0.5000 0.7071 -0.5000
vn 0.7071 -0.0000 -0.7071
vn -0.7071 -0.0000 0.7071
vn 0.5000 0.7071 0.5000
vt 0.062500 0.687500
vt 0.125000 0.687500
vt 0.125000 0.812500
vt 0.062500 0.812500
vt 0.937500 0.812500
vt 0.812500 0.812500
vt 0.812500 0.937500
vt 0.937500 0.937500
vt 0.031250 0.750000
vt 0.156250 0.750000
vt 0.156250 0.875000
vt 0.031250 0.875000
vt 0.593750 0.468750
vt 0.656250 0.468750
vt 0.656250 0.593750
vt 0.593750 0.593750
s 0
usemtl m_668359d0-cdde-9977-83da-ae1ef24946b5
f 28/49/19 31/50/19 29/51/19 26/52/19
f 27/53/20 28/54/20 26/55/20 25/56/20
f 31/57/21 32/58/21 30/59/21 29/60/21
f 30/61/22 25/62/22 26/63/22 29/64/22
o cube.004
v 0.864390 0.937500 0.242303
v 0.809150 1.015622 0.187063
v 0.809150 0.859378 0.187063
v 0.753909 0.937500 0.131822
v 0.765398 1.015622 0.230815
v 0.820638 0.937500 0.286056
v 0.710157 0.937500 0.175574
v 0.765398 0.859378 0.230815
vn -0.5000 0.7071 -0.5000
vn 0.7071 -0.0000 -0.7071
vn -0.7071 -0.0000 0.7071
vn 0.5000 0.7071 0.5000
vt 0.062500 0.687500
vt 0.125000 0.687500
vt 0.125000 0.812500
vt 0.062500 0.812500
vt 0.687500 0.750000
vt 0.562500 0.750000
vt 0.562500 0.875000
vt 0.687500 0.875000
vt 0.281250 0.812500
vt 0.406250 0.812500
vt 0.406250 0.937500
vt 0.281250 0.937500
vt 0.593750 0.468750
vt 0.656250 0.468750
vt 0.656250 0.593750
vt 0.593750 0.593750
s 0
usemtl m_668359d0-cdde-9977-83da-ae1ef24946b5
f 36/65/23 39/66/23 37/67/23 34/68/23
f 35/69/24 36/70/24 34/71/24 33/72/24
f 39/73/25 40/74/25 38/75/25 37/76/25
f 38/77/26 33/78/26 34/79/26 37/80/26
o cube.005
v 0.864616 0.937500 0.242087
v 0.754130 0.937500 0.131601
v 0.864616 0.000000 0.242087
v 0.754130 0.000000 0.131601
v 0.709936 0.937500 0.175795
v 0.820422 0.937500 0.286281
v 0.709936 0.000000 0.175795
v 0.820422 0.000000 0.286281
vn -0.7071 -0.0000 -0.7071
vn 0.7071 -0.0000 -0.7071
vn 0.7071 -0.0000 0.7071
vn -0.7071 -0.0000 0.7071
vn -0.0000 1.0000 -0.0000
vn -0.0000 -1.0000 -0.0000
vt 0.281250 0.000000
vt 0.343750 0.000000
vt 0.343750 0.937500
vt 0.281250 0.937500
vt 0.437500 0.000000
vt 0.437500 0.937500
vt 0.375000 0.000000
vt 0.375000 0.937500
vt 0.437500 0.875000
vt 0.281250 0.875000
vt 0.437500 0.062500
vt 0.281250 0.062500
s 0
usemtl m_668359d0-cdde-9977-83da-ae1ef24946b5
f 44/81/27 47/82/27 45/83/27 42/84/27
f 43/85/28 44/81/28 42/84/28 41/86/28
f 48/87/29 43/85/29 41/86/29 46/88/29
f 47/81/30 48/85/30 46/86/30 45/84/30
f 46/86/31 41/89/31 42/90/31 45/84/31
f 47/85/32 44/91/32 43/92/32 48/81/32
o cube.006
v 1.001342 0.937502 0.456496
v 1.045094 0.937502 0.412744
v 0.946101 0.859379 0.401256
v 0.989853 0.859379 0.357504
v 0.989853 1.015624 0.357504
v 0.946101 1.015624 0.401256
v 0.934613 0.937501 0.302263
v 0.890861 0.937501 0.346015
vn 0.7071 -0.0000 -0.7071
vn -0.7071 -0.0000 0.7071
vn -0.5000 0.7071 -0.5000
vn 0.5000 0.7071 0.5000
vt 0.156250 0.750000
vt 0.031250 0.750000
vt 0.031250 0.875000
vt 0.156250 0.875000
vt 0.812500 0.812500
vt 0.937500 0.812500
vt 0.937500 0.937500
vt 0.812500 0.937500
vt 0.062500 0.687500
vt 0.125000 0.687500
vt 0.125000 0.812500
vt 0.062500 0.812500
vt 0.593750 0.593750
vt 0.593750 0.468750
vt 0.656250 0.468750
vt 0.656250 0.593750
s 0
usemtl m_668359d0-cdde-9977-83da-ae1ef24946b5
f 52/93/33 55/94/33 53/95/33 50/96/33
f 56/97/34 51/98/34 49/99/34 54/100/34
f 55/101/35 56/102/35 54/103/35 53/104/35
f 54/105/36 49/106/36 50/107/36 53/108/36
o cube.007
v 1.001124 0.937500 0.456721
v 1.045318 0.937500 0.412526
v 1.001124 0.000000 0.456721
v 1.045318 0.000000 0.412526
v 0.934833 0.937500 0.302041
v 0.890639 0.937500 0.346235
v 0.934833 0.000000 0.302041
v 0.890639 0.000000 0.346235
vn 0.7071 -0.0000 -0.7071
vn 0.7071 -0.0000 0.7071
vn -0.7071 -0.0000 0.7071
vn -0.7071 -0.0000 -0.7071
vn -0.0000 1.0000 -0.0000
vn -0.0000 -1.0000 -0.0000
vt 0.968750 0.000000
vt 0.812500 0.000000
vt 0.812500 0.937500
vt 0.968750 0.937500
vt 0.906250 0.000000
vt 0.906250 0.937500
vt 0.875000 0.000000
vt 0.875000 0.937500
vt 0.968750 0.875000
vt 0.812500 0.875000
vt 0.968750 0.062500
vt 0.812500 0.062500
s 0
usemtl m_668359d0-cdde-9977-83da-ae1ef24946b5
f 60/109/37 63/110/37 61/111/37 58/112/37
f 59/113/38 60/109/38 58/112/38 57/114/38
f 64/110/39 59/109/39 57/112/39 62/111/39
f 63/110/40 64/115/40 62/116/40 61/111/40
f 62/111/41 57/112/41 58/117/41 61/118/41
f 63/119/42 60/120/42 59/110/42 64/109/42
