# Made in Blockbench 4.12.5
mtllib thin_white_picket_fence.mtl

o cube
v 0.511062 0.5625 -0.023078
v 0.466868 0.5625 0.021116
v 0.466868 0.6875 0.021116
v 0.511062 0.6875 -0.023078
v 1.041392 0.5625 0.507252
v 1.041392 0.6875 0.507252
v 0.997198 0.5625 0.551446
v 0.997198 0.6875 0.551446
vt 0.9375 0.5625
vt 1 0.5625
vt 1 0.6875
vt 0.9375 0.6875
vt 0.25 0.5625
vt 1 0.5625
vt 1 0.6875
vt 0.25 0.6875
vt 0 0.5625
vt 0.0625 0.5625
vt 0.0625 0.6875
vt 0 0.6875
vt 0.8125 0
vt 0.8125 0.75
vt 0.9375 0.75
vt 0.9375 0
vt 0.375 0
vt 0.4375 0
vt 0.4375 0.75
vt 0.375 0.75
vt 0.375 0
vt 0.4375 0
vt 0.4375 0.75
vt 0.375 0.75
vn -0.7071067811865475 0 -0.7071067811865477
vn 0.7071067811865476 0 -0.7071067811865476
vn 0.7071067811865467 0 0.7071067811865485
vn -0.7071067811865476 0 0.7071067811865476
vn 0 1 0
vn 0 -1 0
usemtl m_668359d0-cdde-9977-83da-ae1ef24946b5
f 1/1/1 2/2/1 3/3/1 4/4/1
f 5/5/2 1/6/2 4/7/2 6/8/2
f 7/9/3 5/10/3 6/11/3 8/12/3
f 2/13/4 7/14/4 8/15/4 3/16/4
f 8/17/5 6/18/5 4/19/5 3/20/5
f 2/21/6 1/22/6 5/23/6 7/24/6
o cube.001
v 0.511062 -0.4375 -0.023078
v 0.466868 -0.4375 0.021116
v 0.466868 -0.3125 0.021116
v 0.511062 -0.3125 -0.023078
v 1.041392 -0.4375 0.507252
v 1.041392 -0.3125 0.507252
v 0.997198 -0.4375 0.551446
v 0.997198 -0.3125 0.551446
vt 0.9375 0.0625
vt 1 0.0625
vt 1 0.1875
vt 0.9375 0.1875
vt 0.25 0.1875
vt 1 0.1875
vt 1 0.0625
vt 0.25 0.0625
vt 0 0.0625
vt 0.0625 0.0625
vt 0.0625 0.1875
vt 0 0.1875
vt 0.0625 0
vt 0.0625 0.75
vt 0.1875 0.75
vt 0.1875 0
vt 0.375 0
vt 0.4375 0
vt 0.4375 0.75
vt 0.375 0.75
vt 0.375 0
vt 0.4375 0
vt 0.4375 0.75
vt 0.375 0.75
vn -0.7071067811865475 0 -0.7071067811865477
vn 0.7071067811865476 0 -0.7071067811865476
vn 0.7071067811865467 0 0.7071067811865485
vn -0.7071067811865476 0 0.7071067811865476
vn 0 1 0
vn 0 -1 0
usemtl m_668359d0-cdde-9977-83da-ae1ef24946b5
f 9/25/7 10/26/7 11/27/7 12/28/7
f 13/29/8 9/30/8 12/31/8 14/32/8
f 15/33/9 13/34/9 14/35/9 16/36/9
f 10/37/10 15/38/10 16/39/10 11/40/10
f 16/41/11 14/42/11 12/43/11 11/44/11
f 10/45/12 9/46/12 13/47/12 15/48/12
o cube.002
v 0.577354 0 -0.045175
v 0.533159 0 -0.000981
v 0.533159 0.875 -0.000981
v 0.577354 0.875 -0.045175
v 0.687839 0 0.06531
v 0.687839 0.875 0.06531
v 0.643645 0 0.109504
v 0.643645 0.875 0.109504
vt 0.03125 0
vt 0.09375 0
vt 0.09375 0.875
vt 0.03125 0.875
vt 0.1875 0
vt 0.03125 0
vt 0.03125 0.875
vt 0.1875 0.875
vt 0.125 0
vt 0.1875 0
vt 0.1875 0.875
vt 0.125 0.875
vt 0.03125 0
vt 0.1875 0
vt 0.1875 0.875
vt 0.03125 0.875
vt 0.1875 0.875
vt 0.1875 0.8125
vt 0.03125 0.8125
vt 0.03125 0.875
vt 0.1875 0
vt 0.1875 0.0625
vt 0.03125 0.0625
vt 0.03125 0
vn -0.7070987812003376 0 -0.707114781082249
vn 0.7071067811865478 0 -0.7071067811865474
vn 0.7071067811865479 0 0.7071067811865472
vn -0.7071035811812022 0 0.7071099811774113
vn 0 1 0
vn 0 -1 0
usemtl m_668359d0-cdde-9977-83da-ae1ef24946b5
f 17/49/13 18/50/13 19/51/13 20/52/13
f 21/53/14 17/54/14 20/55/14 22/56/14
f 23/57/15 21/58/15 22/59/15 24/60/15
f 18/61/16 23/62/16 24/63/16 19/64/16
f 24/65/17 22/66/17 20/67/17 19/68/17
f 18/69/18 17/70/18 21/71/18 23/72/18
o cube.003
v 0.577133 0.875 -0.044954
v 0.53338 0.875 -0.001202
v 0.588621 0.953122 0.054038
v 0.632373 0.953122 0.010286
v 0.632373 0.796878 0.010286
v 0.687614 0.875 0.065527
v 0.588621 0.796878 0.054038
v 0.643862 0.875 0.109279
vt 0.0625 0.6875
vt 0.125 0.6875
vt 0.125 0.8125
vt 0.0625 0.8125
vt 0.9375 0.8125
vt 0.8125 0.8125
vt 0.8125 0.9375
vt 0.9375 0.9375
vt 0.03125 0.75
vt 0.15625 0.75
vt 0.15625 0.875
vt 0.03125 0.875
vt 0.59375 0.46875
vt 0.65625 0.46875
vt 0.65625 0.59375
vt 0.59375 0.59375
vn -0.49999472032696723 0.7071061669594307 -0.5000061482552984
vn 0.7071067811865478 0 -0.7071067811865472
vn -0.7071035810581036 -0.000004525677665685407 0.7071099812860262
vn 0.4999981714561612 0.7071093671285875 0.49999817145616005
usemtl m_668359d0-cdde-9977-83da-ae1ef24946b5
f 25/73/19 26/74/19 27/75/19 28/76/19
f 29/77/20 25/78/20 28/79/20 30/80/20
f 26/81/21 31/82/21 32/83/21 27/84/21
f 32/85/22 30/86/22 28/87/22 27/88/22
o cube.004
v 0.753909 0.9375 0.131822
v 0.710157 0.9375 0.175574
v 0.765398 1.015622 0.230815
v 0.80915 1.015622 0.187063
v 0.80915 0.859378 0.187063
v 0.86439 0.9375 0.242303
v 0.765398 0.859378 0.230815
v 0.820638 0.9375 0.286056
vt 0.0625 0.6875
vt 0.125 0.6875
vt 0.125 0.8125
vt 0.0625 0.8125
vt 0.6875 0.75
vt 0.5625 0.75
vt 0.5625 0.875
vt 0.6875 0.875
vt 0.28125 0.8125
vt 0.40625 0.8125
vt 0.40625 0.9375
vt 0.28125 0.9375
vt 0.59375 0.46875
vt 0.65625 0.46875
vt 0.65625 0.59375
vt 0.59375 0.59375
vn -0.49999817145616066 0.7071093671285875 -0.49999817145616066
vn 0.7071067811865477 0 -0.7071067811865474
vn -0.7071099812860261 -0.000004525677666324945 0.7071035810581038
vn 0.5000084110909758 0.707102966843054 0.499996983110927
usemtl m_668359d0-cdde-9977-83da-ae1ef24946b5
f 33/89/23 34/90/23 35/91/23 36/92/23
f 37/93/24 33/94/24 36/95/24 38/96/24
f 34/97/25 39/98/25 40/99/25 35/100/25
f 40/101/26 38/102/26 36/103/26 35/104/26
o cube.005
v 0.75413 0 0.131601
v 0.709936 0 0.175795
v 0.709936 0.9375 0.175795
v 0.75413 0.9375 0.131601
v 0.864616 0 0.242087
v 0.864616 0.9375 0.242087
v 0.820422 0 0.286281
v 0.820422 0.9375 0.286281
vt 0.28125 0
vt 0.34375 0
vt 0.34375 0.9375
vt 0.28125 0.9375
vt 0.4375 0
vt 0.28125 0
vt 0.28125 0.9375
vt 0.4375 0.9375
vt 0.375 0
vt 0.4375 0
vt 0.4375 0.9375
vt 0.375 0.9375
vt 0.28125 0
vt 0.4375 0
vt 0.4375 0.9375
vt 0.28125 0.9375
vt 0.4375 0.9375
vt 0.4375 0.875
vt 0.28125 0.875
vt 0.28125 0.9375
vt 0.4375 0
vt 0.4375 0.0625
vt 0.28125 0.0625
vt 0.28125 0
vn -0.7071067811865479 0 -0.7071067811865471
vn 0.7071067811865472 0 -0.7071067811865478
vn 0.707106781186547 0 0.707106781186548
vn -0.7071067811865476 0 0.7071067811865475
vn 0 1 0
vn 0 -1 0
usemtl m_668359d0-cdde-9977-83da-ae1ef24946b5
f 41/105/27 42/106/27 43/107/27 44/108/27
f 45/109/28 41/110/28 44/111/28 46/112/28
f 47/113/29 45/114/29 46/115/29 48/116/29
f 42/117/30 47/118/30 48/119/30 43/120/30
f 48/121/31 46/122/31 44/123/31 43/124/31
f 42/125/32 41/126/32 45/127/32 47/128/32
o cube.006
v 0.989853 0.859379 0.357504
v 0.934613 0.937501 0.302263
v 0.989853 1.015624 0.357504
v 1.045094 0.937502 0.412744
v 0.890861 0.937501 0.346015
v 0.946101 0.859379 0.401256
v 1.001342 0.937502 0.456496
v 0.946101 1.015624 0.401256
vt 0.15625 0.75
vt 0.03125 0.75
vt 0.03125 0.875
vt 0.15625 0.875
vt 0.8125 0.8125
vt 0.9375 0.8125
vt 0.9375 0.9375
vt 0.8125 0.9375
vt 0.0625 0.6875
vt 0.125 0.6875
vt 0.125 0.8125
vt 0.0625 0.8125
vt 0.59375 0.59375
vt 0.59375 0.46875
vt 0.65625 0.46875
vt 0.65625 0.59375
vn 0.7071131814144695 0 -0.7071003809006946
vn -0.7071067811985456 0.000009051256439060838 0.7071067811166195
vn -0.5000036343709813 0.7071016413724551 -0.5000036343709813
vn 0.5000004342815985 0.7071061670190878 0.5000004342815985
usemtl m_668359d0-cdde-9977-83da-ae1ef24946b5
f 49/129/33 50/130/33 51/131/33 52/132/33
f 53/133/34 54/134/34 55/135/34 56/136/34
f 50/137/35 53/138/35 56/139/35 51/140/35
f 56/141/36 55/142/36 52/143/36 51/144/36
o cube.007
v 1.045318 0 0.412526
v 0.934833 0 0.302041
v 0.934833 0.9375 0.302041
v 1.045318 0.9375 0.412526
v 1.001124 0 0.456721
v 1.001124 0.9375 0.456721
v 0.890639 0 0.346235
v 0.890639 0.9375 0.346235
vt 0.96875 0
vt 0.8125 0
vt 0.8125 0.9375
vt 0.96875 0.9375
vt 0.90625 0
vt 0.96875 0
vt 0.96875 0.9375
vt 0.90625 0.9375
vt 0.8125 0
vt 0.96875 0
vt 0.96875 0.9375
vt 0.8125 0.9375
vt 0.8125 0
vt 0.875 0
vt 0.875 0.9375
vt 0.8125 0.9375
vt 0.8125 0.9375
vt 0.96875 0.9375
vt 0.96875 0.875
vt 0.8125 0.875
vt 0.96875 0.0625
vt 0.8125 0.0625
vt 0.8125 0
vt 0.96875 0
vn 0.7071067811865478 0 -0.7071067811865474
vn 0.7071147810822486 0 0.7070987812003383
vn -0.7071099811774115 0 0.7071035811812021
vn -0.707106781186547 0 -0.707106781186548
vn 0 1 0
vn 0 -1 0
usemtl m_668359d0-cdde-9977-83da-ae1ef24946b5
f 57/145/37 58/146/37 59/147/37 60/148/37
f 61/149/38 57/150/38 60/151/38 62/152/38
f 63/153/39 61/154/39 62/155/39 64/156/39
f 58/157/40 63/158/40 64/159/40 59/160/40
f 64/161/41 62/162/41 60/163/41 59/164/41
f 58/165/42 57/166/42 61/167/42 63/168/42
o cube.008
v 0.864616 -0.9375 0.242087
v 0.7541310000000001 -0.9375 0.131602
v 0.7541310000000001 0 0.131602
v 0.864616 0 0.242087
v 0.820422 -0.9375 0.286282
v 0.820422 0 0.286282
v 0.709937 -0.9375 0.175796
v 0.709937 0 0.175796
vt 0.96875 0
vt 0.8125 0
vt 0.8125 0.9375
vt 0.96875 0.9375
vt 0.90625 0
vt 0.96875 0
vt 0.96875 0.9375
vt 0.90625 0.9375
vt 0.8125 0
vt 0.96875 0
vt 0.96875 0.9375
vt 0.8125 0.9375
vt 0.8125 0
vt 0.875 0
vt 0.875 0.9375
vt 0.8125 0.9375
vt 0.8125 0.9375
vt 0.96875 0.9375
vt 0.96875 0.875
vt 0.8125 0.875
vt 0.96875 0.0625
vt 0.8125 0.0625
vt 0.8125 0
vt 0.96875 0
vn 0.7071067811865478 0 -0.7071067811865474
vn 0.7071147810822486 0 0.7070987812003383
vn -0.7071099811774115 0 0.7071035811812021
vn -0.707106781186547 0 -0.707106781186548
vn 0 1 0
vn 0 -1 0
usemtl m_668359d0-cdde-9977-83da-ae1ef24946b5
f 65/169/43 66/170/43 67/171/43 68/172/43
f 69/173/44 65/174/44 68/175/44 70/176/44
f 71/177/45 69/178/45 70/179/45 72/180/45
f 66/181/46 71/182/46 72/183/46 67/184/46
f 72/185/47 70/186/47 68/187/47 67/188/47
f 66/189/48 65/190/48 69/191/48 71/192/48
o cube.009
v 0.687839 -0.9375 0.06531000000000003
v 0.577354 -0.9375 -0.045174999999999965
v 0.577354 0 -0.045174999999999965
v 0.687839 0 0.06531000000000003
v 0.6436449999999999 -0.9375 0.10950500000000002
v 0.6436449999999999 0 0.10950500000000002
v 0.53316 -0.9375 -0.0009809999999999541
v 0.53316 0 -0.0009809999999999541
vt 0.96875 0
vt 0.8125 0
vt 0.8125 0.9375
vt 0.96875 0.9375
vt 0.90625 0
vt 0.96875 0
vt 0.96875 0.9375
vt 0.90625 0.9375
vt 0.8125 0
vt 0.96875 0
vt 0.96875 0.9375
vt 0.8125 0.9375
vt 0.8125 0
vt 0.875 0
vt 0.875 0.9375
vt 0.8125 0.9375
vt 0.8125 0.9375
vt 0.96875 0.9375
vt 0.96875 0.875
vt 0.8125 0.875
vt 0.96875 0.0625
vt 0.8125 0.0625
vt 0.8125 0
vt 0.96875 0
vn 0.7071067811865478 0 -0.7071067811865474
vn 0.7071147810822486 0 0.7070987812003383
vn -0.7071099811774115 0 0.7071035811812021
vn -0.707106781186547 0 -0.707106781186548
vn 0 1 0
vn 0 -1 0
usemtl m_668359d0-cdde-9977-83da-ae1ef24946b5
f 73/193/49 74/194/49 75/195/49 76/196/49
f 77/197/50 73/198/50 76/199/50 78/200/50
f 79/201/51 77/202/51 78/203/51 80/204/51
f 74/205/52 79/206/52 80/207/52 75/208/52
f 80/209/53 78/210/53 76/211/53 75/212/53
f 74/213/54 73/214/54 77/215/54 79/216/54
o cube.0010
v 1.045318 -0.9375 0.412526
v 0.934833 -0.9375 0.302041
v 0.934833 0 0.302041
v 1.045318 0 0.412526
v 1.001124 -0.9375 0.456721
v 1.001124 0 0.456721
v 0.890639 -0.9375 0.346235
v 0.890639 0 0.346235
vt 0.96875 0
vt 0.8125 0
vt 0.8125 0.9375
vt 0.96875 0.9375
vt 0.90625 0
vt 0.96875 0
vt 0.96875 0.9375
vt 0.90625 0.9375
vt 0.8125 0
vt 0.96875 0
vt 0.96875 0.9375
vt 0.8125 0.9375
vt 0.8125 0
vt 0.875 0
vt 0.875 0.9375
vt 0.8125 0.9375
vt 0.8125 0.9375
vt 0.96875 0.9375
vt 0.96875 0.875
vt 0.8125 0.875
vt 0.96875 0.0625
vt 0.8125 0.0625
vt 0.8125 0
vt 0.96875 0
vn 0.7071067811865478 0 -0.7071067811865474
vn 0.7071147810822486 0 0.7070987812003383
vn -0.7071099811774115 0 0.7071035811812021
vn -0.707106781186547 0 -0.707106781186548
vn 0 1 0
vn 0 -1 0
usemtl m_668359d0-cdde-9977-83da-ae1ef24946b5
f 81/217/55 82/218/55 83/219/55 84/220/55
f 85/221/56 81/222/56 84/223/56 86/224/56
f 87/225/57 85/226/57 86/227/57 88/228/57
f 82/229/58 87/230/58 88/231/58 83/232/58
f 88/233/59 86/234/59 84/235/59 83/236/59
f 82/237/60 81/238/60 85/239/60 87/240/60
o cube.022
v 0.511062 -0.9375 -0.023078
v 0.466868 -0.9375 0.021116
v 0.466868 -0.8125 0.021116
v 0.511062 -0.8125 -0.023078
v 1.041392 -0.9375 0.507252
v 1.041392 -0.8125 0.507252
v 0.997198 -0.9375 0.551446
v 0.997198 -0.8125 0.551446
vt 0.9375 0.0625
vt 1 0.0625
vt 1 0.1875
vt 0.9375 0.1875
vt 0.25 0.1875
vt 1 0.1875
vt 1 0.0625
vt 0.25 0.0625
vt 0 0.0625
vt 0.0625 0.0625
vt 0.0625 0.1875
vt 0 0.1875
vt 0.0625 0
vt 0.0625 0.75
vt 0.1875 0.75
vt 0.1875 0
vt 0.375 0
vt 0.4375 0
vt 0.4375 0.75
vt 0.375 0.75
vt 0.375 0
vt 0.4375 0
vt 0.4375 0.75
vt 0.375 0.75
vn -0.7071067811865475 0 -0.7071067811865477
vn 0.7071067811865476 0 -0.7071067811865476
vn 0.7071067811865467 0 0.7071067811865485
vn -0.7071067811865476 0 0.7071067811865476
vn 0 1 0
vn 0 -1 0
usemtl m_668359d0-cdde-9977-83da-ae1ef24946b5
f 89/241/61 90/242/61 91/243/61 92/244/61
f 93/245/62 89/246/62 92/247/62 94/248/62
f 95/249/63 93/250/63 94/251/63 96/252/63
f 90/253/64 95/254/64 96/255/64 91/256/64
f 96/257/65 94/258/65 92/259/65 91/260/65
f 90/261/66 89/262/66 93/263/66 95/264/66
o cube.032
v 0.511062 0.0625 -0.023078
v 0.466868 0.0625 0.021116
v 0.466868 0.1875 0.021116
v 0.511062 0.1875 -0.023078
v 1.041392 0.0625 0.507252
v 1.041392 0.1875 0.507252
v 0.997198 0.0625 0.551446
v 0.997198 0.1875 0.551446
vt 0.9375 0.0625
vt 1 0.0625
vt 1 0.1875
vt 0.9375 0.1875
vt 0.25 0.1875
vt 1 0.1875
vt 1 0.0625
vt 0.25 0.0625
vt 0 0.0625
vt 0.0625 0.0625
vt 0.0625 0.1875
vt 0 0.1875
vt 0.0625 0
vt 0.0625 0.75
vt 0.1875 0.75
vt 0.1875 0
vt 0.375 0
vt 0.4375 0
vt 0.4375 0.75
vt 0.375 0.75
vt 0.375 0
vt 0.4375 0
vt 0.4375 0.75
vt 0.375 0.75
vn -0.7071067811865475 0 -0.7071067811865477
vn 0.7071067811865476 0 -0.7071067811865476
vn 0.7071067811865467 0 0.7071067811865485
vn -0.7071067811865476 0 0.7071067811865476
vn 0 1 0
vn 0 -1 0
usemtl m_668359d0-cdde-9977-83da-ae1ef24946b5
f 97/265/67 98/266/67 99/267/67 100/268/67
f 101/269/68 97/270/68 100/271/68 102/272/68
f 103/273/69 101/274/69 102/275/69 104/276/69
f 98/277/70 103/278/70 104/279/70 99/280/70
f 104/281/71 102/282/71 100/283/71 99/284/71
f 98/285/72 97/286/72 101/287/72 103/288/72