# Made in Blockbench 5.0.7
mtllib window_arch.mtl

o 10
v 1.1875 0.59979625 1.4690625
v 1 0.5625 1.4690625
v 1.056341875 0.934235625 1.4690625
v 0.897386875 0.828025625 1.4690625
v 0.871735625 1.118841875 1.4690625
v 0.765525625 0.959886875 1.4690625
v 0.63053625 1.21875 1.4690625
v 0.59324 1.03125 1.4690625
v 0.36946375 1.21875 1.4690625
v 0.40676 1.03125 1.4690625
v 0.12826437499999999 1.118841875 1.4690625
v 0.234474375 0.959886875 1.4690625
v -0.056341874999999986 0.934235625 1.4690625
v 0.10261312500000003 0.828025625 1.4690625
v -0.1875 0.59979625 1.4690625
v 0 0.5625 1.4690625
v 0 0.5625 2.0309375
v 0.10261312500000003 0.828025625 2.0309375
v -0.056341874999999986 0.934235625 2.0309375
v -0.1875 0.59979625 2.0309375
v 0.234474375 0.959886875 2.0309375
v 0.12826437499999999 1.118841875 2.0309375
v 0.40676 1.03125 2.0309375
v 0.36946375 1.21875 2.0309375
v 0.59324 1.03125 2.0309375
v 0.63053625 1.21875 2.0309375
v 0.765525625 0.959886875 2.0309375
v 0.871735625 1.118841875 2.0309375
v 0.897386875 0.828025625 2.0309375
v 1.056341875 0.934235625 2.0309375
v 1 0.5625 2.0309375
v 1.1875 0.59979625 2.0309375
vt 0.09375 0.4375
vt 0.43703625 0.4375
vt 0.4375 1
vt 0.09421375 1
vt 0.125 0
vt 0.40625 0
vt 0.40625 0.59375
vt 0.125 0.59375
vt 0.03138375 0.8125
vt 0.30378125 0.8125
vt 0.34375 0.99823125
vt 0 1
vt 0.40625 1
vt 0.15625 1
vt 0.15625 0.4375
vt 0.40625 0.4375
vt 0.21875 0
vt 0.40625 0
vt 0.40625 0.59375
vt 0.21875 0.59375
vt 0.34821375 0.8124975
vt 0.52678625 0.8124975
vt 0.5625 1
vt 0.3125 1
vt 0.40625 1
vt 0.15625 1
vt 0.15625 0.4375
vt 0.40625 0.4375
vt 0.21875 0
vt 0.40625 0
vt 0.40625 0.59375
vt 0.21875 0.59375
vt 0.56696375 0.8124975
vt 0.74553625 0.8124975
vt 0.78125 1
vt 0.53125 1
vt 0.40625 1
vt 0.15625 1
vt 0.15625 0.4375
vt 0.40625 0.4375
vt 0.21875 0
vt 0.40625 0
vt 0.40625 0.59375
vt 0.21875 0.59375
vt 0.03571375 0.8124975
vt 0.21428625 0.8124975
vt 0.25 1
vt 0 1
vt 0.40625 1
vt 0.15625 1
vt 0.15625 0.4375
vt 0.40625 0.4375
vt 0.21875 0
vt 0.40625 0
vt 0.40625 0.59375
vt 0.21875 0.59375
vt 0.25446375 0.8124975
vt 0.43303625 0.8124975
vt 0.46875 1
vt 0.21875 1
vt 0.40625 1
vt 0.15625 1
vt 0.15625 0.4375
vt 0.40625 0.4375
vt 0.21875 0
vt 0.40625 0
vt 0.40625 0.59375
vt 0.21875 0.59375
vt 0.47321375 0.8124975
vt 0.65178625 0.8124975
vt 0.6875 1
vt 0.4375 1
vt 0.09375 0.4375
vt 0.43703625 0.4375
vt 0.4375 1
vt 0.09421375 1
vt 0.125 0
vt 0.40625 0
vt 0.40625 0.59375
vt 0.125 0.59375
vt 0.68763375 0.8125
vt 0.96003125 0.8125
vt 1 0.99823125
vt 0.65625 1
vt 0.03138375 0.8125
vt 0.30378125 0.8125
vt 0.34375 0.99823125
vt 0 1
vt 0.34821375 0.8124975
vt 0.52678625 0.8124975
vt 0.5625 1
vt 0.3125 1
vt 0.56696375 0.8124975
vt 0.74553625 0.8124975
vt 0.78125 1
vt 0.53125 1
vt 0.03571375 0.8124975
vt 0.21428625 0.8124975
vt 0.25 1
vt 0 1
vt 0.25446375 0.8124975
vt 0.43303625 0.8124975
vt 0.46875 1
vt 0.21875 1
vt 0.47321375 0.8124975
vt 0.65178625 0.8124975
vt 0.6875 1
vt 0.4375 1
vt 0.68763375 0.8125
vt 0.96003125 0.8125
vt 1 0.99823125
vt 0.65625 1
vn 0.9309680619205846 0.36510062679188954 0
vn -0.9327701673762566 -0.3604716561019329 0
vn 0 0 -1
vn 0.7071067811865476 0.7071067811865476 0
vn -0.7071067811865476 -0.7071067811865476 0
vn 0 0 -1
vn 0.38268366985226454 0.9238794341408424 0
vn -0.382683810087095 -0.9238793760536191 0
vn 0 0 -1
vn 0 1 0
vn 0 -1 0
vn 0 0 -1
vn -0.38268366985226454 0.9238794341408424 0
vn 0.382683810087095 -0.9238793760536191 0
vn 0 0 -1
vn -0.7071067811865476 0.7071067811865476 0
vn 0.7071067811865476 -0.7071067811865476 0
vn 0 0 -1
vn -0.9309680619205846 0.36510062679188954 0
vn 0.9327701673762566 -0.3604716561019329 0
vn 0 0 -1
vn 0 0 1
vn 0 0 1
vn 0 0 1
vn 0 0 1
vn 0 0 1
vn 0 0 1
vn 0 0 1
usemtl m_frame
f 1/1/1 3/2/1 30/3/1 32/4/1
f 31/5/2 29/6/2 4/7/2 2/8/2
usemtl m_arch
f 2/9/3 4/10/3 3/11/3 1/12/3
usemtl m_frame
f 3/13/4 5/14/4 28/15/4 30/16/4
f 29/17/5 27/18/5 6/19/5 4/20/5
usemtl m_arch
f 4/21/6 6/22/6 5/23/6 3/24/6
usemtl m_frame
f 5/25/7 7/26/7 26/27/7 28/28/7
f 27/29/8 25/30/8 8/31/8 6/32/8
usemtl m_arch
f 6/33/9 8/34/9 7/35/9 5/36/9
usemtl m_frame
f 24/37/10 26/38/10 7/39/10 9/40/10
f 25/41/11 23/42/11 10/43/11 8/44/11
usemtl m_arch
f 8/45/12 10/46/12 9/47/12 7/48/12
usemtl m_frame
f 9/49/13 11/50/13 22/51/13 24/52/13
f 23/53/14 21/54/14 12/55/14 10/56/14
usemtl m_arch
f 10/57/15 12/58/15 11/59/15 9/60/15
usemtl m_frame
f 11/61/16 13/62/16 19/63/16 22/64/16
f 21/65/17 18/66/17 14/67/17 12/68/17
usemtl m_arch
f 12/69/18 14/70/18 13/71/18 11/72/18
usemtl m_frame
f 13/73/19 15/74/19 20/75/19 19/76/19
f 18/77/20 17/78/20 16/79/20 14/80/20
usemtl m_arch
f 14/81/21 16/82/21 15/83/21 13/84/21
f 17/85/22 18/86/22 19/87/22 20/88/22
f 18/89/23 21/90/23 22/91/23 19/92/23
f 21/93/24 23/94/24 24/95/24 22/96/24
f 23/97/25 25/98/25 26/99/25 24/100/25
f 25/101/26 27/102/26 28/103/26 26/104/26
f 27/105/27 29/106/27 30/107/27 28/108/27
f 29/109/28 31/110/28 32/111/28 30/112/28
o 1
v -0.12505948615113388 0.5652262117103335 2.00053125
v -0.12505948615113388 0.5652262117103335 1.49896875
v -0.11279153345463314 0.284243899390436 2.00053125
v -0.11279153345463314 0.284243899390436 1.49896875
v -0.1875 0.5625 1.49896875
v -0.1875 0.5625 2.00053125
v -0.17523204730349926 0.2815176876801025 1.49896875
v -0.17523204730349926 0.2815176876801025 2.00053125
vt 0.46875 1
vt 0.53125 1
vt 0.53125 0.71875
vt 0.46875 0.71875
vt 0.53125 1
vt 0.46875 1
vt 0.46875 0.71875
vt 0.53125 0.71875
vt 0.5 1
vt 0 1
vt 0 0.71875
vt 0.5 0.71875
vt 0.5 0.65625
vt 0.5 0.71875
vt 0 0.71875
vt 0 0.65625
vn 0 0 -1
vn 0 0 1
vn -0.9990482215818578 -0.043619387365336 0
vn 0.043619387365336 -0.9990482215818578 0
usemtl m_frame
f 36/116/29 39/115/29 37/114/29 34/113/29
f 40/120/30 35/119/30 33/118/30 38/117/30
f 39/124/31 40/123/31 38/122/31 37/121/31
f 39/128/32 36/127/32 35/126/32 40/125/32
o 2
v 1.1875 0.5625 2.00053125
v 1.1875 0.5625 1.49896875
v 1.1752320473034992 0.2815176876801025 2.00053125
v 1.1752320473034992 0.2815176876801025 1.49896875
v 1.1250594861511338 0.5652262117103335 1.49896875
v 1.1250594861511338 0.5652262117103335 2.00053125
v 1.1127915334546332 0.284243899390436 1.49896875
v 1.1127915334546332 0.284243899390436 2.00053125
vt 0.46875 1
vt 0.53125 1
vt 0.53125 0.71875
vt 0.46875 0.71875
vt 0 1
vt 0.5 1
vt 0.5 0.71875
vt 0 0.71875
vt 0.46875 1
vt 0.53125 1
vt 0.53125 0.71875
vt 0.46875 0.71875
vt 0 0.65625
vt 0 0.71875
vt 0.5 0.71875
vt 0.5 0.65625
vn 0 0 -1
vn 0.9990482215818578 -0.043619387365336 0
vn 0 0 1
vn -0.043619387365336 -0.9990482215818578 0
usemtl m_frame
f 44/132/33 47/131/33 45/130/33 42/129/33
f 43/136/34 44/135/34 42/134/34 41/133/34
f 48/140/35 43/139/35 41/138/35 46/137/35
f 47/144/36 44/143/36 43/142/36 48/141/36
o 3
v 0 0.71875 2.03125
v 0 0.71875 1.46875
v 0 0.5625 2.03125
v 0 0.5625 1.46875
v -0.21875 0.71875 1.46875
v -0.21875 0.71875 2.03125
v -0.21875 0.5625 1.46875
v -0.21875 0.5625 2.03125
vt 0.78125 0.65625
vt 1 0.65625
vt 1 0.5
vt 0.78125 0.5
vt 0.78125 0.5
vt 1 0.5
vt 1 0.34375
vt 0.78125 0.34375
vt 0 0.65625
vt 0.5625 0.65625
vt 0.5625 0.5
vt 0 0.5
vt 0 0.5
vt 0 0.6875
vt 0.5625 0.6875
vt 0.5625 0.5
vt 0 0.5
vt 0 0.6875
vt 0.5625 0.6875
vt 0.5625 0.5
vn 0 0 -1
vn 0 0 1
vn -1 0 0
vn 0 1 0
vn 0 -1 0
usemtl m_arch
f 52/148/37 55/147/37 53/146/37 50/145/37
f 56/152/38 51/151/38 49/150/38 54/149/38
f 55/156/39 56/155/39 54/154/39 53/153/39
f 54/160/40 49/159/40 50/158/40 53/157/40
f 55/164/41 52/163/41 51/162/41 56/161/41
o 4
v 0.03125 0.6875 2.003125
v 0.03125 0.6875 1.4968750000000002
v 0.03125 0.53125 2.003125
v 0.03125 0.53125 1.4968750000000002
v -0.1875 0.6875 1.4968750000000002
v -0.1875 0.6875 2.003125
v -0.1875 0.53125 1.4968750000000002
v -0.1875 0.53125 2.003125
vt 0.34375 0.5
vt 0.5625 0.5
vt 0.5625 0.34375
vt 0.34375 0.34375
vt 0.5625 0.5
vt 0.34375 0.5
vt 0.34375 0.34375
vt 0.5625 0.34375
vt 0.1875 0.1875
vt 0.1875 0.6875
vt 0.34375 0.6875
vt 0.34375 0.1875
vt 0 0.28125
vt 0 0.4375
vt 0.5 0.4375
vt 0.5 0.28125
vn 0 0 -1
vn 0 0 1
vn -1 0 0
vn 0 -1 0
usemtl m_arch
f 60/168/42 63/167/42 61/166/42 58/165/42
f 64/172/43 59/171/43 57/170/43 62/169/43
usemtl m_frame
f 63/176/44 64/175/44 62/174/44 61/173/44
f 63/180/45 60/179/45 59/178/45 64/177/45
o 5
v 1.1875 0.6875 2.003125
v 1.1875 0.6875 1.4968750000000002
v 1.1875 0.53125 2.003125
v 1.1875 0.53125 1.4968750000000002
v 0.96875 0.6875 1.4968750000000002
v 0.96875 0.6875 2.003125
v 0.96875 0.53125 1.4968750000000002
v 0.96875 0.53125 2.003125
vt 0.5625 0.5
vt 0.34375 0.5
vt 0.34375 0.34375
vt 0.5625 0.34375
vt 0.1875 0.1875
vt 0.1875 0.6875
vt 0.34375 0.6875
vt 0.34375 0.1875
vt 0.34375 0.5
vt 0.5625 0.5
vt 0.5625 0.34375
vt 0.34375 0.34375
vt 0 0.84375
vt 0 1
vt 0.5 1
vt 0.5 0.84375
vn 0 0 -1
vn 1 0 0
vn 0 0 1
vn 0 -1 0
usemtl m_arch
f 68/184/46 71/183/46 69/182/46 66/181/46
usemtl m_frame
f 67/188/47 68/187/47 66/186/47 65/185/47
usemtl m_arch
f 72/192/48 67/191/48 65/190/48 70/189/48
usemtl m_frame
f 71/196/49 68/195/49 67/194/49 72/193/49
o 6
v 1.21875 0.71875 2.03125
v 1.21875 0.71875 1.46875
v 1.21875 0.5625 2.03125
v 1.21875 0.5625 1.46875
v 1 0.71875 1.46875
v 1 0.71875 2.03125
v 1 0.5625 1.46875
v 1 0.5625 2.03125
vt 0.78125 0.5
vt 1 0.5
vt 1 0.34375
vt 0.78125 0.34375
vt 0 0.65625
vt 0.5625 0.65625
vt 0.5625 0.5
vt 0 0.5
vt 0.78125 0.65625
vt 1 0.65625
vt 1 0.5
vt 0.78125 0.5
vt 0 0.6875
vt 0 0.5
vt 0.5625 0.5
vt 0.5625 0.6875
vt 0 0.6875
vt 0 0.5
vt 0.5625 0.5
vt 0.5625 0.6875
vn 0 0 -1
vn 1 0 0
vn 0 0 1
vn 0 1 0
vn 0 -1 0
usemtl m_arch
f 76/200/50 79/199/50 77/198/50 74/197/50
f 75/204/51 76/203/51 74/202/51 73/201/51
f 80/208/52 75/207/52 73/206/52 78/205/52
f 78/212/53 73/211/53 74/210/53 77/209/53
f 79/216/54 76/215/54 75/214/54 80/213/54
o 7
v 0.0012499999999999734 0.53125 2.0015625
v 0.0012499999999999734 0.53125 1.4984375
v 0.0012499999999999734 0 2.0015625
v 0.0012499999999999734 0 1.4984375
v -0.15500000000000003 0.53125 1.4984375
v -0.15500000000000003 0.53125 2.0015625
v -0.15500000000000003 0 1.4984375
v -0.15500000000000003 0 2.0015625
vt 0.5 0.53125
vt 0.65625 0.53125
vt 0.65625 0
vt 0.5 0
vt 0 0.53125
vt 0.50125 0.53125
vt 0.50125 0
vt 0 0
vt 0.5 0.53125
vt 0.65625 0.53125
vt 0.65625 0
vt 0.5 0
vt 0.50125 0.53125
vt 0 0.53125
vt 0 0
vt 0.50125 0
vn 0 0 -1
vn 1 0 0
vn 0 0 1
vn -1 0 0
usemtl m_frame
f 84/220/55 87/219/55 85/218/55 82/217/55
f 83/224/56 84/223/56 82/222/56 81/221/56
f 88/228/57 83/227/57 81/226/57 86/225/57
f 87/232/58 88/231/58 86/230/58 85/229/58
o 8
v 1.155625 0.53125 2.0015625
v 1.155625 0.53125 1.4984375
v 1.155625 0 2.0015625
v 1.155625 0 1.4984375
v 0.9993749999999999 0.53125 1.4984375
v 0.9993749999999999 0.53125 2.0015625
v 0.9993749999999999 0 1.4984375
v 0.9993749999999999 0 2.0015625
vt 0.5 0.53125
vt 0.65625 0.53125
vt 0.65625 0
vt 0.5 0
vt 0 0.53125
vt 0.50125 0.53125
vt 0.50125 0
vt 0 0
vt 0.5 0.53125
vt 0.65625 0.53125
vt 0.65625 0
vt 0.5 0
vt 0.50125 0.53125
vt 0 0.53125
vt 0 0
vt 0.50125 0
vn 0 0 -1
vn 1 0 0
vn 0 0 1
vn -1 0 0
usemtl m_frame
f 92/236/59 95/235/59 93/234/59 90/233/59
f 91/240/60 92/239/60 90/238/60 89/237/60
f 96/244/61 91/243/61 89/242/61 94/241/61
f 95/248/62 96/247/62 94/246/62 93/245/62
o 9
v 1.09375 0.55611375 1.4984375
v 0.96875 0.53125 1.4984375
v 0.950371875 0.86342875 1.4984375
v 0.844401875 0.792621875 1.4984375
v 0.80092875 1.012871875 1.4984375
v 0.730121875 0.906901875 1.4984375
v 0.6056725000000001 1.09375 1.4984375
v 0.580808125 0.96875 1.4984375
v 0.3943275 1.09375 1.4984375
v 0.419191875 0.96875 1.4984375
v 0.19907124999999998 1.012871875 1.4984375
v 0.26987812499999997 0.906901875 1.4984375
v 0.04962812500000002 0.86342875 1.4984375
v 0.15559812499999998 0.792621875 1.4984375
v -0.09375 0.55611375 1.4984375
v 0.03125 0.53125 1.4984375
v 0.15559812499999998 0.792621875 2.0015625
v 0.26987812499999997 0.906901875 2.0015625
v 0.19907124999999998 1.012871875 2.0015625
v 0.04962812500000002 0.86342875 2.0015625
v 0.03125 0.53125 2.0015625
v -0.09375 0.55611375 2.0015625
v 0.419191875 0.96875 2.0015625
v 0.3943275 1.09375 2.0015625
v 0.580808125 0.96875 2.0015625
v 0.6056725000000001 1.09375 2.0015625
v 0.730121875 0.906901875 2.0015625
v 0.80092875 1.012871875 2.0015625
v 0.844401875 0.792621875 2.0015625
v 0.950371875 0.86342875 2.0015625
v 0.96875 0.53125 2.0015625
v 1.09375 0.55611375 2.0015625
vt 0 0.84375
vt 0 0.5625
vt 0.5 0.5625
vt 0.5 0.84375
vt 0.031679375 0.6875
vt 0.325085625 0.6875
vt 0.34375 0.8125
vt 0 0.809969375
vt 0 0.5625
vt 0 0.40625
vt 0.5 0.40625
vt 0.5 0.5625
vt 0.338239375 0.6875
vt 0.505510625 0.6875
vt 0.53125 0.8125
vt 0.3125 0.8125
vt 0 0.40625
vt 0 0.25
vt 0.5 0.25
vt 0.5 0.40625
vt 0.525739375 0.6875
vt 0.693010625 0.6875
vt 0.71875 0.8125
vt 0.5 0.8125
vt 0 0.25
vt 0 0.09375
vt 0.5 0.09375
vt 0.5 0.25
vt 0.713239375 0.6875
vt 0.880510625 0.6875
vt 0.90625 0.8125
vt 0.6875 0.8125
vt 0 1
vt 0 0.84375
vt 0.5 0.84375
vt 0.5 1
vt 0.025739375 0.6875
vt 0.193010625 0.6875
vt 0.21875 0.8125
vt 0 0.8125
vt 0 0.84375
vt 0 0.6875
vt 0.5 0.6875
vt 0.5 0.84375
vt 0.213239375 0.6875
vt 0.380510625 0.6875
vt 0.40625 0.8125
vt 0.1875 0.8125
vt 0.5 0.6875
vt 0 0.6875
vt 0 0.40625
vt 0.5 0.40625
vt 0.71875 0.8125
vt 0.700085625 0.6875
vt 0.406679375 0.6875
vt 0.375 0.809969375
vt 0.031679375 0.6875
vt 0.325085625 0.6875
vt 0.34375 0.8125
vt 0 0.809969375
vt 0.338239375 0.6875
vt 0.505510625 0.6875
vt 0.53125 0.8125
vt 0.3125 0.8125
vt 0.525739375 0.6875
vt 0.693010625 0.6875
vt 0.71875 0.8125
vt 0.5 0.8125
vt 0.713239375 0.6875
vt 0.880510625 0.6875
vt 0.90625 0.8125
vt 0.6875 0.8125
vt 0.025739375 0.6875
vt 0.193010625 0.6875
vt 0.21875 0.8125
vt 0 0.8125
vt 0.213239375 0.6875
vt 0.380510625 0.6875
vt 0.40625 0.8125
vt 0.1875 0.8125
vt 0.71875 0.8125
vt 0.700085625 0.6875
vt 0.406679375 0.6875
vt 0.375 0.809969375
vn -0.9030142473156678 -0.4296106017603827 0
vn 0 0 -1
vn -0.7071067811865476 -0.7071067811865476 0
vn 0 0 -1
vn -0.3826852528560068 -0.9238787784371574 0
vn 0 0 -1
vn 0 -1 0
vn 0 0 -1
vn 0.3826852528560068 -0.9238787784371574 0
vn 0 0 -1
vn 0.7071067811865476 -0.7071067811865476 0
vn 0 0 -1
vn 0.9030142473156678 -0.4296106017603827 0
vn 0 0 -1
vn 0 0 1
vn 0 0 1
vn 0 0 1
vn 0 0 1
vn 0 0 1
vn 0 0 1
vn 0 0 1
usemtl m_frame
f 127/249/63 125/250/63 100/251/63 98/252/63
usemtl m_arch
f 98/253/64 100/254/64 99/255/64 97/256/64
usemtl m_frame
f 125/257/65 123/258/65 102/259/65 100/260/65
usemtl m_arch
f 100/261/66 102/262/66 101/263/66 99/264/66
usemtl m_frame
f 123/265/67 121/266/67 104/267/67 102/268/67
usemtl m_arch
f 102/269/68 104/270/68 103/271/68 101/272/68
usemtl m_frame
f 121/273/69 119/274/69 106/275/69 104/276/69
usemtl m_arch
f 104/277/70 106/278/70 105/279/70 103/280/70
usemtl m_frame
f 119/281/71 114/282/71 108/283/71 106/284/71
usemtl m_arch
f 106/285/72 108/286/72 107/287/72 105/288/72
usemtl m_frame
f 114/289/73 113/290/73 110/291/73 108/292/73
usemtl m_arch
f 108/293/74 110/294/74 109/295/74 107/296/74
usemtl m_frame
f 110/297/75 113/298/75 117/299/75 112/300/75
usemtl m_arch
f 109/301/76 110/302/76 112/303/76 111/304/76
f 117/305/77 113/306/77 116/307/77 118/308/77
f 113/309/78 114/310/78 115/311/78 116/312/78
f 114/313/79 119/314/79 120/315/79 115/316/79
f 119/317/80 121/318/80 122/319/80 120/320/80
f 121/321/81 123/322/81 124/323/81 122/324/81
f 123/325/82 125/326/82 126/327/82 124/328/82
f 126/329/83 125/330/83 127/331/83 128/332/83
o 11
v 0.609375 1.3390461361370498 1.4768939385651394
v 0.609375 1.2912107070914134 1.3614089970012284
v 0.609375 1.0792050176182504 1.5845236539178207
v 0.609375 1.0313695885726142 1.46903871235391
v 0.390625 1.2912107070914134 1.3614089970012284
v 0.390625 1.3390461361370498 1.4768939385651394
v 0.390625 1.0313695885726142 1.46903871235391
v 0.390625 1.0792050176182504 1.5845236539178207
vt 0 0.5
vt 0.21875 0.5
vt 0.21875 0.21875
vt 0 0.21875
vt 0.21875 0.5
vt 0.34375 0.5
vt 0.34375 0.21875
vt 0.21875 0.21875
vt 0 0.5
vt 0.21875 0.5
vt 0.21875 0.21875
vt 0 0.21875
vt 0.21875 0.5
vt 0.34375 0.5
vt 0.34375 0.21875
vt 0.21875 0.21875
vt 0 0.21875
vt 0.21875 0.21875
vt 0.21875 0.09375
vt 0 0.09375
vn 0 -0.3826834323650897 -0.9238795325112867
vn 1 0 0
vn 0 0.3826834323650897 0.9238795325112867
vn -1 0 0
vn 0 0.9238795325112867 -0.3826834323650897
usemtl m_arch
f 132/336/84 135/335/84 133/334/84 130/333/84
f 131/340/85 132/339/85 130/338/85 129/337/85
f 136/344/86 131/343/86 129/342/86 134/341/86
f 135/348/87 136/347/87 134/346/87 133/345/87
f 134/352/88 129/351/88 130/350/88 133/349/88
o 12
v 0.609375 1.2912107070914134 2.138591002998772
v 0.609375 1.3390461361370496 2.023106061434861
v 0.609375 1.031369588572614 2.0309612876460905
v 0.609375 1.0792050176182502 1.9154763460821798
v 0.390625 1.3390461361370496 2.023106061434861
v 0.390625 1.2912107070914134 2.138591002998772
v 0.390625 1.0792050176182502 1.9154763460821798
v 0.390625 1.031369588572614 2.0309612876460905
vt 0.21875 0.5
vt 0 0.5
vt 0 0.21875
vt 0.21875 0.21875
vt 0.34375 0.5
vt 0.21875 0.5
vt 0.21875 0.21875
vt 0.34375 0.21875
vt 0.21875 0.5
vt 0 0.5
vt 0 0.21875
vt 0.21875 0.21875
vt 0.34375 0.5
vt 0.21875 0.5
vt 0.21875 0.21875
vt 0.34375 0.21875
vt 0 0.09375
vt 0.21875 0.09375
vt 0.21875 0.21875
vt 0 0.21875
vn 0 0.3826834323650897 -0.9238795325112867
vn 1 0 0
vn 0 -0.3826834323650897 0.9238795325112867
vn -1 0 0
vn 0 0.9238795325112867 0.3826834323650897
usemtl m_arch
f 140/356/89 143/355/89 141/354/89 138/353/89
f 139/360/90 140/359/90 138/358/90 137/357/90
f 144/364/91 139/363/91 137/362/91 142/361/91
f 143/368/92 144/367/92 142/366/92 141/365/92
f 142/372/93 137/371/93 138/370/93 141/369/93