# Made in Blockbench 4.12.6
mtllib metal_tub.mtl

o tub
v 0.659095 0 1.09375
v 0.684215 0.53125 1.1875
v 0.6465350000000001 0.0625 1.046875
v 0.6674681250000001 0.53125 1.125
v 0.934655 0 0.934655
v 1.003285 0.53125 1.003285
v 0.9003399999999999 0.0625 0.9003399999999999
v 0.9575318749999999 0.53125 0.9575318749999999
v 1.09375 0 0.659095
v 1.1875 0.53125 0.684215
v 1.046875 0.0625 0.646535
v 1.125 0.53125 0.667468125
v 1.09375 0 0.34090499999999996
v 1.1875 0.53125 0.3157849999999999
v 1.046875 0.0625 0.353465
v 1.125 0.53125 0.332531875
v 0.934655 0 0.06534499999999993
v 1.003285 0.53125 -0.003285000000000038
v 0.9003399999999999 0.0625 0.09965999999999992
v 0.9575318749999999 0.53125 0.04246812499999991
v 0.659095 0 -0.09375000000000006
v 0.684215 0.53125 -0.18750000000000006
v 0.6465350000000001 0.0625 -0.046875000000000056
v 0.6674681250000001 0.53125 -0.12500000000000006
v 0.34090500000000024 0 -0.09375000000000006
v 0.315785 0.53125 -0.18750000000000006
v 0.3534649999999999 0.0625 -0.046875000000000056
v 0.3325318749999999 0.53125 -0.12500000000000006
v 0.06534499999999976 0 0.06534499999999993
v -0.0032849999999999824 0.53125 -0.003285000000000038
v 0.09966000000000008 0.0625 0.09965999999999992
v 0.04246812500000008 0.53125 0.04246812499999991
v -0.09375 0 0.34090499999999996
v -0.1875 0.53125 0.3157849999999999
v -0.046875 0.0625 0.353465
v -0.125 0.53125 0.332531875
v -0.09375 0 0.659095
v -0.1875 0.53125 0.684215
v -0.046875 0.0625 0.646535
v -0.125 0.53125 0.667468125
v 0.06534499999999976 0 0.934655
v -0.0032849999999999824 0.53125 1.003285
v 0.09966000000000008 0.0625 0.9003399999999999
v 0.04246812500000008 0.53125 0.9575318749999999
v 0.34090500000000024 0 1.09375
v 0.315785 0.53125 1.1875
v 0.3534649999999999 0.0625 1.046875
v 0.3325318749999999 0.53125 1.125
vt 0.203125 0
vt 0.359375 0
vt 0.375 0.28125
vt 0.1875 0.28125
vt 1 0.25
vt 0.828125 0.25
vt 0.84375 0
vt 0.984375 0
vt 0.5625 0.3125
vt 0.375 0.3125
vt 0.3828125 0.28125
vt 0.5546875 0.28125
vt 0.390625 0
vt 0.546875 0
vt 0.5625 0.28125
vt 0.375 0.28125
vt 0.828125 0.25
vt 0.65625 0.25
vt 0.671875 0
vt 0.8125 0
vt 0.375 0.3125
vt 0.1875 0.3125
vt 0.1953125 0.28125
vt 0.3671875 0.28125
vt 0.015625 0
vt 0.171875 0
vt 0.1875 0.28125
vt 0 0.28125
vt 1 0.25
vt 0.828125 0.25
vt 0.84375 0
vt 0.984375 0
vt 0.1875 0.3125
vt 0 0.3125
vt 0.0078125 0.28125
vt 0.1796875 0.28125
vt 0.203125 0
vt 0.359375 0
vt 0.375 0.28125
vt 0.1875 0.28125
vt 0.828125 0.25
vt 0.65625 0.25
vt 0.671875 0
vt 0.8125 0
vt 0.5625 0.3125
vt 0.375 0.3125
vt 0.3828125 0.28125
vt 0.5546875 0.28125
vt 0.390625 0
vt 0.546875 0
vt 0.5625 0.28125
vt 0.375 0.28125
vt 1 0.25
vt 0.828125 0.25
vt 0.84375 0
vt 0.984375 0
vt 0.375 0.3125
vt 0.1875 0.3125
vt 0.1953125 0.28125
vt 0.3671875 0.28125
vt 0.015625 0
vt 0.171875 0
vt 0.1875 0.28125
vt 0 0.28125
vt 0.828125 0.25
vt 0.65625 0.25
vt 0.671875 0
vt 0.8125 0
vt 0.1875 0.3125
vt 0 0.3125
vt 0.0078125 0.28125
vt 0.1796875 0.28125
vt 0.203125 0
vt 0.359375 0
vt 0.375 0.28125
vt 0.1875 0.28125
vt 1 0.25
vt 0.828125 0.25
vt 0.84375 0
vt 0.984375 0
vt 0.5625 0.3125
vt 0.375 0.3125
vt 0.3828125 0.28125
vt 0.5546875 0.28125
vt 0.390625 0
vt 0.546875 0
vt 0.5625 0.28125
vt 0.375 0.28125
vt 0.828125 0.25
vt 0.65625 0.25
vt 0.671875 0
vt 0.8125 0
vt 0.375 0.3125
vt 0.1875 0.3125
vt 0.1953125 0.28125
vt 0.3671875 0.28125
vt 0.015625 0
vt 0.171875 0
vt 0.1875 0.28125
vt 0 0.28125
vt 1 0.25
vt 0.828125 0.25
vt 0.84375 0
vt 0.984375 0
vt 0.1875 0.3125
vt 0 0.3125
vt 0.0078125 0.28125
vt 0.1796875 0.28125
vt 0.5625 0.3125
vt 0.375 0.3125
vt 0.3828125 0.28125
vt 0.5546875 0.28125
vt 0.390625 0
vt 0.546875 0
vt 0.5625 0.28125
vt 0.375 0.28125
vt 1 0.25
vt 0.828125 0.25
vt 0.84375 0
vt 0.984375 0
vt 0.375 0.3125
vt 0.1875 0.3125
vt 0.1953125 0.28125
vt 0.3671875 0.28125
vt 0.015625 0
vt 0.171875 0
vt 0.1875 0.28125
vt 0 0.28125
vt 0.828125 0.25
vt 0.65625 0.25
vt 0.671875 0
vt 0.8125 0
vt 0.1875 0.3125
vt 0 0.3125
vt 0.0078125 0.28125
vt 0.1796875 0.28125
vt 0.0795475 0.4857975
vt 0.5142025 0.4857975
vt 0.3764225 0.40625
vt 0.2173275 0.40625
vt 0.0795475 0.9204525
vt 0.0795475 0.4857975
vt 0 0.6235775
vt 0 0.7826725
vt 0.5142025 0.9204525
vt 0.0795475 0.9204525
vt 0.2173275 1
vt 0.3764225 1
vt 0.5142025 0.4857975
vt 0.5142025 0.9204525
vt 0.59375 0.7826725
vt 0.59375 0.6235775
vt 0.0795475 0.9204525
vt 0.5142025 0.9204525
vt 0.5142025 0.4857975
vt 0.0795475 0.4857975
vt 0.2236075 0.4296875
vt 0.3701425 0.4296875
vt 0.497045 0.502955
vt 0.096705 0.502955
vt 0.0234375 0.7763925
vt 0.0234375 0.6298578125000001
vt 0.096705 0.502955
vt 0.096705 0.9032953125000001
vt 0.3701425 0.9765625
vt 0.2236075 0.9765625
vt 0.096705 0.9032953125000001
vt 0.497045 0.9032953125000001
vt 0.5703125 0.6298578125000001
vt 0.5703125 0.7763925
vt 0.497045 0.9032953125000001
vt 0.497045 0.502955
vt 0.096705 0.9032953125000001
vt 0.096705 0.502955
vt 0.497045 0.502955
vt 0.497045 0.9032953125000001
vt 0.203125 0
vt 0.359375 0
vt 0.375 0.28125
vt 0.1875 0.28125
vt 0.828125 0.25
vt 0.65625 0.25
vt 0.671875 0
vt 0.8125 0
vn 0.4923925594239945 -0.17378595963069074 0.8528470013191864
vn -0.49319629737295806 0.1644000931513907 -0.8542423670302353
vn 0 1 0
vn 0.8528471362343648 -0.1737850768402578 0.4923926373174852
vn -0.8542425824411599 0.1643986007446581 -0.49319642174032097
vn 0 1 0
vn 0.9847835588179369 -0.17378533390904768 0
vn -0.9863939238321437 0.1643989873053573 0
vn 0 1 0
vn 0.8528470013191864 -0.17378595963069074 -0.4923925594239945
vn -0.8542423670302352 0.1644000931513907 0.49319629737295795
vn 0 1 0
vn 0.4923926373174852 -0.1737850768402578 -0.8528471362343648
vn -0.49319642174032097 0.1643986007446581 0.85424258244116
vn 0 1 0
vn 0 -0.17378533390904768 -0.9847835588179369
vn 0 0.1643989873053573 0.9863939238321437
vn 0 1 0
vn -0.4923925594239939 -0.1737859596306905 -0.8528470013191868
vn 0.49319629737295806 0.1644000931513907 0.8542423670302353
vn 0 1 0
vn -0.8528471362343651 -0.17378507684025776 -0.4923926373174847
vn 0.8542425824411601 0.1643986007446581 0.493196421740321
vn 0 1 0
vn -0.9847835588179369 -0.17378533390904768 0
vn 0.9863939238321437 0.1643989873053573 0
vn 0 1 0
vn 0 1 0
vn -0.49239263731748467 -0.17378507684025804 0.8528471362343651
vn 0.49319642174032097 0.1643986007446581 -0.85424258244116
vn 0 1 0
vn 0 -0.17378533390904768 0.9847835588179369
vn 0 0.1643989873053573 -0.9863939238321437
vn 0 1 0
vn 0 -1 0
vn 0 -1 0
vn 0 -1 0
vn 0 -1 0
vn 0 -1 0
vn 0 1 0
vn 0 1 0
vn 0 1 0
vn 0 1 0
vn 0 1 0
vn -0.8528470013191868 -0.17378595963069035 0.492392559423994
vn 0.8542423670302352 0.16440009315139067 -0.49319629737295806
usemtl m_1dfb9fc9-b952-0da3-4703-d5fd552f91b7
f 1/1/1 5/2/1 6/3/1 2/4/1
f 4/5/2 8/6/2 7/7/2 3/8/2
f 2/9/3 6/10/3 8/11/3 4/12/3
f 5/13/4 9/14/4 10/15/4 6/16/4
f 8/17/5 12/18/5 11/19/5 7/20/5
f 6/21/6 10/22/6 12/23/6 8/24/6
f 9/25/7 13/26/7 14/27/7 10/28/7
f 12/29/8 16/30/8 15/31/8 11/32/8
f 10/33/9 14/34/9 16/35/9 12/36/9
f 13/37/10 17/38/10 18/39/10 14/40/10
f 16/41/11 20/42/11 19/43/11 15/44/11
f 14/45/12 18/46/12 20/47/12 16/48/12
f 17/49/13 21/50/13 22/51/13 18/52/13
f 20/53/14 24/54/14 23/55/14 19/56/14
f 18/57/15 22/58/15 24/59/15 20/60/15
f 21/61/16 25/62/16 26/63/16 22/64/16
f 24/65/17 28/66/17 27/67/17 23/68/17
f 22/69/18 26/70/18 28/71/18 24/72/18
f 25/73/19 29/74/19 30/75/19 26/76/19
f 28/77/20 32/78/20 31/79/20 27/80/20
f 26/81/21 30/82/21 32/83/21 28/84/21
f 29/85/22 33/86/22 34/87/22 30/88/22
f 32/89/23 36/90/23 35/91/23 31/92/23
f 30/93/24 34/94/24 36/95/24 32/96/24
f 33/97/25 37/98/25 38/99/25 34/100/25
f 36/101/26 40/102/26 39/103/26 35/104/26
f 34/105/27 38/106/27 40/107/27 36/108/27
f 38/109/28 42/110/28 44/111/28 40/112/28
f 41/113/29 45/114/29 46/115/29 42/116/29
f 44/117/30 48/118/30 47/119/30 43/120/30
f 42/121/31 46/122/31 48/123/31 44/124/31
f 45/125/32 1/126/32 2/127/32 46/128/32
f 48/129/33 4/130/33 3/131/33 47/132/33
f 46/133/34 2/134/34 4/135/34 48/136/34
f 41/137/35 5/138/35 1/139/35 45/140/35
f 29/141/36 41/142/36 37/143/36 33/144/36
f 17/145/37 29/146/37 25/147/37 21/148/37
f 5/149/38 17/150/38 13/151/38 9/152/38
f 29/153/39 17/154/39 5/155/39 41/156/39
f 47/157/40 3/158/40 7/159/40 43/160/40
f 35/161/41 39/162/41 43/163/41 31/164/41
f 23/165/42 27/166/42 31/167/42 19/168/42
f 11/169/43 15/170/43 19/171/43 7/172/43
f 31/173/44 43/174/44 7/175/44 19/176/44
f 37/177/45 41/178/45 42/179/45 38/180/45
f 40/181/46 44/182/46 43/183/46 39/184/46