# Made in Blockbench 4.12.1
mtllib slope.mtl

o element1
v 1 0.11180335123995166 -0.05590179470746903
v 0 0.11180335123995166 -0.05590179470746903
v 0 0.6118029785522312 0.9440953296204682
v 1 0.6118029785522312 0.9440953296204682
v 1 -0.11180335123995161 0.05590179470746903
v 1 0.3881962760723281 1.0558989190354062
v 0 -0.11180335123995161 0.05590179470746903
v 0 0.3881962760723281 1.0558989190354062
vt 0 0
vt 1 0
vt 1 1
vt 0 1
vt 0.375 0
vt 0.625 0
vt 0.625 1
vt 0.375 1
vt 0 0
vt 1 0
vt 1 1
vt 0 1
vt 0.375 0
vt 0.625 0
vt 0.625 1
vt 0.375 1
vt 0 0.375
vt 1 0.375
vt 1 0.625
vt 0 0.625
vt 0 0.375
vt 1 0.375
vt 1 0.625
vt 0 0.625
vn 0 0.894426809919613 -0.44721435765975204
vn 1 0 0
vn 0 -0.8944268099196129 0.4472143576597521
vn -1 0 0
vn 0 0.4472143576597524 0.8944268099196128
vn 0 -0.44721435765975215 -0.8944268099196129
usemtl side
f 1/1/1 2/2/1 3/3/1 4/4/1
f 5/5/2 1/6/2 4/7/2 6/8/2
f 7/9/3 5/10/3 6/11/3 8/12/3
f 2/13/4 7/14/4 8/15/4 3/16/4
f 8/17/5 6/18/5 4/19/5 3/20/5
f 2/21/6 1/22/6 5/23/6 7/24/6
o element2
v 1 0.6118033512399517 0.9440982052925309
v 0 0.6118033512399517 0.9440982052925309
v 0 0.8618031648960915 1.4440967674564997
v 1 0.8618031648960915 1.4440967674564997
v 1 0.38819664876004834 1.055901794707469
v 1 0.6381964624161882 1.5559003568714376
v 0 0.38819664876004834 1.055901794707469
v 0 0.6381964624161882 1.5559003568714376
vt 0 0
vt 1 0
vt 1 0.5
vt 0 0.5
vt 0.375 0
vt 0.625 0
vt 0.625 0.5
vt 0.375 0.5
vt 0 0
vt 1 0
vt 1 0.5
vt 0 0.5
vt 0.375 0
vt 0.625 0
vt 0.625 0.5
vt 0.375 0.5
vt 0 0.375
vt 1 0.375
vt 1 0.625
vt 0 0.625
vt 0 0.375
vt 1 0.375
vt 1 0.625
vt 0 0.625
vn 0 0.894426809919613 -0.4472143576597519
vn 1 0 0
vn 0 -0.894426809919613 0.44721435765975215
vn -1 0 0
vn 0 0.44721435765975137 0.8944268099196133
vn 0 -0.44721435765975204 -0.8944268099196129
usemtl side
f 9/25/7 10/26/7 11/27/7 12/28/7
f 13/29/8 9/30/8 12/31/8 14/32/8
f 15/33/9 13/34/9 14/35/9 16/36/9
f 10/37/10 15/38/10 16/39/10 11/40/10
f 16/41/11 14/42/11 12/43/11 11/44/11
f 10/45/12 9/46/12 13/47/12 15/48/12
o element3
v 1 -0.13819852482750844 -0.5559034165361859
v 0 -0.13819852482750844 -0.5559034165361859
v 0 0.111802686373499 -0.055902059288436445
v 1 0.111802686373499 -0.055902059288436445
v 1 -0.36180522730741166 -0.44409982712124785
v 1 -0.11180401610640422 0.055901530126501564
v 0 -0.36180522730741166 -0.44409982712124785
v 0 -0.11180401610640422 0.055901530126501564
vt 0 0.5
vt 1 0.5
vt 1 1
vt 0 1
vt 0.375 0.5
vt 0.625 0.5
vt 0.625 1
vt 0.375 1
vt 0 0.5
vt 1 0.5
vt 1 1
vt 0 1
vt 0.375 0.5
vt 0.625 0.5
vt 0.625 1
vt 0.375 1
vt 0 0.375
vt 1 0.375
vt 1 0.625
vt 0 0.625
vt 0 0.375
vt 1 0.375
vt 1 0.625
vt 0 0.625
vn 0 0.8944268099196131 -0.4472143576597521
vn 1 0 0
vn 0 -0.8944268099196129 0.4472143576597521
vn -1 0 0
vn 0 0.44721435765975204 0.8944268099196129
vn 0 -0.44721435765975226 -0.8944268099196129
usemtl side
f 17/49/13 18/50/13 19/51/13 20/52/13
f 21/53/14 17/54/14 20/55/14 22/56/14
f 23/57/15 21/58/15 22/59/15 24/60/15
f 18/61/16 23/62/16 24/63/16 19/64/16
f 24/65/17 22/66/17 20/67/17 19/68/17
f 18/69/18 17/70/18 21/71/18 23/72/18