# Blender 4.2.2 LTS
# www.blender.org
mtllib slope.mtl
o center
v 1.000000 0.058768 -0.030317
v 0.000000 0.058768 -0.030317
v 0.000000 0.308882 0.970143
v 1.000000 0.308882 0.970143
v 1.000000 -0.183768 0.030317
v 1.000000 0.066346 1.030777
v 0.000000 -0.183768 0.030317
v 0.000000 0.066346 1.030777
vn -0.0000 0.9701 -0.2425
vn 1.0000 -0.0000 -0.0000
vn -0.0000 -0.9701 0.2425
vn -1.0000 -0.0000 -0.0000
vn -0.0000 0.2425 0.9701
vn -0.0000 -0.2425 -0.9701
vt 0.000000 0.000000
vt 1.000000 0.000000
vt 1.000000 1.000000
vt 0.000000 1.000000
vt 0.375000 0.000000
vt 0.625000 0.000000
vt 0.625000 1.000000
vt 0.375000 1.000000
vt 0.000000 0.375000
vt 1.000000 0.375000
vt 1.000000 0.625000
vt 0.000000 0.625000
s 0
usemtl side
f 1/1/1 2/2/1 3/3/1 4/4/1
f 5/5/2 1/6/2 4/7/2 6/8/2
f 7/1/3 5/2/3 6/3/3 8/4/3
f 2/5/4 7/6/4 8/7/4 3/8/4
f 8/9/5 6/10/5 4/11/5 3/12/5
f 2/11/6 1/12/6 5/9/6 7/10/6
o u
v 1.000000 0.308882 0.970143
v 0.000000 0.308882 0.970143
v 0.000000 0.433939 1.470373
v 1.000000 0.433939 1.470373
v 1.000000 0.066346 1.030777
v 1.000000 0.191403 1.531006
v 0.000000 0.066346 1.030777
v 0.000000 0.191403 1.531006
vn -0.0000 0.9701 -0.2425
vn 1.0000 -0.0000 -0.0000
vn -0.0000 -0.9701 0.2425
vn -1.0000 -0.0000 -0.0000
vn -0.0000 0.2425 0.9701
vn -0.0000 -0.2425 -0.9701
vt 0.000000 0.000000
vt 1.000000 0.000000
vt 1.000000 0.500000
vt 0.000000 0.500000
vt 0.375000 0.000000
vt 0.625000 0.000000
vt 0.625000 0.500000
vt 0.375000 0.500000
vt 0.000000 0.375000
vt 1.000000 0.375000
vt 1.000000 0.625000
vt 0.000000 0.625000
s 0
usemtl side
f 9/13/7 10/14/7 11/15/7 12/16/7
f 13/17/8 9/18/8 12/19/8 14/20/8
f 15/13/9 13/14/9 14/15/9 16/16/9
f 10/17/10 15/18/10 16/19/10 11/20/10
f 16/21/11 14/22/11 12/23/11 11/24/11
f 10/23/12 9/24/12 13/21/12 15/22/12
